# https://github.com/mikedh/trimesh

o palm_pinch_r.stl
v -7.75000000 1.00000000 3.50000000
v -12.25000000 9.00000000 3.50000000
v -12.25000000 2.00000000 3.50000000
v -12.25000000 2.00000000 0.00000000
v -12.25000000 1.00000000 3.50000000
v -30.00000000 2.00000000 3.50000000
v -30.00000000 2.00000000 0.00000000
v 1.35343099 5.84534073 3.50000000
v 12.25000000 9.00000000 3.50000000
v -12.25000000 9.00000000 0.00000000
v -6.00000000 -0.00000000 3.50000000
v -1.32032156 5.85290718 3.50000000
v -3.72440314 4.70410967 3.50000000
v -5.39657402 2.62238598 3.50000000
v -5.84708691 1.34593821 3.50000000
v 12.25000000 2.00000000 3.50000000
v 12.25000000 9.00000000 0.00000000
v 32.00000000 -3.00000000 3.50000000
v 32.00000000 2.00000000 3.50000000
v 12.25000000 2.00000000 0.00000000
v 32.00000000 -4.00000000 3.50000000
v 21.35343170 -1.15465903 3.50000000
v 12.25000000 1.00000000 3.50000000
v 14.31866264 -16.00000000 3.50000000
v 14.00000000 -7.00000000 3.50000000
v 18.67967796 -1.14709270 3.50000000
v 16.27559662 -2.29589057 3.50000000
v 14.60342598 -4.37761402 3.50000000
v 14.15291309 -5.65406179 3.50000000
v 32.00000000 2.00000000 0.00000000
v 41.35343170 -6.15465927 3.50000000
v 50.00000000 -3.00000000 3.50000000
v 32.00000000 -3.00000000 0.00000000
v 33.52471161 -21.00000000 3.50000000
v 34.00000000 -12.00000000 3.50000000
v 38.67967987 -6.14709282 3.50000000
v 36.27559662 -7.29589033 3.50000000
v 34.60342407 -9.37761402 3.50000000
v 34.15291214 -10.65406132 3.50000000
v 45.40340424 -9.39171124 3.50000000
v 50.00000000 -21.00000000 3.50000000
v 50.00000000 -3.00000000 0.00000000
v 43.75166702 -7.31760025 3.50000000
v 45.84708786 -13.34593868 3.50000000
v 45.50586700 -21.00000000 3.50000000
v 45.50586700 -21.00000000 9.85000038
v 46.00000000 -12.00000000 3.50000000
v 50.00000000 -38.00000000 0.00000000
v 50.00000000 -38.00000000 9.85000038
v 50.00000000 -21.00000000 9.85000038
v 43.72440338 -16.70410919 3.50000000
v 43.59999847 -29.00000000 3.50000000
v 45.39657593 -14.62238598 3.50000000
v 34.59659576 -14.60828876 3.50000000
v 34.00000000 -29.00000000 3.50000000
v 43.59999847 -29.00000000 9.85000038
v 36.24833298 -16.68239975 3.50000000
v 38.64656830 -17.84534073 3.50000000
v 41.32032013 -17.85290718 3.50000000
v 34.00000000 -29.00000000 9.85000038
v 32.00000000 -21.00000000 3.50000000
v 32.00000000 -21.00000000 9.85000038
v 33.52471161 -21.00000000 9.85000038
v 28.00000000 -4.00000000 3.50000000
v 28.00000000 -4.00000000 9.85000038
v 32.00000000 -4.00000000 9.85000038
v 26.00000000 -7.00000000 3.50000000
v 28.00000000 -16.00000000 3.50000000
v 25.40340424 -4.39171124 3.50000000
v 23.75166512 -2.31760025 3.50000000
v 25.84708786 -8.34593868 3.50000000
v 25.50586891 -16.00000000 3.50000000
v 25.50586891 -16.00000000 9.85000038
v 28.00000000 -16.00000000 9.85000038
v 23.72440338 -11.70410919 3.50000000
v 23.60000038 -24.00000000 3.50000000
v 25.39657402 -9.62238598 3.50000000
v 16.24833488 -11.68239975 3.50000000
v 15.50000000 -24.00000000 3.50000000
v 23.60000038 -24.00000000 9.85000038
v 18.64656830 -12.84534073 3.50000000
v 21.32032204 -12.85290718 3.50000000
v 14.59659672 -9.60828876 3.50000000
v 15.50000000 -24.00000000 9.85000038
v 12.25000000 -16.00000000 3.50000000
v 12.25000000 -16.00000000 9.85000038
v 14.31866264 -16.00000000 9.85000038
v 3.75166535 4.68239975 3.50000000
v 7.75000000 1.00000000 3.50000000
v 7.75000000 1.00000000 9.85000038
v 12.25000000 1.00000000 9.85000038
v 6.00000000 -0.00000000 3.50000000
v 7.75000000 -9.00000000 3.50000000
v 5.40340328 2.60828876 3.50000000
v 5.84708691 -1.34593821 3.50000000
v 5.50586891 -9.00000000 3.50000000
v 5.50586891 -9.00000000 9.85000038
v 7.75000000 -9.00000000 9.85000038
v 3.72440314 -4.70410967 3.50000000
v 3.59999990 -17.00000000 3.50000000
v 5.39657402 -2.62238598 3.50000000
v -1.35343099 -5.84534073 3.50000000
v -3.59999990 -17.00000000 3.50000000
v 3.59999990 -17.00000000 9.85000038
v 1.32032156 -5.85290718 3.50000000
v -5.40340328 -2.60828876 3.50000000
v -5.50586891 -9.00000000 3.50000000
v -3.59999990 -17.00000000 9.85000038
v -3.75166535 -4.68239975 3.50000000
v -7.75000000 -9.00000000 3.50000000
v -7.75000000 -9.00000000 9.85000038
v -5.50586891 -9.00000000 9.85000038
v -12.25000000 1.00000000 9.85000038
v -7.75000000 1.00000000 9.85000038
v -14.00000000 -7.00000000 3.50000000
v -12.25000000 -16.00000000 3.50000000
v -18.64656830 -1.15465903 3.50000000
v -14.59659672 -4.39171124 3.50000000
v -16.24833488 -2.31760025 3.50000000
v -14.15291309 -8.34593868 3.50000000
v -14.31866264 -16.00000000 3.50000000
v -14.31866264 -16.00000000 9.85000038
v -12.25000000 -16.00000000 9.85000038
v -14.60342598 -9.62238598 3.50000000
v -15.50000000 -24.00000000 3.50000000
v -21.35343170 -12.84534073 3.50000000
v -23.60000038 -24.00000000 3.50000000
v -15.50000000 -24.00000000 9.85000038
v -18.67967796 -12.85290718 3.50000000
v -16.27559662 -11.70410919 3.50000000
v -25.40340424 -9.60828876 3.50000000
v -25.50586891 -16.00000000 3.50000000
v -23.60000038 -24.00000000 9.85000038
v -23.75166512 -11.68239975 3.50000000
v -30.00000000 -16.00000000 3.50000000
v -30.00000000 -16.00000000 9.85000038
v -26.00000000 -7.00000000 3.50000000
v -25.50586891 -16.00000000 9.85000038
v -30.00000000 -24.75000000 0.00000000
v -21.32032204 -1.14709270 3.50000000
v -23.72440338 -2.29589057 3.50000000
v -25.39657402 -4.37761402 3.50000000
v -25.84708786 -5.65406179 3.50000000
v -14.00000000 -7.00000000 1.00000000
v -14.59659672 -9.60828876 1.00000000
v -14.60342598 -4.37761402 1.00000000
v -14.15291309 -5.65406179 1.00000000
v -16.27559662 -2.29589057 1.00000000
v -18.67967796 -1.14709270 1.00000000
v -21.35343170 -1.15465903 1.00000000
v -23.75166512 -2.31760025 1.00000000
v -25.40340424 -4.39171124 1.00000000
v -26.00000000 -7.00000000 1.00000000
v -25.39657402 -9.62238598 1.00000000
v -25.84708786 -8.34593868 1.00000000
v -23.72440338 -11.70410919 1.00000000
v -21.32032204 -12.85290718 1.00000000
v -18.64656830 -12.84534073 1.00000000
v -16.24833488 -11.68239975 1.00000000
v 26.00000000 -7.00000000 1.00000000
v 25.40340424 -9.60828876 1.00000000
v 25.39657402 -4.37761402 1.00000000
v 25.84708786 -5.65406179 1.00000000
v 23.72440338 -2.29589057 1.00000000
v 21.32032204 -1.14709270 1.00000000
v 18.64656830 -1.15465903 1.00000000
v 16.24833488 -2.31760025 1.00000000
v 14.59659672 -4.39171124 1.00000000
v 14.00000000 -7.00000000 1.00000000
v 14.60342598 -9.62238598 1.00000000
v 14.15291309 -8.34593868 1.00000000
v 16.27559662 -11.70410919 1.00000000
v 18.67967796 -12.85290718 1.00000000
v 21.35343170 -12.84534073 1.00000000
v 23.75166512 -11.68239975 1.00000000
v 46.00000000 -12.00000000 1.00000000
v 45.40340424 -14.60828876 1.00000000
v 45.39657593 -9.37761402 1.00000000
v 45.84708786 -10.65406132 1.00000000
v 43.72440338 -7.29589033 1.00000000
v 41.32032013 -6.14709282 1.00000000
v 38.64656830 -6.15465927 1.00000000
v 36.24833298 -7.31760025 1.00000000
v 34.59659576 -9.39171124 1.00000000
v 34.00000000 -12.00000000 1.00000000
v 34.60342407 -14.62238598 1.00000000
v 34.15291214 -13.34593868 1.00000000
v 36.27559662 -16.70410919 1.00000000
v 38.67967987 -17.85290718 1.00000000
v 41.35343170 -17.84534073 1.00000000
v 43.75166702 -16.68239975 1.00000000
v 6.00000000 -0.00000000 1.00000000
v 5.40340328 -2.60828876 1.00000000
v 5.39657402 2.62238598 1.00000000
v 5.84708691 1.34593821 1.00000000
v 3.72440314 4.70410967 1.00000000
v 1.32032156 5.85290718 1.00000000
v -1.35343099 5.84534073 1.00000000
v -3.75166535 4.68239975 1.00000000
v -5.40340328 2.60828876 1.00000000
v -6.00000000 0.00000000 1.00000000
v -5.39657402 -2.62238598 1.00000000
v -5.84708691 -1.34593821 1.00000000
v -3.72440314 -4.70410967 1.00000000
v -1.32032156 -5.85290718 1.00000000
v 1.35343099 -5.84534073 1.00000000
v 3.75166535 -4.68239975 1.00000000
v -30.00000000 -68.50000000 0.00000000
v 40.00000000 -96.44999695 0.00000000
v -30.00000000 -96.44999695 0.00000000
v -30.00000000 -96.44999695 -4.50000000
v -30.00000000 -68.50000000 9.85000038
v -30.00000000 -85.19999695 14.35000038
v -30.00000000 -85.19999695 9.85000038
v -30.00000000 -77.55000305 30.90110016
v -30.00000000 -102.44999695 -4.50000000
v 40.00000000 -75.00000000 0.00000000
v 40.00000000 -75.00000000 9.85000038
v 40.00000000 -85.19999695 9.85000038
v 40.00000000 -102.44999695 -4.50000000
v 40.00000000 -96.44999695 -4.50000000
v -30.00000000 -42.25000000 0.00000000
v -30.00000000 -51.00000000 0.00000000
v -30.00000000 -24.75000000 -8.14999962
v -30.00000000 -24.75000000 9.85000038
v -50.00000000 -32.25000000 -8.14999962
v -30.00000000 -42.25000000 9.85000038
v -50.00000000 -42.25000000 9.85000038
v -30.00000000 -42.25000000 -8.14999962
v -30.00000000 -51.00000000 -8.14999962
v -30.00000000 -51.00000000 9.85000038
v -40.71693420 -51.00000000 -4.41873455
v -42.17680740 -51.00000000 -5.58330441
v -50.00000000 -61.00000000 9.85000038
v -30.00000000 -68.50000000 -8.14999962
v 40.00000000 -75.00000000 31.02945518
v 40.00000000 -102.44999695 31.02945518
v 38.00000000 -102.44999695 29.62903976
v 40.00000000 -85.19999695 14.35000038
v -20.05918121 -102.44999695 2.87004089
v 38.00000000 -102.44999695 14.35000038
v 37.79999924 -102.44999695 14.35000038
v 31.25000000 -102.44999695 23.50000000
v -16.75000000 -102.44999695 5.50000000
v -16.75000000 -102.44999695 23.50000000
v 26.86232376 -102.44999695 3.39258075
v -17.02264404 -102.44999695 4.31903315
v -18.86225700 -102.44999695 2.86509132
v -17.77747536 -102.44999695 3.38048267
v 30.97735596 -102.44999695 4.31903315
v 31.25000000 -102.44999695 5.50000000
v 27.94081879 -102.44999695 2.87004089
v 29.13774300 -102.44999695 2.86509132
v 30.22252464 -102.44999695 3.38048267
v 16.45265388 -102.44999695 39.59998703
v 40.00000000 -75.00000000 14.35000038
v 50.00000000 -38.00000000 14.35000038
v 40.00000000 -16.04000092 31.02945518
v 50.00000000 -16.04000092 31.02945518
v 50.00000000 -38.00000000 31.02945518
v 39.50000000 -71.10086823 14.35000038
v 48.00000000 -39.65087128 14.35000038
v 39.50000000 -85.19999695 14.35000038
v 30.98209381 -96.44999695 6.67164516
v 30.98209381 -96.44999695 4.32835484
v 31.25000000 -96.44999695 5.50000000
v 30.98076057 -102.44999695 6.67423105
v 30.23407745 -96.44999695 7.61029387
v 30.23407745 -96.44999695 3.38970590
v 29.14984512 -96.44999695 8.13223934
v 29.14984512 -96.44999695 2.86776090
v 27.95015526 -96.44999695 8.13223934
v 27.95015526 -96.44999695 2.86776090
v 26.86592102 -96.44999695 7.61029387
v 26.86592102 -96.44999695 3.38970590
v 26.11790657 -96.44999695 6.67164516
v 26.11790657 -96.44999695 4.32835484
v 25.85000038 -96.44999695 5.50000000
v 26.11923981 -102.44999695 4.32576895
v 25.85000038 -102.44999695 5.50000000
v 26.12264442 -102.44999695 6.68096685
v 26.87747574 -102.44999695 7.61951733
v 27.96225739 -102.44999695 8.13490868
v 29.15918159 -102.44999695 8.12995911
v 30.23767662 -102.44999695 7.60741901
v -17.01790619 -96.44999695 6.67164516
v -17.01790619 -96.44999695 4.32835484
v -16.75000000 -96.44999695 5.50000000
v -17.01923943 -102.44999695 6.67423105
v -17.76592255 -96.44999695 7.61029387
v -17.76592255 -96.44999695 3.38970590
v -18.85015488 -96.44999695 8.13223934
v -18.85015488 -96.44999695 2.86776090
v -20.04984474 -96.44999695 8.13223934
v -20.04984474 -96.44999695 2.86776090
v -21.13407898 -96.44999695 7.61029387
v -21.13407898 -96.44999695 3.38970590
v -21.88209343 -96.44999695 6.67164516
v -21.88209343 -96.44999695 4.32835484
v -21.13767624 -102.44999695 3.39258075
v -22.14999962 -96.44999695 5.50000000
v -21.88076019 -102.44999695 4.32576895
v -22.14999962 -102.44999695 5.50000000
v -21.87735558 -102.44999695 6.68096685
v -21.12252426 -102.44999695 7.61951733
v -20.03774261 -102.44999695 8.13490868
v -18.84081841 -102.44999695 8.12995911
v -17.76232338 -102.44999695 7.60741901
v -50.00000000 -32.25000000 9.85000038
v -50.00000000 -51.00000000 9.85000038
v -45.83744431 -51.00000000 1.97621179
v -44.00000000 -51.00000000 2.40000010
v -42.17680740 -51.00000000 1.98330498
v -40.71693420 -51.00000000 0.81873560
v -39.90565872 -51.00000000 -0.86434233
v -39.90565872 -51.00000000 -2.73565722
v -28.00000000 -85.19999695 14.35000038
v -27.79999924 -85.19999695 14.35000038
v 38.00000000 -85.19999695 14.35000038
v -21.87735558 -85.19999695 22.31903267
v -22.14999962 -85.19999695 23.50000000
v -18.84081841 -85.19999695 20.87004089
v -17.76232338 -85.19999695 21.39258003
v 15.10000038 -85.19999695 37.09999847
v -20.03774261 -85.19999695 20.86509132
v -21.12252426 -85.19999695 21.38048172
v 26.12264442 -85.19999695 22.31903267
v 25.85000038 -85.19999695 23.50000000
v 27.96225739 -85.19999695 20.86509132
v 29.15918159 -85.19999695 20.87004089
v 37.79999924 -85.19999695 14.35000038
v 26.87747574 -85.19999695 21.38048172
v -30.00000000 -67.75000000 19.35000038
v -30.00000000 -67.75000000 14.35000038
v -50.00000000 -60.25000000 19.35000038
v -28.00000000 -66.36399841 14.35000038
v -50.00000000 -60.25000000 14.35000038
v -30.00000000 -55.75000000 30.90110016
v -19.56965256 -16.04000092 30.90110016
v -30.00000000 -36.00000000 30.90110016
v -30.00000000 -102.44999695 30.90110016
v -21.30111122 -77.55000305 39.59998703
v -19.56965256 -77.55000305 30.90110016
v -28.00000000 -102.44999695 14.35000038
v -28.00000000 -102.44999695 28.90110016
v -21.30111122 -102.44999695 39.59998703
v -50.00000000 -51.00000000 -8.14999962
v -50.00000000 -61.00000000 -8.14999962
v -48.09934235 -51.00000000 -0.88637394
v -47.30117035 -51.00000000 0.79620773
v -50.00000000 -42.25000000 -8.14999962
v -48.09934235 -42.25000000 -2.71362615
v -40.71693420 -42.25000000 0.81873459
v -45.82727432 -42.25000000 1.98122931
v -44.00000000 -42.25000000 2.40000010
v -42.17680740 -42.25000000 1.98330450
v -47.28281403 -42.25000000 0.81948221
v -48.09181213 -42.25000000 -0.85335451
v -44.00000000 -42.25000000 -6.00000000
v -47.30117035 -42.25000000 -4.39620781
v -45.83744431 -42.25000000 -5.57621193
v -42.17680740 -42.25000000 -5.58330488
v -40.71693420 -42.25000000 -4.41873550
v -39.90565872 -42.25000000 -2.73565769
v -39.90565872 -42.25000000 -0.86434293
v -44.00000000 -41.75000000 2.40000010
v -42.17680740 -41.75000000 1.98330498
v -45.83744431 -41.75000000 1.97621179
v -47.30117035 -41.75000000 0.79620773
v -48.09934235 -41.75000000 -0.88637394
v -48.09181213 -41.75000000 -2.74664545
v -47.28281403 -41.75000000 -4.41948223
v -45.82727432 -41.75000000 -5.58122921
v -44.00000000 -41.75000000 -6.00000000
v -42.17680740 -41.75000000 -5.58330441
v -40.71693420 -41.75000000 -4.41873455
v -39.90565872 -41.75000000 -2.73565722
v -39.90565872 -41.75000000 -0.86434233
v -40.71693420 -41.75000000 0.81873560
v -42.14163971 -41.75000000 -4.15501928
v -43.34695053 -41.75000000 -4.72767639
v -41.00000000 -41.75000000 -1.79999995
v -41.30293655 -41.75000000 -3.11218572
v -41.29915619 -41.75000000 -0.49529901
v -43.32313156 -41.75000000 1.12217677
v -42.12480164 -41.75000000 0.54157692
v -44.65304947 -41.75000000 1.12767637
v -45.85836029 -41.75000000 0.55501938
v -47.00000000 -41.75000000 -1.79999995
v -46.69706345 -41.75000000 -0.48781437
v -46.70084381 -41.75000000 -3.10470104
v -44.67686844 -41.75000000 -4.72217655
v -45.87519836 -41.75000000 -4.14157677
v -41.00000000 -39.40000153 -1.79999995
v -41.29915619 -39.40000153 -3.10470104
v -41.30293655 -39.40000153 -0.48781437
v -42.14163971 -39.40000153 0.55501938
v -43.34695053 -39.40000153 1.12767637
v -44.67686844 -39.40000153 1.12217677
v -45.87519836 -39.40000153 0.54157692
v -46.70084381 -39.40000153 -0.49529901
v -47.00000000 -39.40000153 -1.79999995
v -46.69706345 -39.40000153 -3.11218572
v -45.85836029 -39.40000153 -4.15501928
v -44.65304947 -39.40000153 -4.72767639
v -43.32313156 -39.40000153 -4.72217655
v -42.12480164 -39.40000153 -4.14157677
v -45.82727432 -51.00000000 -5.58122921
v -44.00000000 -51.00000000 -6.00000000
v -47.28281403 -51.00000000 -4.41948223
v -48.09181213 -51.00000000 -2.74664545
v -44.00000000 -51.50000000 -6.00000000
v -42.17680740 -51.50000000 -5.58330488
v -45.83744431 -51.50000000 -5.57621193
v -47.30117035 -51.50000000 -4.39620781
v -48.09934235 -51.50000000 -2.71362615
v -48.09181213 -51.50000000 -0.85335451
v -47.28281403 -51.50000000 0.81948221
v -45.82727432 -51.50000000 1.98122931
v -44.00000000 -51.50000000 2.40000010
v -42.17680740 -51.50000000 1.98330450
v -40.71693420 -51.50000000 0.81873459
v -39.90565872 -51.50000000 -0.86434293
v -39.90565872 -51.50000000 -2.73565769
v -40.71693420 -51.50000000 -4.41873550
v -42.14163971 -51.50000000 0.55501938
v -43.34695053 -51.50000000 1.12767637
v -41.00000000 -51.50000000 -1.79999995
v -41.30293655 -51.50000000 -0.48781437
v -41.29915619 -51.50000000 -3.10470104
v -43.32313156 -51.50000000 -4.72217655
v -42.12480164 -51.50000000 -4.14157677
v -44.65304947 -51.50000000 -4.72767639
v -45.85836029 -51.50000000 -4.15501928
v -47.00000000 -51.50000000 -1.79999995
v -46.69706345 -51.50000000 -3.11218572
v -46.70084381 -51.50000000 -0.49529901
v -44.67686844 -51.50000000 1.12217677
v -45.87519836 -51.50000000 0.54157692
v -47.00000000 -53.84999847 -1.79999995
v -46.70084381 -53.84999847 -3.10470104
v -46.69706345 -53.84999847 -0.48781437
v -45.85836029 -53.84999847 0.55501938
v -44.65304947 -53.84999847 1.12767637
v -43.32313156 -53.84999847 1.12217677
v -42.12480164 -53.84999847 0.54157692
v -41.29915619 -53.84999847 -0.49529901
v -41.00000000 -53.84999847 -1.79999995
v -41.30293655 -53.84999847 -3.11218572
v -42.14163971 -53.84999847 -4.15501928
v -43.34695053 -53.84999847 -4.72767639
v -44.67686844 -53.84999847 -4.72217655
v -45.87519836 -53.84999847 -4.14157677
v 43.86161423 -16.04000092 29.01550293
v 40.00000000 -16.04000092 28.90110016
v 39.68058777 -16.04000092 29.01735687
v 40.00000000 -69.25086975 28.90110016
v 39.75613403 -9.62652493 28.30976105
v 39.65101242 -16.13765144 29.02812004
v 48.00000000 -16.04000092 29.01322937
v 48.00000000 -16.04000092 28.90110016
v 48.00000000 -29.00000000 28.90110016
v 42.00000000 -29.00000000 28.90110016
v 42.00000000 -35.00000000 28.90110016
v 48.00000000 -9.47151947 28.17461014
v 48.00000000 -29.00000000 26.64998817
v 39.85481644 -2.90307164 27.56535530
v 28.20762062 -16.32161713 33.19317627
v 43.92764282 -2.90307164 27.45869446
v 48.00000000 -2.90307164 26.64998817
v 27.46455193 -2.90307164 29.55008316
v -12.31973076 -2.90307164 32.44684601
v 48.00000381 -2.90307164 27.33563042
v -21.56013107 -2.90307164 27.86826324
v -28.00000000 -2.90307164 27.74346924
v -28.00000000 -9.51375103 28.32575798
v -28.00000000 -2.90307164 26.64998817
v -14.90039825 -2.90307164 27.97685623
v -13.41714191 -16.29739761 37.55755997
v -16.68749237 -9.73147869 28.45610428
v 20.93985367 -2.90307164 30.88974953
v 14.15424633 -2.90307164 32.44684601
v -13.39264584 -16.40859795 37.59998703
v 15.11355495 -9.65575695 35.02338791
v 22.23808670 -16.38317680 35.36590958
v 16.10000038 -16.43128967 37.59998703
v 16.07276917 -16.40859795 37.59998703
v 12.25000000 12.00000000 26.64998817
v 50.00000000 -0.00000000 26.64998817
v -28.00000000 -16.12611198 28.90110016
v -28.00000000 -24.00000000 28.90110016
v -28.00000000 -24.00000000 26.64998817
v -30.00000000 -24.00000000 26.64998817
v -30.00000000 6.00000000 26.64998817
v -12.25000000 12.00000000 26.64998817
v -23.00000000 -24.00000000 28.90110016
v -23.00000000 -24.00000000 14.35000038
v -18.41051865 -16.29709816 28.90862083
v -18.41495132 -16.10963058 28.90110016
v -23.20747185 -16.11787224 28.90110016
v -18.41104126 -16.20291138 28.90110016
v -23.00000000 -31.00000000 14.35000038
v -30.00000000 -24.00000000 19.35000038
v -30.00000000 -24.00000000 14.35000038
v -23.00000000 -31.00000000 28.90110016
v -18.41495132 -78.05000305 28.90110016
v -30.00000000 -16.04000092 30.90110016
v -30.00000000 6.00000000 28.90110016
v -50.00000000 -31.50000000 14.35000038
v -50.00000000 -31.50000000 19.35000038
v -30.00000000 -26.13600159 14.35000038
v -42.00000000 -30.63600159 14.35000038
v -28.00000000 -80.55000305 28.90110016
v -42.00000000 -61.11399841 14.35000038
v -28.00000000 -66.36399841 17.99799728
v -42.00000000 -61.11399841 17.66083336
v -29.47748756 -65.80994415 18.53772926
v -41.49381256 -61.30381775 18.53772926
v -42.00000000 -30.63600159 17.66083336
v -30.00000000 -31.00000000 14.35000038
v -30.00000000 -31.00000000 23.21977425
v -41.49381256 -30.44618225 18.53772926
v -30.00000000 -26.13600159 18.53772926
v -28.00000000 -31.00000000 23.46684456
v -19.30111122 -102.44999695 37.59998703
v -27.79999924 -102.44999695 14.35000038
v -27.79999924 -102.44999695 28.35000038
v -27.79999924 -85.19999695 28.35000038
v -20.03774261 -102.44999695 26.13490868
v -19.04999924 -102.44999695 37.09999847
v -19.04999924 -85.19999695 37.09999847
v -21.12252426 -102.44999695 25.61951828
v -21.87735558 -102.44999695 24.68096733
v -22.14999962 -102.44999695 23.50000000
v 15.10000038 -102.44999695 37.09999847
v -17.01923943 -102.44999695 24.67423058
v -17.76232338 -102.44999695 25.60741997
v -18.84081841 -102.44999695 26.12995911
v 30.23767662 -102.44999695 25.60741997
v 37.79999924 -102.44999695 28.83787537
v 25.85000038 -102.44999695 23.50000000
v 29.15918159 -102.44999695 26.12995911
v 27.96225739 -102.44999695 26.13490868
v 26.87747574 -102.44999695 25.61951828
v 26.12264442 -102.44999695 24.68096733
v 30.98076057 -102.44999695 24.67423058
v 37.79999924 -85.19999695 28.83787537
v 38.00000000 -85.19999695 29.62903976
v 16.10000038 -102.44999695 37.59998703
v -19.30111122 -80.55000305 37.59998703
v -13.39264584 -78.05000305 37.59998703
v -19.30111122 -78.05000305 37.59998703
v -16.75000000 -85.19999695 23.50000000
v -17.02264404 -102.44999695 22.31903267
v -17.01923943 -85.19999695 22.32576942
v -17.02264404 -85.19999695 24.68096733
v -17.77747536 -85.19999695 25.61951828
v -18.86225700 -85.19999695 26.13490868
v -20.05918121 -85.19999695 26.12995911
v -21.13767624 -85.19999695 25.60741997
v -21.88076019 -85.19999695 24.67423058
v -21.88076019 -102.44999695 22.32576942
v -21.13767624 -102.44999695 21.39258003
v -20.05918121 -102.44999695 20.87004089
v -18.86225700 -102.44999695 20.86509132
v -17.77747536 -102.44999695 21.38048172
v 30.97735596 -102.44999695 22.31903267
v 30.22252464 -102.44999695 21.38048172
v 29.13774300 -102.44999695 20.86509132
v 27.94081879 -102.44999695 20.87004089
v 26.86232376 -102.44999695 21.39258003
v 26.11923981 -102.44999695 22.32576942
v 31.25000000 -85.19999695 23.50000000
v 30.98076057 -85.19999695 22.32576942
v 30.97735596 -85.19999695 24.68096733
v 30.22252464 -85.19999695 25.61951828
v 29.13774300 -85.19999695 26.13490868
v 27.94081879 -85.19999695 26.12995911
v 26.86232376 -85.19999695 25.60741997
v 26.11923981 -85.19999695 24.67423058
v 30.23767662 -85.19999695 21.39258003
v 16.45265388 -16.04000092 39.59998703
v -14.54734612 -77.55000305 39.59998703
v 28.22632790 -16.04000092 35.31472397
v 14.35132694 -2.01999998 34.25054550
v -14.54734612 -16.04000092 39.59998703
v -12.25000000 12.00000000 28.90110016
v 31.45044327 -4.96039724 31.39369965
v 22.90088463 -3.49019861 32.82212067
v 50.00000000 -0.00000000 28.90110016
v 40.00000000 -6.43059587 29.96527863
v 50.00000000 -29.00000000 26.64998817
v 50.00000000 -29.00000000 14.35000038
v 12.25000000 12.00000000 28.90110016
v 40.00000000 3.17880797 28.90110016
v 26.12500000 7.58940411 28.90110016
v 42.00000000 -29.00000000 14.35000038
v 48.00000000 -35.00000000 14.35000038
v 42.00000000 -35.00000000 14.35000038
v 48.00000000 -39.65087128 28.90110016
v 48.00000000 -35.00000000 28.90110016
v 39.00000000 -72.95086670 24.35000038
v 39.00000000 -72.95086670 29.26506996
v 39.00000000 -85.19999695 24.35000038
v 39.00000000 -85.19999695 29.26506996
v -28.00000000 -55.17151260 28.90110016
v -19.30111122 -78.05000305 28.90110016
v -19.30111122 -80.55000305 28.90110016
v -28.00000000 -31.00000000 28.90110016
v -28.00000000 -36.57848740 28.90110016
v -29.13699722 -36.57848740 28.90110016
v -29.46393776 -36.70109177 28.90110016
v -29.31554031 -31.00000000 23.46684456
v -38.53620529 -34.65983200 23.66136551
v -29.46393776 -55.04890823 28.90110016
v -29.13699722 -55.17151260 28.90110016
v -38.53620529 -57.09016800 23.66136551
f 1 2 3
f 4 3 2
f 5 1 3
f 6 5 3
f 7 6 3
f 7 3 4
f 8 9 2
f 10 2 9
f 11 2 1
f 12 8 2
f 13 12 2
f 14 13 2
f 15 14 2
f 11 15 2
f 10 4 2
f 8 16 9
f 17 9 16
f 10 9 17
f 18 19 16
f 20 16 19
f 21 18 16
f 22 21 16
f 23 24 16
f 25 16 24
f 8 23 16
f 26 22 16
f 27 26 16
f 28 27 16
f 29 28 16
f 25 29 16
f 17 16 20
f 30 19 18
f 20 19 30
f 31 32 18
f 33 18 32
f 21 34 18
f 35 18 34
f 36 31 18
f 37 36 18
f 38 37 18
f 39 38 18
f 35 39 18
f 30 18 33
f 40 41 32
f 42 32 41
f 43 40 32
f 31 43 32
f 33 32 42
f 44 45 41
f 46 41 45
f 40 47 41
f 44 41 47
f 42 41 48
f 49 48 41
f 50 49 41
f 50 41 46
f 51 52 45
f 46 45 52
f 53 51 45
f 44 53 45
f 54 55 52
f 56 52 55
f 57 54 52
f 58 57 52
f 59 58 52
f 51 59 52
f 46 52 56
f 35 34 55
f 60 55 34
f 54 35 55
f 56 55 60
f 21 61 34
f 62 34 61
f 63 34 62
f 60 34 63
f 62 61 21
f 22 64 21
f 65 21 64
f 66 21 65
f 62 21 66
f 67 68 64
f 65 64 68
f 69 67 64
f 70 69 64
f 22 70 64
f 71 72 68
f 73 68 72
f 71 68 67
f 74 68 73
f 65 68 74
f 75 76 72
f 73 72 76
f 77 75 72
f 71 77 72
f 78 79 76
f 80 76 79
f 81 78 76
f 82 81 76
f 75 82 76
f 73 76 80
f 83 24 79
f 84 79 24
f 78 83 79
f 80 79 84
f 23 85 24
f 86 24 85
f 83 25 24
f 87 24 86
f 84 24 87
f 86 85 23
f 88 89 23
f 90 23 89
f 8 88 23
f 91 23 90
f 86 23 91
f 92 93 89
f 90 89 93
f 94 92 89
f 88 94 89
f 95 96 93
f 97 93 96
f 95 93 92
f 98 93 97
f 90 93 98
f 99 100 96
f 97 96 100
f 101 99 96
f 95 101 96
f 102 103 100
f 104 100 103
f 105 102 100
f 99 105 100
f 97 100 104
f 106 107 103
f 108 103 107
f 109 106 103
f 102 109 103
f 104 103 108
f 1 110 107
f 111 107 110
f 11 1 107
f 106 11 107
f 112 107 111
f 108 107 112
f 111 110 1
f 113 1 5
f 114 1 113
f 111 1 114
f 115 116 5
f 113 5 116
f 117 5 6
f 118 115 5
f 119 118 5
f 117 119 5
f 120 121 116
f 122 116 121
f 120 116 115
f 123 116 122
f 113 116 123
f 124 125 121
f 122 121 125
f 120 124 121
f 126 127 125
f 128 125 127
f 129 126 125
f 130 129 125
f 124 130 125
f 122 125 128
f 131 132 127
f 133 127 132
f 134 131 127
f 126 134 127
f 128 127 133
f 6 135 132
f 136 132 135
f 137 6 132
f 131 137 132
f 138 132 136
f 133 132 138
f 139 135 6
f 136 135 139
f 140 117 6
f 141 140 6
f 142 141 6
f 143 142 6
f 137 143 6
f 139 6 7
f 144 115 118
f 145 120 115
f 145 115 144
f 146 118 119
f 147 144 118
f 146 147 118
f 148 119 117
f 148 146 119
f 149 117 140
f 149 148 117
f 150 140 141
f 150 149 140
f 151 141 142
f 151 150 141
f 152 142 143
f 152 151 142
f 152 143 137
f 153 137 131
f 153 152 137
f 154 131 134
f 155 153 131
f 154 155 131
f 156 134 126
f 156 154 134
f 157 126 129
f 157 156 126
f 158 129 130
f 158 157 129
f 159 130 124
f 159 158 130
f 145 124 120
f 145 159 124
f 160 67 69
f 161 71 67
f 161 67 160
f 162 69 70
f 163 160 69
f 162 163 69
f 164 70 22
f 164 162 70
f 165 22 26
f 165 164 22
f 166 26 27
f 166 165 26
f 167 27 28
f 167 166 27
f 168 28 29
f 168 167 28
f 168 29 25
f 169 25 83
f 169 168 25
f 170 83 78
f 171 169 83
f 170 171 83
f 172 78 81
f 172 170 78
f 173 81 82
f 173 172 81
f 174 82 75
f 174 173 82
f 175 75 77
f 175 174 75
f 161 77 71
f 161 175 77
f 176 47 40
f 177 44 47
f 177 47 176
f 178 40 43
f 179 176 40
f 178 179 40
f 180 43 31
f 180 178 43
f 181 31 36
f 181 180 31
f 182 36 37
f 182 181 36
f 183 37 38
f 183 182 37
f 184 38 39
f 184 183 38
f 184 39 35
f 185 35 54
f 185 184 35
f 186 54 57
f 187 185 54
f 186 187 54
f 188 57 58
f 188 186 57
f 189 58 59
f 189 188 58
f 190 59 51
f 190 189 59
f 191 51 53
f 191 190 51
f 177 53 44
f 177 191 53
f 192 92 94
f 193 95 92
f 193 92 192
f 194 94 88
f 195 192 94
f 194 195 94
f 196 88 8
f 196 194 88
f 197 8 12
f 197 196 8
f 198 12 13
f 198 197 12
f 199 13 14
f 199 198 13
f 200 14 15
f 200 199 14
f 200 15 11
f 201 11 106
f 201 200 11
f 202 106 109
f 203 201 106
f 202 203 106
f 204 109 102
f 204 202 109
f 205 102 105
f 205 204 102
f 206 105 99
f 206 205 105
f 207 99 101
f 207 206 99
f 193 101 95
f 193 207 101
f 33 7 4
f 20 33 4
f 10 20 4
f 139 7 33
f 208 209 210
f 211 210 209
f 212 208 210
f 213 214 210
f 212 210 214
f 215 213 210
f 216 215 210
f 211 216 210
f 208 217 209
f 218 209 217
f 219 209 218
f 219 220 209
f 221 209 220
f 211 209 221
f 222 48 217
f 218 217 48
f 223 222 217
f 208 223 217
f 33 42 48
f 139 33 48
f 222 139 48
f 49 218 48
f 20 30 33
f 10 17 20
f 224 139 222
f 136 139 225
f 226 225 139
f 224 226 139
f 227 222 223
f 228 222 227
f 229 222 228
f 229 224 222
f 230 223 208
f 227 223 231
f 232 231 223
f 233 223 230
f 233 232 223
f 234 208 212
f 235 208 234
f 230 208 235
f 56 218 49
f 60 219 218
f 56 60 218
f 46 56 49
f 50 46 49
f 236 237 220
f 238 220 237
f 239 236 220
f 219 239 220
f 216 221 220
f 240 216 220
f 241 242 220
f 243 220 242
f 238 241 220
f 244 220 245
f 246 245 220
f 247 220 244
f 248 240 220
f 249 248 220
f 247 249 220
f 250 220 251
f 243 251 220
f 252 246 220
f 253 252 220
f 254 253 220
f 250 254 220
f 255 237 236
f 255 238 237
f 239 256 236
f 257 236 256
f 258 255 236
f 259 258 236
f 260 236 257
f 259 236 260
f 261 256 239
f 261 262 256
f 257 256 262
f 214 239 219
f 263 239 214
f 263 261 239
f 227 219 225
f 133 225 219
f 227 231 219
f 212 219 231
f 212 214 219
f 128 133 219
f 122 128 219
f 123 122 219
f 108 123 219
f 104 108 219
f 97 104 219
f 98 97 219
f 86 98 219
f 84 86 219
f 80 84 219
f 73 80 219
f 74 73 219
f 65 74 219
f 62 65 219
f 60 62 219
f 211 221 216
f 264 265 266
f 251 266 265
f 267 264 266
f 267 266 251
f 268 269 265
f 250 265 269
f 264 268 265
f 250 251 265
f 270 271 269
f 254 269 271
f 268 270 269
f 250 269 254
f 272 273 271
f 253 271 273
f 270 272 271
f 254 271 253
f 274 275 273
f 252 273 275
f 272 274 273
f 253 273 252
f 276 277 275
f 246 275 277
f 274 276 275
f 252 275 246
f 276 278 277
f 279 277 278
f 246 277 279
f 280 278 276
f 279 278 280
f 281 276 274
f 280 276 281
f 282 274 272
f 281 274 282
f 283 272 270
f 282 272 283
f 284 270 268
f 283 270 284
f 285 268 264
f 284 268 285
f 285 264 267
f 286 287 288
f 244 288 287
f 289 286 288
f 289 288 244
f 290 291 287
f 247 287 291
f 286 290 287
f 247 244 287
f 292 293 291
f 249 291 293
f 290 292 291
f 247 291 249
f 294 295 293
f 248 293 295
f 292 294 293
f 249 293 248
f 296 297 295
f 240 295 297
f 294 296 295
f 248 295 240
f 298 299 297
f 300 297 299
f 296 298 297
f 240 297 300
f 298 301 299
f 302 299 301
f 300 299 302
f 303 301 298
f 302 301 303
f 304 298 296
f 303 298 304
f 305 296 294
f 304 296 305
f 306 294 292
f 305 294 306
f 307 292 290
f 306 292 307
f 308 290 286
f 307 290 308
f 308 286 289
f 133 136 225
f 309 227 225
f 226 309 225
f 133 138 136
f 310 212 231
f 311 310 231
f 312 311 231
f 313 312 231
f 314 313 231
f 315 314 231
f 316 315 231
f 232 316 231
f 309 228 227
f 317 214 213
f 318 214 317
f 319 263 214
f 320 214 321
f 318 321 214
f 322 323 214
f 324 214 323
f 325 322 214
f 326 325 214
f 320 326 214
f 327 214 328
f 324 328 214
f 329 330 214
f 331 214 330
f 332 329 214
f 327 332 214
f 331 319 214
f 333 334 213
f 317 213 334
f 215 333 213
f 335 334 333
f 336 317 334
f 337 336 334
f 335 337 334
f 215 338 333
f 335 333 338
f 339 338 215
f 339 340 338
f 335 338 340
f 216 341 215
f 342 215 341
f 343 215 342
f 339 215 343
f 344 341 216
f 344 345 341
f 346 341 345
f 342 341 346
f 302 344 216
f 300 302 216
f 240 300 216
f 310 234 212
f 111 113 123
f 108 111 123
f 111 114 113
f 108 112 111
f 86 90 98
f 86 91 90
f 84 87 86
f 62 66 65
f 60 63 62
f 347 234 310
f 347 348 234
f 235 234 348
f 349 347 310
f 350 349 310
f 311 350 310
f 226 228 309
f 226 351 228
f 352 228 351
f 353 229 228
f 354 355 228
f 356 228 355
f 357 354 228
f 358 357 228
f 352 358 228
f 356 353 228
f 145 144 147
f 145 147 146
f 159 146 148
f 145 146 159
f 158 148 149
f 159 148 158
f 157 149 150
f 158 149 157
f 156 150 151
f 157 150 156
f 154 151 152
f 156 151 154
f 155 152 153
f 154 152 155
f 161 160 163
f 161 163 162
f 175 162 164
f 161 162 175
f 174 164 165
f 175 164 174
f 173 165 166
f 174 165 173
f 172 166 167
f 173 166 172
f 170 167 168
f 172 167 170
f 171 168 169
f 170 168 171
f 177 176 179
f 177 179 178
f 191 178 180
f 177 178 191
f 190 180 181
f 191 180 190
f 189 181 182
f 190 181 189
f 188 182 183
f 189 182 188
f 186 183 184
f 188 183 186
f 187 184 185
f 186 184 187
f 193 192 195
f 193 195 194
f 207 194 196
f 193 194 207
f 206 196 197
f 207 196 206
f 205 197 198
f 206 197 205
f 204 198 199
f 205 198 204
f 202 199 200
f 204 199 202
f 203 200 201
f 202 200 203
f 224 351 226
f 229 351 224
f 359 351 229
f 360 352 351
f 361 360 351
f 359 361 351
f 362 359 229
f 363 362 229
f 364 363 229
f 365 364 229
f 353 365 229
f 366 355 354
f 367 356 355
f 366 367 355
f 368 354 357
f 368 366 354
f 369 357 358
f 369 368 357
f 370 358 352
f 370 369 358
f 371 352 360
f 371 370 352
f 372 360 361
f 372 371 360
f 373 361 359
f 373 372 361
f 374 359 362
f 373 359 374
f 375 362 363
f 375 374 362
f 376 363 364
f 376 375 363
f 377 364 365
f 377 376 364
f 378 365 353
f 378 377 365
f 379 353 356
f 379 378 353
f 367 379 356
f 373 374 375
f 373 375 376
f 380 376 377
f 381 373 376
f 380 381 376
f 382 377 378
f 383 377 382
f 383 380 377
f 384 378 379
f 384 382 378
f 385 379 367
f 386 384 379
f 385 386 379
f 368 367 366
f 387 367 368
f 387 385 367
f 387 368 369
f 388 369 370
f 388 387 369
f 389 370 371
f 390 388 370
f 389 390 370
f 391 371 372
f 391 389 371
f 392 372 373
f 393 391 372
f 392 393 372
f 381 392 373
f 394 382 384
f 395 383 382
f 395 382 394
f 396 384 386
f 396 394 384
f 397 386 385
f 397 396 386
f 398 385 387
f 398 397 385
f 399 387 388
f 399 398 387
f 400 388 390
f 400 399 388
f 401 390 389
f 401 400 390
f 402 389 391
f 402 401 389
f 403 391 393
f 403 402 391
f 404 393 392
f 404 403 393
f 405 392 381
f 405 404 392
f 406 381 380
f 406 405 381
f 407 380 383
f 407 406 380
f 395 407 383
f 402 394 396
f 403 394 402
f 395 394 403
f 400 396 397
f 401 396 400
f 402 396 401
f 399 397 398
f 400 397 399
f 407 403 404
f 395 403 407
f 406 404 405
f 407 404 406
f 230 348 347
f 230 235 348
f 233 230 347
f 408 409 347
f 233 347 409
f 410 408 347
f 411 410 347
f 349 411 347
f 412 409 408
f 413 233 409
f 412 413 409
f 414 408 410
f 414 412 408
f 415 410 411
f 415 414 410
f 416 411 349
f 416 415 411
f 417 349 350
f 417 416 349
f 418 350 311
f 418 417 350
f 419 311 312
f 419 418 311
f 420 312 313
f 419 312 420
f 421 313 314
f 421 420 313
f 422 314 315
f 422 421 314
f 423 315 316
f 423 422 315
f 424 316 232
f 424 423 316
f 425 232 233
f 425 424 232
f 413 425 233
f 419 420 421
f 419 421 422
f 426 422 423
f 427 419 422
f 426 427 422
f 428 423 424
f 429 426 423
f 428 429 423
f 430 424 425
f 430 428 424
f 431 425 413
f 432 430 425
f 431 432 425
f 414 413 412
f 433 413 414
f 433 431 413
f 433 414 415
f 434 415 416
f 434 433 415
f 435 416 417
f 436 416 435
f 436 434 416
f 437 417 418
f 437 435 417
f 438 418 419
f 439 437 418
f 438 439 418
f 427 438 419
f 440 435 437
f 441 436 435
f 441 435 440
f 442 437 439
f 442 440 437
f 443 439 438
f 443 442 439
f 444 438 427
f 444 443 438
f 445 427 426
f 445 444 427
f 446 426 429
f 446 445 426
f 447 429 428
f 447 446 429
f 448 428 430
f 448 447 428
f 449 430 432
f 449 448 430
f 450 432 431
f 450 449 432
f 451 431 433
f 451 450 431
f 452 433 434
f 452 451 433
f 453 434 436
f 453 452 434
f 441 453 436
f 448 440 442
f 449 440 448
f 441 440 449
f 446 442 443
f 447 442 446
f 448 442 447
f 445 443 444
f 446 443 445
f 453 449 450
f 441 449 453
f 452 450 451
f 453 450 452
f 454 455 456
f 457 456 455
f 458 454 456
f 459 458 456
f 457 459 456
f 460 461 455
f 462 455 461
f 454 460 455
f 463 455 462
f 464 455 463
f 457 455 464
f 465 461 460
f 466 461 465
f 462 461 466
f 458 460 454
f 465 460 458
f 465 458 467
f 468 467 458
f 469 465 467
f 470 469 467
f 471 472 467
f 470 467 472
f 468 471 467
f 468 458 459
f 468 459 457
f 469 473 465
f 466 465 473
f 470 473 469
f 466 473 470
f 470 474 475
f 476 475 474
f 477 470 475
f 476 477 475
f 470 478 474
f 476 474 478
f 470 472 478
f 479 478 472
f 480 476 478
f 480 478 479
f 481 482 472
f 483 472 482
f 471 481 472
f 483 479 472
f 484 482 481
f 483 482 484
f 468 481 471
f 485 481 468
f 486 481 485
f 487 481 486
f 487 484 481
f 488 470 477
f 489 466 470
f 488 489 470
f 490 491 477
f 492 477 491
f 476 490 477
f 493 477 492
f 494 477 493
f 495 477 494
f 495 488 477
f 496 491 490
f 497 492 491
f 496 497 491
f 480 490 476
f 498 496 490
f 480 499 500
f 501 498 490
f 500 490 480
f 501 490 500
f 493 492 497
f 502 497 496
f 503 493 497
f 504 503 497
f 502 504 497
f 505 502 496
f 506 496 498
f 505 496 506
f 340 493 503
f 507 493 340
f 508 493 507
f 508 494 493
f 509 503 504
f 510 503 509
f 510 340 503
f 511 512 504
f 509 504 512
f 502 511 504
f 513 317 336
f 344 317 345
f 513 345 317
f 318 317 344
f 337 514 336
f 515 336 514
f 515 513 336
f 509 512 514
f 516 514 512
f 337 509 514
f 517 515 514
f 518 517 514
f 516 518 514
f 519 512 511
f 516 512 519
f 502 520 511
f 521 511 520
f 519 511 522
f 523 522 511
f 521 523 511
f 505 520 502
f 524 520 505
f 524 521 520
f 510 509 337
f 510 337 335
f 346 345 525
f 513 525 345
f 302 526 344
f 318 344 526
f 302 527 526
f 528 526 527
f 318 526 528
f 529 530 527
f 531 527 530
f 532 529 527
f 533 532 527
f 534 533 527
f 303 534 527
f 302 303 527
f 528 527 531
f 245 535 530
f 531 530 535
f 536 245 530
f 537 536 530
f 538 537 530
f 529 538 530
f 539 540 535
f 324 535 540
f 279 535 245
f 279 280 535
f 541 535 280
f 542 539 535
f 543 542 535
f 544 543 535
f 545 544 535
f 541 545 535
f 531 535 324
f 546 242 540
f 331 540 242
f 539 546 540
f 547 540 331
f 324 540 547
f 319 242 241
f 546 243 242
f 331 242 319
f 548 241 238
f 548 319 241
f 255 549 238
f 486 238 549
f 486 548 238
f 346 525 549
f 550 549 525
f 255 346 549
f 551 486 549
f 552 549 550
f 552 551 549
f 550 525 513
f 553 245 536
f 244 245 554
f 555 554 245
f 246 279 245
f 555 245 553
f 556 536 537
f 553 536 556
f 557 537 538
f 556 537 557
f 558 538 529
f 557 538 558
f 559 529 532
f 558 529 559
f 560 532 533
f 559 532 560
f 561 533 534
f 560 533 561
f 304 562 534
f 321 534 562
f 303 304 534
f 561 534 321
f 304 563 562
f 320 562 563
f 320 321 562
f 305 564 563
f 326 563 564
f 304 305 563
f 320 563 326
f 306 565 564
f 325 564 565
f 305 306 564
f 326 564 325
f 307 566 565
f 322 565 566
f 306 307 565
f 325 565 322
f 308 554 566
f 323 566 554
f 307 308 566
f 322 566 323
f 289 244 554
f 308 289 554
f 323 554 555
f 567 267 251
f 567 251 243
f 567 285 267
f 568 284 285
f 567 568 285
f 569 283 284
f 568 569 284
f 570 282 283
f 569 570 283
f 571 281 282
f 570 571 282
f 541 280 281
f 572 541 281
f 571 572 281
f 573 243 546
f 574 567 243
f 574 243 573
f 575 546 539
f 573 546 575
f 576 539 542
f 575 539 576
f 577 542 543
f 576 542 577
f 578 543 544
f 577 543 578
f 579 544 545
f 578 544 579
f 580 545 541
f 579 545 580
f 328 541 572
f 580 541 328
f 327 572 571
f 327 328 572
f 332 571 570
f 327 571 332
f 329 570 569
f 332 570 329
f 330 569 568
f 329 569 330
f 581 568 567
f 330 568 581
f 581 567 574
f 582 346 255
f 583 346 582
f 583 342 346
f 584 582 255
f 258 584 255
f 585 582 584
f 586 583 582
f 587 586 582
f 587 582 585
f 588 584 258
f 589 585 584
f 588 589 584
f 590 258 259
f 591 258 590
f 588 258 591
f 343 342 583
f 343 583 586
f 339 343 586
f 587 339 586
f 339 507 340
f 510 335 340
f 587 507 339
f 587 508 507
f 587 494 508
f 587 495 494
f 489 592 466
f 593 466 592
f 463 462 466
f 593 463 466
f 259 592 489
f 260 593 592
f 259 260 592
f 590 489 488
f 590 259 489
f 594 488 495
f 595 590 488
f 596 595 488
f 596 488 594
f 587 594 495
f 593 597 463
f 464 463 597
f 598 597 593
f 599 464 597
f 599 597 598
f 257 598 593
f 260 257 593
f 600 464 601
f 599 601 464
f 598 600 601
f 599 598 601
f 600 457 464
f 261 457 600
f 261 602 457
f 603 457 602
f 486 457 603
f 485 468 457
f 486 485 457
f 262 600 598
f 261 600 262
f 257 262 598
f 263 602 261
f 604 603 602
f 604 602 263
f 605 603 604
f 486 603 605
f 319 604 263
f 605 604 319
f 531 561 321
f 318 531 321
f 531 560 561
f 531 559 560
f 531 558 559
f 324 557 558
f 531 324 558
f 324 556 557
f 324 553 556
f 324 555 553
f 324 323 555
f 324 580 328
f 324 579 580
f 324 578 579
f 547 577 578
f 324 547 578
f 547 576 577
f 547 575 576
f 547 573 575
f 547 574 573
f 547 581 574
f 331 330 581
f 547 331 581
f 548 605 319
f 318 528 531
f 486 605 548
f 483 487 486
f 551 483 486
f 595 591 590
f 596 591 595
f 596 588 591
f 594 585 589
f 587 585 594
f 596 589 588
f 596 594 589
f 483 484 487
f 498 479 483
f 498 480 479
f 551 498 483
f 501 480 498
f 501 499 480
f 551 506 498
f 501 500 499
f 606 607 608
f 552 608 607
f 513 606 608
f 550 513 608
f 552 550 608
f 606 506 607
f 551 607 506
f 552 607 551
f 609 505 506
f 610 609 506
f 611 610 506
f 612 611 506
f 606 612 506
f 524 505 609
f 524 609 610
f 613 610 611
f 524 610 613
f 614 611 612
f 613 611 614
f 606 615 612
f 614 612 615
f 606 616 615
f 517 615 616
f 617 615 517
f 614 615 617
f 515 616 606
f 517 616 515
f 515 606 513
f 518 617 517
f 516 617 518
f 519 614 617
f 516 519 617
f 519 522 614
f 521 614 522
f 613 614 521
f 521 522 523
f 524 613 521

