# https://github.com/mikedh/trimesh

o ph_thumb_l_collision.stl
v -0.00219993 -2.49988294 7.37491369
v 11.62870026 -5.48388052 -5.32072973
v 33.25056076 -4.64191484 -3.46840572
v 31.44937134 10.21802425 -2.19245791
v 33.25056076 6.73766613 -8.64094257
v 11.62865257 5.89568853 -10.49329281
v 6.87870073 12.54007053 4.12434673
v 23.50000000 13.85426235 5.80726433
v 6.00000000 11.66225624 2.19315553
v 6.00000000 6.49421835 -9.17652702
v 6.43939495 6.05533695 -10.14206600
v -2.12161899 2.62106204 -7.37491369
v 9.00000000 12.90366459 4.92425489
v 23.50000000 1.56431448 11.39360428
v 9.00000000 1.52408385 10.09679222
v 32.08763123 -1.91916490 3.72994924
v 28.22382545 1.27151120 10.74943638
v 8.76007938 5.87414169 -10.54069614
v 7.49667740 5.87366962 -10.54173374
v 0.00219993 -2.49988294 -7.37491369
v 10.75680256 -0.54456961 -7.62476587
v 32.07907867 10.36636639 -1.86610651
v 28.22382545 13.56145859 5.16309690
v 32.00632858 12.35446644 2.50771356
v -2.11459279 -1.62802744 -7.37491369
v -2.76852441 -0.65540326 -7.37491369
v -5.41389322 -2.08645701 -2.42491388
v -3.00000000 0.50000000 -7.37491369
v -6.00000000 0.50000000 -2.42491388
v -3.75409055 5.18047047 -2.42491388
v -3.75409055 5.18047047 2.42491388
v 23.47826576 12.42779160 2.66902900
v 30.74549103 10.28385353 -2.04763436
v -2.11459279 2.62802744 7.37491369
v -4.96374846 3.87063813 2.42491388
v 32.10513687 -1.90972018 3.75072765
v 32.12198257 -1.90007114 3.77195573
v 33.25056076 -3.64431572 -1.27368736
v 32.84467697 -0.90990829 5.95031357
v 10.50213814 5.87500477 -10.53879738
v 10.75680256 0.91201675 -8.28685093
v 29.15629959 11.51075840 0.65155578
v 32.84467697 11.38003922 0.36397395
v 33.25056076 7.73526335 -6.44622850
v 32.84477234 10.92474174 0.57062519
v 32.82304001 10.15225315 1.28775847
v 28.22393417 12.19588947 5.78375959
v 28.22405624 2.63702035 10.12864304
v -2.12161899 -1.62106204 7.37491369
v -5.47110367 -1.96313357 2.42491388
v -3.00000000 0.50000000 7.37491369
v -3.67248273 -4.18797159 -2.46973062
v -5.86628580 -0.75963867 2.42491388
v -6.00000000 0.50000000 2.42491388
v -4.96374846 3.87063813 -2.42491388
v -2.21293259 6.07700014 -2.42491388
v 30.33114624 10.52984810 -1.50644648
v -5.73508883 2.26316619 2.42491388
v 32.55520630 1.03468990 6.60351610
v 32.00632858 0.06451875 8.09405327
v 32.61446381 0.05993471 6.87566376
v 32.00698853 10.98860264 3.12772799
v 32.61455917 11.43940639 1.70288742
v 32.82253265 0.59339267 5.63266230
v 32.84476852 -0.45476454 5.74332571
v 32.12198257 10.38987637 -1.81438398
v -4.74266863 -3.17627859 -0.24400561
v 7.50000000 -5.50606680 -5.36953974
v -5.73508883 2.26316619 -2.42491388
v -2.76852441 1.65540326 7.37491369
v 32.00653076 0.97335148 7.68066311
v 32.55544662 10.59368038 2.25889874
v 32.10103607 10.37796307 -1.84059298
v -3.77008009 -4.16760063 -2.42491388
v 10.50217819 -5.50473404 -5.36660719
v -3.72133541 -4.17783070 -2.44741964
v 8.76005268 -5.50567484 -5.36867666
f 1 2 3
f 4 5 6
f 5 3 6
f 2 6 3
f 7 8 9
f 10 11 12
f 7 13 8
f 1 14 15
f 14 8 15
f 13 15 8
f 3 16 1
f 1 17 14
f 4 18 19
f 18 20 19
f 20 21 2
f 2 21 6
f 4 22 5
f 23 24 8
f 14 23 8
f 17 23 14
f 20 25 19
f 26 19 25
f 26 25 27
f 26 28 19
f 19 28 11
f 11 28 12
f 27 29 26
f 29 28 26
f 10 12 30
f 7 30 31
f 11 10 32
f 9 8 32
f 9 32 10
f 4 19 33
f 11 33 19
f 32 33 11
f 22 4 33
f 15 13 34
f 13 7 34
f 31 34 7
f 35 34 31
f 1 36 37
f 16 36 1
f 37 36 3
f 16 3 36
f 38 39 3
f 39 37 3
f 37 39 1
f 40 6 20
f 18 40 20
f 6 40 4
f 18 4 40
f 6 41 20
f 20 41 21
f 21 41 6
f 24 42 8
f 22 42 24
f 32 8 42
f 32 42 22
f 43 22 24
f 44 43 45
f 43 44 5
f 45 43 46
f 24 47 48
f 23 47 24
f 47 17 48
f 17 47 23
f 1 49 50
f 50 49 51
f 15 49 1
f 51 49 15
f 20 52 25
f 50 53 27
f 53 29 27
f 29 53 54
f 51 54 53
f 51 53 50
f 30 12 55
f 10 56 9
f 30 56 10
f 9 56 7
f 56 30 7
f 32 22 57
f 33 57 22
f 32 57 33
f 58 29 54
f 51 58 54
f 59 60 61
f 39 61 60
f 1 60 17
f 39 60 1
f 24 60 62
f 48 60 24
f 17 60 48
f 61 46 63
f 43 63 46
f 24 63 43
f 61 64 46
f 39 64 61
f 45 46 65
f 64 65 46
f 64 39 65
f 38 65 39
f 65 38 44
f 45 65 44
f 5 66 43
f 43 66 22
f 50 27 67
f 50 67 1
f 68 52 20
f 52 68 1
f 58 69 29
f 29 69 28
f 28 69 12
f 55 12 69
f 58 51 70
f 15 70 51
f 34 70 15
f 58 70 35
f 34 35 70
f 60 71 62
f 71 60 59
f 72 59 61
f 63 72 61
f 24 72 63
f 62 72 24
f 71 72 62
f 72 71 59
f 22 73 5
f 5 73 66
f 66 73 22
f 67 27 74
f 25 74 27
f 67 74 1
f 2 75 20
f 1 75 2
f 52 76 25
f 25 76 74
f 52 1 76
f 74 76 1
f 77 68 20
f 75 77 20
f 68 77 1
f 75 1 77
f 44 38 5
f 5 38 3
f 31 55 35
f 30 55 31
f 55 69 35
f 35 69 58

