# https://github.com/mikedh/trimesh

o ph_thumb_r_collision.stl
v 33.25056076 -6.73766613 -8.64094257
v 11.62865257 -5.89568853 -10.49329281
v 33.25056076 4.64191484 -3.46840572
v 11.62870026 5.48388052 -5.32072973
v -0.00219993 2.49988294 7.37491369
v 23.50000000 -1.56431448 11.39360428
v 9.00000000 -1.52408385 10.09679222
v 23.50000000 -13.85426235 5.80726433
v 31.44937134 -10.21802425 -2.19245791
v 28.22382545 -1.27151120 10.74943638
v 28.22393417 -12.19588947 5.78375959
v 28.22405624 -2.63702035 10.12864304
v 10.75680256 0.54456961 -7.62476587
v 0.00219993 2.49988294 -7.37491369
v -2.11459279 1.62802744 -7.37491369
v 7.49667740 -5.87366962 -10.54173374
v -3.67248273 4.18797159 -2.46973062
v 6.00000000 -11.66225624 2.19315553
v 6.87870073 -12.54007053 4.12434673
v -5.86628580 0.75963867 2.42491388
v -5.41389322 2.08645701 -2.42491388
v -6.00000000 -0.50000000 -2.42491388
v 9.00000000 -12.90366459 4.92425489
v 23.47826576 -12.42779160 2.66902900
v 6.00000000 -6.49421835 -9.17652702
v 32.00632858 -0.06451875 8.09405327
v 10.50213814 -5.87500477 -10.53879738
v 6.43939495 -6.05533695 -10.14206600
v -2.12161899 -2.62106204 -7.37491369
v 10.75680256 -0.91201675 -8.28685093
v -3.00000000 -0.50000000 -7.37491369
v 7.50000000 5.50606680 -5.36953974
v -3.77008009 4.16760063 -2.42491388
v -2.21293259 -6.07700014 -2.42491388
v -2.12161899 1.62106204 7.37491369
v 32.84476852 0.45476454 5.74332571
v 32.82253265 -0.59339267 5.63266230
v 32.82304001 -10.15225315 1.28775847
v 33.25056076 -7.73526335 -6.44622850
v 33.25056076 3.64431572 -1.27368736
v 32.00632858 -12.35446644 2.50771356
v 32.61446381 -0.05993471 6.87566376
v 32.61455917 -11.43940639 1.70288742
v 8.76007938 -5.87414169 -10.54069614
v -2.11459279 -2.62802744 7.37491369
v -3.75409055 -5.18047047 2.42491388
v -2.76852441 -1.65540326 7.37491369
v -2.76852441 0.65540326 -7.37491369
v 10.50217819 5.50473404 -5.36660719
v -3.72133541 4.17783070 -2.44741964
v -5.47110367 1.96313357 2.42491388
v -3.75409055 -5.18047047 -2.42491388
v -3.00000000 -0.50000000 7.37491369
v -5.73508883 -2.26316619 2.42491388
v 30.74549103 -10.28385353 -2.04763436
v 30.33114624 -10.52984810 -1.50644648
v 32.84477234 -10.92474174 0.57062519
v 32.07907867 -10.36636639 -1.86610651
v 28.22382545 -13.56145859 5.16309690
v 32.55544662 -10.59368038 2.25889874
v 32.84467697 0.90990829 5.95031357
v 32.12198257 1.90007114 3.77195573
v 32.08763123 1.91916490 3.72994924
v -4.96374846 -3.87063813 2.42491388
v 8.76005268 5.50567484 -5.36867666
v -4.74266863 3.17627859 -0.24400561
v -5.73508883 -2.26316619 -2.42491388
v -6.00000000 -0.50000000 2.42491388
v 29.15629959 -11.51075840 0.65155578
v 32.84467697 -11.38003922 0.36397395
v 32.00698853 -10.98860264 3.12772799
v 32.00653076 -0.97335148 7.68066311
v 32.55520630 -1.03468990 6.60351610
v 32.10513687 1.90972018 3.75072765
v -4.96374846 -3.87063813 -2.42491388
v 32.12198257 -10.38987637 -1.81438398
v 32.10103607 -10.37796307 -1.84059298
f 1 2 3
f 4 3 2
f 4 5 3
f 6 7 8
f 5 7 6
f 9 2 1
f 10 11 12
f 10 5 6
f 13 4 2
f 14 4 13
f 15 14 16
f 15 17 14
f 18 8 19
f 20 21 22
f 23 19 8
f 7 23 8
f 8 18 24
f 24 18 25
f 26 10 12
f 26 5 10
f 27 14 2
f 2 9 27
f 28 25 29
f 28 24 25
f 30 2 14
f 30 13 2
f 14 13 30
f 31 28 29
f 28 31 16
f 14 17 32
f 32 17 5
f 33 15 21
f 18 34 25
f 34 18 19
f 35 7 5
f 36 37 38
f 36 39 40
f 11 41 12
f 41 26 12
f 42 38 37
f 42 43 38
f 44 16 14
f 14 27 44
f 44 9 16
f 44 27 9
f 45 46 19
f 23 45 19
f 45 7 47
f 45 23 7
f 48 15 16
f 31 48 16
f 48 21 15
f 48 22 21
f 48 31 22
f 49 4 14
f 4 49 5
f 50 17 15
f 15 33 50
f 50 5 17
f 50 33 5
f 21 20 51
f 51 35 5
f 46 52 19
f 52 34 19
f 52 29 25
f 34 52 25
f 53 54 47
f 47 7 53
f 53 7 35
f 53 51 20
f 53 35 51
f 55 56 24
f 24 28 55
f 55 16 9
f 55 28 16
f 57 36 38
f 57 39 36
f 24 56 58
f 55 58 56
f 58 55 9
f 58 9 1
f 8 41 59
f 59 41 11
f 10 59 11
f 59 6 8
f 59 10 6
f 60 41 43
f 42 60 43
f 61 26 42
f 61 36 40
f 36 61 37
f 61 42 37
f 61 40 3
f 62 61 3
f 26 61 5
f 61 62 5
f 3 5 63
f 64 45 47
f 54 64 47
f 46 45 64
f 14 32 65
f 65 49 14
f 65 32 5
f 49 65 5
f 66 33 21
f 21 51 66
f 33 66 5
f 66 51 5
f 67 31 29
f 31 67 22
f 67 54 22
f 68 53 20
f 68 54 53
f 68 20 22
f 54 68 22
f 69 41 8
f 69 58 41
f 8 24 69
f 24 58 69
f 41 58 70
f 57 70 39
f 70 1 39
f 43 41 70
f 38 43 70
f 70 57 38
f 71 60 72
f 41 60 71
f 26 71 72
f 71 26 41
f 73 42 26
f 73 60 42
f 73 26 72
f 73 72 60
f 74 5 62
f 74 63 5
f 74 62 3
f 3 63 74
f 29 52 75
f 75 67 29
f 70 76 1
f 76 70 58
f 77 58 1
f 76 77 1
f 77 76 58
f 3 40 39
f 39 1 3
f 46 64 75
f 75 52 46
f 75 64 54
f 67 75 54

