# https://github.com/mikedh/trimesh

o flange_iso_04.stl
v -31.11039352 4.93842268 0.00000000
v -31.11212349 -4.92761850 0.00000000
v -31.50000000 0.00000000 0.00000000
v -31.50000000 0.00000000 -4.50000000
v -31.11218262 4.92768574 -4.50000000
v -29.95656395 -9.73878002 0.00000000
v -29.95828056 -9.73403549 -4.50000000
v -31.11218262 -4.92768574 -4.50000000
v -29.94908142 9.76175117 0.00000000
v -28.06460953 -14.30494308 0.00000000
v -28.06670570 -14.30070114 -4.50000000
v -25.63808250 -11.08288193 0.00000000
v -25.48587990 -18.51193810 0.00000000
v -28.04902077 14.33550739 0.00000000
v -26.64999962 9.00000000 0.00000000
v -26.64999962 -9.00000000 0.00000000
v -26.38261032 -10.15934086 0.00000000
v -22.34723091 -11.07129955 0.00000000
v -22.27436638 -22.27282333 0.00000000
v -25.48403549 -18.51523590 -4.50000000
v -23.40271187 -11.58173943 0.00000000
v -24.57645416 -11.58648872 0.00000000
v -21.35000038 -9.00000000 0.00000000
v -18.51615524 -25.48300743 0.00000000
v -22.27386284 -22.27386284 -4.50000000
v -21.61422348 -10.15292358 0.00000000
v -18.49712181 25.49685478 0.00000000
v -14.30644321 -28.06358337 0.00000000
v -18.51523590 -25.48403549 -4.50000000
v -14.28722191 28.07334518 0.00000000
v -9.74446106 -29.95478630 0.00000000
v -14.30070114 -28.06670570 -4.50000000
v -9.72443962 29.96127701 0.00000000
v -4.93799162 -31.11049080 0.00000000
v -9.73403549 -29.95828056 -4.50000000
v -4.91903639 31.11350060 0.00000000
v -0.00897581 -31.49998093 0.00000000
v -4.92768574 -31.11218262 -4.50000000
v 0.00897581 31.49998093 0.00000000
v 4.91903639 -31.11350060 0.00000000
v -0.00000000 -31.50000000 -4.50000000
v 4.93799162 31.11049080 0.00000000
v 9.72443962 -29.96127701 0.00000000
v 4.92768574 -31.11218262 -4.50000000
v 9.74446106 29.95478630 0.00000000
v 14.28722191 -28.07334518 0.00000000
v 9.73403549 -29.95828056 -4.50000000
v 14.30644321 28.06358337 0.00000000
v 18.49712181 -25.49685478 0.00000000
v 14.30070114 -28.06670570 -4.50000000
v 21.61738968 -10.15934086 0.00000000
v 22.25303650 -22.29426384 0.00000000
v 18.51523590 -25.48403549 -4.50000000
v 18.51615524 25.48300743 0.00000000
v 21.35000038 9.00000000 0.00000000
v 21.35000038 -9.00000000 0.00000000
v 24.59728813 -11.58173943 0.00000000
v 25.46444893 -18.54153061 0.00000000
v 22.27386284 -22.27386284 -4.50000000
v 23.42354584 -11.58648872 0.00000000
v 22.36191750 -11.08288193 0.00000000
v 26.64999962 -9.00000000 0.00000000
v 28.04902077 -14.33550739 0.00000000
v 25.48403549 -18.51523590 -4.50000000
v 26.38577652 -10.15292358 0.00000000
v 25.65276909 -11.07129955 0.00000000
v 28.06460953 14.30494308 0.00000000
v 29.94908142 -9.76175117 0.00000000
v 28.06670570 -14.30070114 -4.50000000
v 29.95656395 9.73878002 0.00000000
v 31.11039352 -4.93842268 0.00000000
v 29.95828056 -9.73403549 -4.50000000
v 31.11212349 4.92761850 0.00000000
v 31.50000000 0.00000000 0.00000000
v 31.11218262 -4.92768574 -4.50000000
v 31.50000000 -0.00000000 -4.50000000
v 29.95828056 9.73403549 -4.50000000
v 31.11218262 4.92768574 -4.50000000
v 28.06670570 14.30070114 -4.50000000
v 25.63808250 11.08288193 0.00000000
v 25.48587990 18.51193810 0.00000000
v 26.38261032 10.15934086 0.00000000
v 26.64999962 9.00000000 0.00000000
v 22.34723091 11.07129955 0.00000000
v 22.27436638 22.27282333 0.00000000
v 25.48403549 18.51523590 -4.50000000
v 23.40271187 11.58173943 0.00000000
v 24.57645416 11.58648872 0.00000000
v 22.27386284 22.27386284 -4.50000000
v 21.61422348 10.15292358 0.00000000
v 18.51523590 25.48403549 -4.50000000
v 14.30070114 28.06670570 -4.50000000
v 9.73403549 29.95828056 -4.50000000
v 4.92768574 31.11218262 -4.50000000
v 0.00000000 31.50000000 -4.50000000
v -4.92768574 31.11218262 -4.50000000
v -9.73403549 29.95828056 -4.50000000
v -14.30070114 28.06670570 -4.50000000
v -21.61738968 10.15934086 0.00000000
v -22.25303650 22.29426384 0.00000000
v -18.51523590 25.48403549 -4.50000000
v -21.35000038 9.00000000 0.00000000
v -24.59728813 11.58173943 0.00000000
v -25.46444893 18.54153061 0.00000000
v -22.27386284 22.27386284 -4.50000000
v -23.42354584 11.58648872 0.00000000
v -22.36191750 11.08288193 0.00000000
v -25.48403549 18.51523590 -4.50000000
v -26.38577652 10.15292358 0.00000000
v -25.65276909 11.07129955 0.00000000
v -28.06670570 14.30070114 -4.50000000
v -29.95828056 9.73403549 -4.50000000
v 26.38261032 -7.84065914 0.00000000
v 26.38577652 7.84707642 0.00000000
v 26.64999962 9.00000000 26.00000000
v 26.38709068 10.15033531 26.00000000
v 25.65276909 6.92870045 0.00000000
v 26.38709068 7.84966421 26.00000000
v 25.63808250 -6.91711760 0.00000000
v 24.59728813 6.41826057 0.00000000
v 25.65229225 6.92853832 26.00000000
v 24.57645416 -6.41351080 0.00000000
v 23.42354584 6.41351080 0.00000000
v 24.59034157 6.41666317 26.00000000
v 23.40271187 -6.41826057 0.00000000
v 22.36191750 6.91711760 0.00000000
v 23.40965843 6.41666317 26.00000000
v 22.34723091 -6.92870045 0.00000000
v 21.61738968 7.84065914 0.00000000
v 22.34770775 6.92853832 26.00000000
v 21.61290932 7.84966421 26.00000000
v 21.61422348 -7.84707642 0.00000000
v 21.35000038 9.00000000 26.00000000
v 21.61290932 10.15033531 26.00000000
v 22.34770775 11.07146168 26.00000000
v 23.40965843 11.58333683 26.00000000
v 24.59034157 11.58333683 26.00000000
v 25.65229225 11.07146168 26.00000000
v 26.64999962 -9.00000000 26.00000000
v 26.38709068 -7.84966421 26.00000000
v 26.38709068 -10.15033531 26.00000000
v 25.65229225 -11.07146168 26.00000000
v 24.59034157 -11.58333683 26.00000000
v 23.40965843 -11.58333683 26.00000000
v 22.34770775 -11.07146168 26.00000000
v 21.61290932 -10.15033531 26.00000000
v 21.35000038 -9.00000000 26.00000000
v 21.61290932 -7.84966421 26.00000000
v 22.34770775 -6.92853832 26.00000000
v 23.40965843 -6.41666317 26.00000000
v 24.59034157 -6.41666317 26.00000000
v 25.65229225 -6.92853832 26.00000000
v -21.61738968 -7.84065914 0.00000000
v -21.61422348 7.84707642 0.00000000
v -21.35000038 9.00000000 26.00000000
v -21.61290932 10.15033531 26.00000000
v -22.34723091 6.92870045 0.00000000
v -21.61290932 7.84966421 26.00000000
v -22.36191750 -6.91711760 0.00000000
v -23.40271187 6.41826057 0.00000000
v -22.34770775 6.92853832 26.00000000
v -23.42354584 -6.41351080 0.00000000
v -24.57645416 6.41351080 0.00000000
v -23.40965843 6.41666317 26.00000000
v -24.59728813 -6.41826057 0.00000000
v -25.63808250 6.91711760 0.00000000
v -24.59034157 6.41666317 26.00000000
v -25.65276909 -6.92870045 0.00000000
v -26.38261032 7.84065914 0.00000000
v -25.65229225 6.92853832 26.00000000
v -26.38709068 7.84966421 26.00000000
v -26.38577652 -7.84707642 0.00000000
v -26.64999962 9.00000000 26.00000000
v -26.38709068 10.15033531 26.00000000
v -25.65229225 11.07146168 26.00000000
v -24.59034157 11.58333683 26.00000000
v -23.40965843 11.58333683 26.00000000
v -22.34770775 11.07146168 26.00000000
v -21.35000038 -9.00000000 26.00000000
v -21.61290932 -7.84966421 26.00000000
v -21.61290932 -10.15033531 26.00000000
v -22.34770775 -11.07146168 26.00000000
v -23.40965843 -11.58333683 26.00000000
v -24.59034157 -11.58333683 26.00000000
v -25.65229225 -11.07146168 26.00000000
v -26.38709068 -10.15033531 26.00000000
v -26.64999962 -9.00000000 26.00000000
v -26.38709068 -7.84966421 26.00000000
v -25.65229225 -6.92853832 26.00000000
v -24.59034157 -6.41666317 26.00000000
v -23.40965843 -6.41666317 26.00000000
v -22.34770775 -6.92853832 26.00000000
v -0.00000000 -32.50000000 -5.50000000
v -8.42038631 -31.39011765 -5.50000000
v 8.42027187 -31.39014816 -5.50000000
v 16.25600433 -28.14205551 -5.50000000
v 22.98066711 -22.98081779 -5.50000000
v 28.14196205 -16.25616837 -5.50000000
v 31.39011765 -8.42038631 -5.50000000
v 32.50000000 0.00000000 -5.50000000
v -32.50000000 0.00000000 -5.50000000
v -31.18176842 9.16227245 -5.50000000
v -31.39014816 -8.42027187 -5.50000000
v -28.14205551 -16.25600433 -5.50000000
v -22.98081779 -22.98066711 -5.50000000
v -16.25616837 -28.14196205 -5.50000000
v 5.04809189 -35.13922882 -5.50000000
v -5.05308533 -35.13851166 -5.50000000
v 14.73401165 -32.29795074 -5.50000000
v 23.22396469 -26.84951591 -5.50000000
v 29.84512138 -19.22285461 -5.50000000
v 34.05250168 -10.03379345 -5.50000000
v 34.05911255 10.01132393 -5.50000000
v 32.16765213 4.63595772 -5.50000000
v -34.05911255 -10.01132393 -5.50000000
v -34.05250168 10.03379345 -5.50000000
v -29.84512138 19.22285461 -5.50000000
v -29.86586761 -19.19060898 -5.50000000
v -23.24375916 -26.83238220 -5.50000000
v -14.74868870 -32.29125214 -5.50000000
v 35.13641739 -5.06775904 -5.50000000
v 35.50000000 0.00000000 -5.50000000
v 35.50000000 -0.00000000 26.00000000
v 34.05911255 -10.01132393 26.00000000
v 31.17548370 9.18362999 -5.50000000
v 29.86586761 19.19060898 -5.50000000
v 34.05250168 10.03379345 26.00000000
v 35.13641739 5.06775904 26.00000000
v 27.32143402 17.60081673 -5.50000000
v 23.24375916 26.83238220 -5.50000000
v 29.84512138 19.22285461 26.00000000
v 21.26388741 24.57837105 -5.50000000
v 14.74868870 32.29125214 -5.50000000
v 23.22396469 26.84951591 26.00000000
v 13.49218464 29.56704140 -5.50000000
v 5.05308533 35.13851166 -5.50000000
v 14.73401165 32.29795074 26.00000000
v -4.63550329 32.16770172 -5.50000000
v -5.04809189 35.13922882 -5.50000000
v 5.04809189 35.13922882 26.00000000
v 4.61977434 32.16996384 -5.50000000
v -13.51063251 29.55861664 -5.50000000
v -14.73401165 32.29795074 -5.50000000
v -5.05308533 35.13851166 26.00000000
v -21.28387260 24.56106567 -5.50000000
v -23.22396469 26.84951591 -5.50000000
v -14.74868870 32.29125214 26.00000000
v -27.34168243 17.56934929 -5.50000000
v -23.24375916 26.83238220 26.00000000
v -29.86586761 19.19060898 26.00000000
v -35.13641739 5.06775904 -5.50000000
v -34.05911255 10.01132393 26.00000000
v -35.50000000 0.00000000 -5.50000000
v -35.50000000 0.00000000 26.00000000
v -34.05250168 -10.03379345 26.00000000
v -35.13641739 -5.06775904 26.00000000
v -29.84512138 -19.22285461 26.00000000
v -23.22396469 -26.84951591 26.00000000
v -14.73401165 -32.29795074 26.00000000
v -5.04809189 -35.13922882 26.00000000
v 5.05308533 -35.13851166 26.00000000
v 14.74868870 -32.29125214 26.00000000
v 23.24375916 -26.83238220 26.00000000
v 29.86586761 -19.19060898 26.00000000
v 30.00000000 9.00000000 26.00000000
v 29.40597534 11.60281849 26.00000000
v 22.66410637 14.84912682 26.00000000
v 27.74108315 13.69064426 26.00000000
v 25.33484840 14.84936523 26.00000000
v 18.00000000 -9.00000000 26.00000000
v 20.25821877 13.69008732 26.00000000
v 18.59379387 11.60233688 26.00000000
v 18.00000000 9.00000000 26.00000000
v -18.59402466 11.60281849 26.00000000
v -18.00000000 9.00000000 26.00000000
v -25.33589363 14.84912682 26.00000000
v -20.25891685 13.69064426 26.00000000
v -22.66515160 14.84936523 26.00000000
v -30.00000000 9.00000000 26.00000000
v -27.74178123 13.69008732 26.00000000
v -29.40620613 11.60233688 26.00000000
v -30.00000000 -9.00000000 26.00000000
v 30.00000000 -9.00000000 26.00000000
v 25.33589363 -14.84912682 26.00000000
v 29.40620613 -11.60233688 26.00000000
v 27.74178123 -13.69008732 26.00000000
v 18.59402466 -11.60281849 26.00000000
v 20.25891685 -13.69064426 26.00000000
v 22.66515160 -14.84936523 26.00000000
v -22.66410637 -14.84912682 26.00000000
v -18.00000000 -9.00000000 26.00000000
v -18.59379387 -11.60233688 26.00000000
v -20.25821877 -13.69008732 26.00000000
v -29.40597534 -11.60281849 26.00000000
v -27.74108315 -13.69064426 26.00000000
v -25.33484840 -14.84936523 26.00000000
v -18.00000000 9.00000000 28.00000000
v -18.59379387 6.39766359 26.00000000
v -18.59505272 6.39507961 42.00000000
v -19.75735855 13.24264050 28.00000000
v -18.45672226 11.29610062 28.00000000
v -21.70389938 14.54327679 28.00000000
v -24.00000000 15.00000000 28.00000000
v -25.34521484 14.84695435 42.00000000
v -24.00000000 15.00000000 40.00000000
v -27.75040054 13.68304253 42.00000000
v -29.40494728 11.60492039 42.00000000
v -29.40620613 -6.39766359 26.00000000
v -29.40597534 6.39718151 26.00000000
v -30.00000000 9.00000000 28.00000000
v -27.74178123 -4.30991316 26.00000000
v -27.74108315 4.30935574 26.00000000
v -28.24264145 4.75735950 28.00000000
v -29.54327774 6.70389938 28.00000000
v -25.33589363 -3.15087318 26.00000000
v -25.33484840 3.15063429 26.00000000
v -26.29610062 3.45672274 28.00000000
v -22.66515160 -3.15063429 26.00000000
v -22.66410637 3.15087318 26.00000000
v -24.00000000 3.00000000 28.00000000
v -20.25891685 -4.30935574 26.00000000
v -20.25821877 4.30991316 26.00000000
v -22.65478516 3.15304542 42.00000000
v -24.00000000 3.00000000 40.00000000
v -18.59402466 -6.39718151 26.00000000
v -20.24959946 4.31695747 42.00000000
v -18.00000000 -9.00000000 28.00000000
v -18.59505272 -11.60492039 42.00000000
v -19.75735855 -4.75735950 28.00000000
v -18.45672226 -6.70389938 28.00000000
v -21.70389938 -3.45672274 28.00000000
v -24.00000000 -3.00000000 28.00000000
v -25.34521484 -3.15304542 42.00000000
v -24.00000000 -3.00000000 40.00000000
v -27.75040054 -4.31695747 42.00000000
v -29.40494728 -6.39507961 42.00000000
v -30.00000000 -9.00000000 28.00000000
v -28.24264145 -13.24264050 28.00000000
v -29.54327774 -11.29610062 28.00000000
v -26.29610062 -14.54327679 28.00000000
v -24.00000000 -15.00000000 28.00000000
v -22.65478516 -14.84695435 42.00000000
v -24.00000000 -15.00000000 40.00000000
v -20.24959946 -13.68304253 42.00000000
v 30.00000000 9.00000000 28.00000000
v 29.40620613 6.39766359 26.00000000
v 29.40494728 6.39507961 42.00000000
v 28.24264145 13.24264050 28.00000000
v 29.54327774 11.29610062 28.00000000
v 26.29610062 14.54327679 28.00000000
v 24.00000000 15.00000000 28.00000000
v 22.65478516 14.84695435 42.00000000
v 24.00000000 15.00000000 40.00000000
v 20.24959946 13.68304253 42.00000000
v 18.59505272 11.60492039 42.00000000
v 18.59379387 -6.39766359 26.00000000
v 18.59402466 6.39718151 26.00000000
v 18.00000000 9.00000000 28.00000000
v 20.25821877 -4.30991316 26.00000000
v 20.25891685 4.30935574 26.00000000
v 19.75735855 4.75735950 28.00000000
v 18.45672226 6.70389938 28.00000000
v 22.66410637 -3.15087318 26.00000000
v 22.66515160 3.15063429 26.00000000
v 21.70389938 3.45672274 28.00000000
v 25.33484840 -3.15063429 26.00000000
v 25.33589363 3.15087318 26.00000000
v 24.00000000 3.00000000 28.00000000
v 27.74108315 -4.30935574 26.00000000
v 27.74178123 4.30991316 26.00000000
v 25.34521484 3.15304542 42.00000000
v 24.00000000 3.00000000 40.00000000
v 29.40597534 -6.39718151 26.00000000
v 27.75040054 4.31695747 42.00000000
v 30.00000000 -9.00000000 28.00000000
v 29.40494728 -11.60492039 42.00000000
v 28.24264145 -4.75735950 28.00000000
v 29.54327774 -6.70389938 28.00000000
v 26.29610062 -3.45672274 28.00000000
v 24.00000000 -3.00000000 28.00000000
v 22.65478516 -3.15304542 42.00000000
v 24.00000000 -3.00000000 40.00000000
v 20.24959946 -4.31695747 42.00000000
v 18.59505272 -6.39507961 42.00000000
v 18.00000000 -9.00000000 28.00000000
v 19.75735855 -13.24264050 28.00000000
v 18.45672226 -11.29610062 28.00000000
v 21.70389938 -14.54327679 28.00000000
v 24.00000000 -15.00000000 28.00000000
v 25.34521484 -14.84695435 42.00000000
v 24.00000000 -15.00000000 40.00000000
v 27.75040054 -13.68304253 42.00000000
v -22.19341850 9.87894535 55.00000000
v -25.80911636 9.87393188 55.00000000
v -26.00950050 9.00000000 55.00000000
v -26.50000000 9.00000000 54.50949860
v -21.99049950 9.00000000 55.00000000
v -25.80658150 8.12105465 55.00000000
v -26.25242233 7.91529083 54.50949860
v -25.25606918 10.56846619 55.00000000
v -26.25242233 10.08470917 54.50949860
v -22.75520897 10.57747078 55.00000000
v -24.45338821 10.95737171 55.00000000
v -25.55872536 10.95457840 54.50949860
v -23.56256676 10.96105480 55.00000000
v -24.55630302 11.43731976 54.50949860
v -23.44369698 11.43731976 54.50949860
v -22.44127464 10.95457840 54.50949860
v -21.74757767 10.08470917 54.50949860
v -22.19088364 8.12606812 55.00000000
v -21.50000000 9.00000000 54.50949860
v -22.74393082 7.43153381 55.00000000
v -21.74757767 7.91529083 54.50949860
v -25.24479103 7.42252970 55.00000000
v -23.54661179 7.04262877 55.00000000
v -22.44127464 7.04542112 54.50949860
v -24.43743324 7.03894472 55.00000000
v -23.44369698 6.56268024 54.50949860
v -24.55630302 6.56268024 54.50949860
v -25.55872536 7.04542112 54.50949860
v -26.50000000 9.00000000 42.00000000
v -26.25073242 7.91233635 42.00000000
v -26.24774551 10.09371758 42.00000000
v -25.54536247 10.96498299 42.00000000
v -24.54382515 11.44008446 42.00000000
v -23.43651962 11.43560314 42.00000000
v -22.44078445 10.95405579 42.00000000
v -21.74926758 10.08766365 42.00000000
v -21.50000000 9.00000000 42.00000000
v -21.75225449 7.90628195 42.00000000
v -22.45463753 7.03501701 42.00000000
v -23.45617485 6.55991602 42.00000000
v -24.56348038 6.56439686 42.00000000
v -25.55921555 7.04594374 42.00000000
v -18.00000000 9.00000000 42.00000000
v -18.60150719 11.61825848 42.00000000
v -29.39849281 6.38174105 42.00000000
v -30.00000000 9.00000000 42.00000000
v -18.00000000 9.00000000 40.00000000
v -18.45672226 11.29610062 40.00000000
v -27.73005867 4.30066442 42.00000000
v -25.32537460 3.14848399 42.00000000
v -26.29610062 3.45672274 40.00000000
v -28.24264145 4.75735950 40.00000000
v -29.54327774 6.70389938 40.00000000
v -30.00000000 9.00000000 40.00000000
v -20.26994133 13.69933510 42.00000000
v -22.67462540 14.85151577 42.00000000
v -21.70389938 14.54327679 40.00000000
v -19.75735855 13.24264050 40.00000000
v -22.19341850 -8.12105465 55.00000000
v -25.80911636 -8.12606812 55.00000000
v -26.00950050 -9.00000000 55.00000000
v -26.50000000 -9.00000000 54.50949860
v -21.99049950 -9.00000000 55.00000000
v -25.80658150 -9.87894535 55.00000000
v -26.25242233 -10.08470917 54.50949860
v -25.25606918 -7.43153381 55.00000000
v -26.25242233 -7.91529083 54.50949860
v -22.75520897 -7.42252970 55.00000000
v -24.45338821 -7.04262877 55.00000000
v -25.55872536 -7.04542112 54.50949860
v -23.56256676 -7.03894472 55.00000000
v -24.55630302 -6.56268024 54.50949860
v -23.44369698 -6.56268024 54.50949860
v -22.44127464 -7.04542112 54.50949860
v -21.74757767 -7.91529083 54.50949860
v -22.19088364 -9.87393188 55.00000000
v -21.50000000 -9.00000000 54.50949860
v -22.74393082 -10.56846619 55.00000000
v -21.74757767 -10.08470917 54.50949860
v -25.24479103 -10.57747078 55.00000000
v -23.54661179 -10.95737171 55.00000000
v -22.44127464 -10.95457840 54.50949860
v -24.43743324 -10.96105480 55.00000000
v -23.44369698 -11.43731976 54.50949860
v -24.55630302 -11.43731976 54.50949860
v -25.55872536 -10.95457840 54.50949860
v -26.50000000 -9.00000000 42.00000000
v -26.25073242 -10.08766365 42.00000000
v -26.24774551 -7.90628195 42.00000000
v -25.54536247 -7.03501701 42.00000000
v -24.54382515 -6.55991602 42.00000000
v -23.43651962 -6.56439686 42.00000000
v -22.44078445 -7.04594374 42.00000000
v -21.74926758 -7.91233635 42.00000000
v -21.50000000 -9.00000000 42.00000000
v -21.75225449 -10.09371758 42.00000000
v -22.45463753 -10.96498299 42.00000000
v -23.45617485 -11.44008446 42.00000000
v -24.56348038 -11.43560314 42.00000000
v -25.55921555 -10.95405579 42.00000000
v -18.00000000 -9.00000000 42.00000000
v -18.60150719 -6.38174105 42.00000000
v -29.39849281 -11.61825848 42.00000000
v -30.00000000 -9.00000000 42.00000000
v -18.00000000 -9.00000000 40.00000000
v -18.45672226 -6.70389938 40.00000000
v -27.73005867 -13.69933510 42.00000000
v -25.32537460 -14.85151577 42.00000000
v -26.29610062 -14.54327679 40.00000000
v -28.24264145 -13.24264050 40.00000000
v -29.54327774 -11.29610062 40.00000000
v -30.00000000 -9.00000000 40.00000000
v -20.26994133 -4.30066442 42.00000000
v -22.67462540 -3.14848399 42.00000000
v -21.70389938 -3.45672274 40.00000000
v -19.75735855 -4.75735950 40.00000000
v 25.80658150 9.87894535 55.00000000
v 22.19088364 9.87393188 55.00000000
v 21.99049950 9.00000000 55.00000000
v 21.50000000 9.00000000 54.50949860
v 26.00950050 9.00000000 55.00000000
v 22.19341850 8.12105465 55.00000000
v 21.74757767 7.91529083 54.50949860
v 22.74393082 10.56846619 55.00000000
v 21.74757767 10.08470917 54.50949860
v 25.24479103 10.57747078 55.00000000
v 23.54661179 10.95737171 55.00000000
v 22.44127464 10.95457840 54.50949860
v 24.43743324 10.96105480 55.00000000
v 23.44369698 11.43731976 54.50949860
v 24.55630302 11.43731976 54.50949860
v 25.55872536 10.95457840 54.50949860
v 26.25242233 10.08470917 54.50949860
v 25.80911636 8.12606812 55.00000000
v 26.50000000 9.00000000 54.50949860
v 25.25606918 7.43153381 55.00000000
v 26.25242233 7.91529083 54.50949860
v 22.75520897 7.42252970 55.00000000
v 24.45338821 7.04262877 55.00000000
v 25.55872536 7.04542112 54.50949860
v 23.56256676 7.03894472 55.00000000
v 24.55630302 6.56268024 54.50949860
v 23.44369698 6.56268024 54.50949860
v 22.44127464 7.04542112 54.50949860
v 21.50000000 9.00000000 42.00000000
v 21.74926758 7.91233635 42.00000000
v 21.75225449 10.09371758 42.00000000
v 22.45463753 10.96498299 42.00000000
v 23.45617485 11.44008446 42.00000000
v 24.56348038 11.43560314 42.00000000
v 25.55921555 10.95405579 42.00000000
v 26.25073242 10.08766365 42.00000000
v 26.50000000 9.00000000 42.00000000
v 26.24774551 7.90628195 42.00000000
v 25.54536247 7.03501701 42.00000000
v 24.54382515 6.55991602 42.00000000
v 23.43651962 6.56439686 42.00000000
v 22.44078445 7.04594374 42.00000000
v 30.00000000 9.00000000 42.00000000
v 29.39849281 11.61825848 42.00000000
v 18.60150719 6.38174105 42.00000000
v 18.00000000 9.00000000 42.00000000
v 30.00000000 9.00000000 40.00000000
v 29.54327774 11.29610062 40.00000000
v 20.26994133 4.30066442 42.00000000
v 22.67462540 3.14848399 42.00000000
v 21.70389938 3.45672274 40.00000000
v 19.75735855 4.75735950 40.00000000
v 18.45672226 6.70389938 40.00000000
v 18.00000000 9.00000000 40.00000000
v 27.73005867 13.69933510 42.00000000
v 25.32537460 14.85151577 42.00000000
v 26.29610062 14.54327679 40.00000000
v 28.24264145 13.24264050 40.00000000
v 25.80658150 -8.12105465 55.00000000
v 22.19088364 -8.12606812 55.00000000
v 21.99049950 -9.00000000 55.00000000
v 21.50000000 -9.00000000 54.50949860
v 26.00950050 -9.00000000 55.00000000
v 22.19341850 -9.87894535 55.00000000
v 21.74757767 -10.08470917 54.50949860
v 22.74393082 -7.43153381 55.00000000
v 21.74757767 -7.91529083 54.50949860
v 25.24479103 -7.42252970 55.00000000
v 23.54661179 -7.04262877 55.00000000
v 22.44127464 -7.04542112 54.50949860
v 24.43743324 -7.03894472 55.00000000
v 23.44369698 -6.56268024 54.50949860
v 24.55630302 -6.56268024 54.50949860
v 25.55872536 -7.04542112 54.50949860
v 26.25242233 -7.91529083 54.50949860
v 25.80911636 -9.87393188 55.00000000
v 26.50000000 -9.00000000 54.50949860
v 25.25606918 -10.56846619 55.00000000
v 26.25242233 -10.08470917 54.50949860
v 22.75520897 -10.57747078 55.00000000
v 24.45338821 -10.95737171 55.00000000
v 25.55872536 -10.95457840 54.50949860
v 23.56256676 -10.96105480 55.00000000
v 24.55630302 -11.43731976 54.50949860
v 23.44369698 -11.43731976 54.50949860
v 22.44127464 -10.95457840 54.50949860
v 21.50000000 -9.00000000 42.00000000
v 21.74926758 -10.08766365 42.00000000
v 21.75225449 -7.90628195 42.00000000
v 22.45463753 -7.03501701 42.00000000
v 23.45617485 -6.55991602 42.00000000
v 24.56348038 -6.56439686 42.00000000
v 25.55921555 -7.04594374 42.00000000
v 26.25073242 -7.91233635 42.00000000
v 26.50000000 -9.00000000 42.00000000
v 26.24774551 -10.09371758 42.00000000
v 25.54536247 -10.96498299 42.00000000
v 24.54382515 -11.44008446 42.00000000
v 23.43651962 -11.43560314 42.00000000
v 22.44078445 -10.95405579 42.00000000
v 30.00000000 -9.00000000 42.00000000
v 29.39849281 -6.38174105 42.00000000
v 18.60150719 -11.61825848 42.00000000
v 18.00000000 -9.00000000 42.00000000
v 30.00000000 -9.00000000 40.00000000
v 29.54327774 -6.70389938 40.00000000
v 20.26994133 -13.69933510 42.00000000
v 22.67462540 -14.85151577 42.00000000
v 21.70389938 -14.54327679 40.00000000
v 19.75735855 -13.24264050 40.00000000
v 18.45672226 -11.29610062 40.00000000
v 18.00000000 -9.00000000 40.00000000
v 27.73005867 -4.30066442 42.00000000
v 25.32537460 -3.14848399 42.00000000
v 26.29610062 -3.45672274 40.00000000
v 28.24264145 -4.75735950 40.00000000
f 1 2 3
f 4 3 2
f 5 1 3
f 5 3 4
f 1 6 2
f 7 2 6
f 8 4 2
f 7 8 2
f 9 10 6
f 11 6 10
f 1 9 6
f 11 7 6
f 12 13 10
f 11 10 13
f 9 14 10
f 15 10 14
f 16 10 15
f 17 12 10
f 16 17 10
f 18 19 13
f 20 13 19
f 21 18 13
f 22 21 13
f 12 22 13
f 20 11 13
f 23 24 19
f 25 19 24
f 26 23 19
f 18 26 19
f 25 20 19
f 27 28 24
f 29 24 28
f 23 27 24
f 29 25 24
f 30 31 28
f 32 28 31
f 27 30 28
f 32 29 28
f 33 34 31
f 35 31 34
f 30 33 31
f 35 32 31
f 36 37 34
f 38 34 37
f 33 36 34
f 38 35 34
f 39 40 37
f 41 37 40
f 36 39 37
f 38 37 41
f 42 43 40
f 44 40 43
f 39 42 40
f 44 41 40
f 45 46 43
f 47 43 46
f 42 45 43
f 47 44 43
f 48 49 46
f 50 46 49
f 45 48 46
f 50 47 46
f 51 52 49
f 53 49 52
f 48 54 49
f 55 49 54
f 56 49 55
f 56 51 49
f 53 50 49
f 57 58 52
f 59 52 58
f 60 57 52
f 61 60 52
f 51 61 52
f 59 53 52
f 62 63 58
f 64 58 63
f 65 62 58
f 66 65 58
f 57 66 58
f 64 59 58
f 67 68 63
f 69 63 68
f 62 67 63
f 69 64 63
f 70 71 68
f 72 68 71
f 67 70 68
f 72 69 68
f 73 74 71
f 75 71 74
f 70 73 71
f 75 72 71
f 76 74 73
f 76 75 74
f 77 73 70
f 78 76 73
f 78 73 77
f 79 70 67
f 77 70 79
f 80 81 67
f 79 67 81
f 82 67 83
f 62 83 67
f 82 80 67
f 84 85 81
f 86 81 85
f 87 84 81
f 88 87 81
f 80 88 81
f 79 81 86
f 55 54 85
f 89 85 54
f 90 55 85
f 84 90 85
f 86 85 89
f 91 54 48
f 89 54 91
f 92 48 45
f 91 48 92
f 93 45 42
f 92 45 93
f 94 42 39
f 93 42 94
f 95 39 36
f 94 39 95
f 96 36 33
f 95 36 96
f 97 33 30
f 96 33 97
f 98 30 27
f 97 30 98
f 99 100 27
f 101 27 100
f 99 27 102
f 23 102 27
f 98 27 101
f 103 104 100
f 105 100 104
f 106 103 100
f 107 106 100
f 99 107 100
f 101 100 105
f 15 14 104
f 108 104 14
f 109 15 104
f 110 109 104
f 103 110 104
f 105 104 108
f 111 14 9
f 108 14 111
f 112 9 1
f 111 9 112
f 112 1 5
f 113 114 83
f 115 83 114
f 116 82 83
f 113 83 62
f 116 83 115
f 113 117 114
f 118 114 117
f 118 115 114
f 119 120 117
f 121 117 120
f 113 119 117
f 121 118 117
f 122 123 120
f 124 120 123
f 119 122 120
f 124 121 120
f 125 126 123
f 127 123 126
f 122 125 123
f 127 124 123
f 128 129 126
f 130 126 129
f 125 128 126
f 130 127 126
f 56 55 129
f 131 129 55
f 132 56 129
f 128 132 129
f 131 130 129
f 133 55 90
f 131 55 133
f 134 90 84
f 134 133 90
f 135 84 87
f 135 134 84
f 136 87 88
f 136 135 87
f 137 88 80
f 137 136 88
f 138 80 82
f 138 137 80
f 116 138 82
f 139 62 65
f 140 113 62
f 140 62 139
f 141 65 66
f 141 139 65
f 142 66 57
f 142 141 66
f 143 57 60
f 143 142 57
f 144 60 61
f 144 143 60
f 145 61 51
f 145 144 61
f 146 51 56
f 146 145 51
f 147 56 132
f 146 56 147
f 148 132 128
f 148 147 132
f 149 128 125
f 149 148 128
f 150 125 122
f 150 149 125
f 151 122 119
f 151 150 122
f 152 119 113
f 152 151 119
f 140 152 113
f 153 154 102
f 155 102 154
f 156 99 102
f 153 102 23
f 156 102 155
f 153 157 154
f 158 154 157
f 158 155 154
f 159 160 157
f 161 157 160
f 153 159 157
f 161 158 157
f 162 163 160
f 164 160 163
f 159 162 160
f 164 161 160
f 165 166 163
f 167 163 166
f 162 165 163
f 167 164 163
f 168 169 166
f 170 166 169
f 165 168 166
f 170 167 166
f 16 15 169
f 171 169 15
f 172 16 169
f 168 172 169
f 171 170 169
f 173 15 109
f 171 15 173
f 174 109 110
f 174 173 109
f 175 110 103
f 175 174 110
f 176 103 106
f 176 175 103
f 177 106 107
f 177 176 106
f 178 107 99
f 178 177 107
f 156 178 99
f 179 23 26
f 180 153 23
f 180 23 179
f 181 26 18
f 181 179 26
f 182 18 21
f 182 181 18
f 183 21 22
f 183 182 21
f 184 22 12
f 184 183 22
f 185 12 17
f 185 184 12
f 186 17 16
f 186 185 17
f 187 16 172
f 186 16 187
f 188 172 168
f 188 187 172
f 189 168 165
f 189 188 168
f 190 165 162
f 190 189 165
f 191 162 159
f 191 190 162
f 192 159 153
f 192 191 159
f 180 192 153
f 193 41 44
f 194 38 41
f 194 41 193
f 195 44 47
f 195 193 44
f 195 47 50
f 196 50 53
f 196 195 50
f 197 53 59
f 197 196 53
f 197 59 64
f 198 64 69
f 198 197 64
f 198 69 72
f 199 72 75
f 199 198 72
f 199 75 76
f 200 199 76
f 78 200 76
f 201 4 8
f 202 4 201
f 5 4 202
f 203 8 7
f 203 201 8
f 203 7 11
f 204 11 20
f 204 203 11
f 205 20 25
f 205 204 20
f 205 25 29
f 206 29 32
f 206 205 29
f 206 32 35
f 194 35 38
f 194 206 35
f 207 193 195
f 208 194 193
f 207 208 193
f 209 195 196
f 209 207 195
f 209 196 197
f 210 197 198
f 210 209 197
f 211 198 199
f 211 210 198
f 212 199 200
f 212 211 199
f 212 200 213
f 214 213 200
f 78 214 200
f 215 201 203
f 216 217 201
f 202 201 217
f 215 216 201
f 218 203 204
f 218 215 203
f 219 204 205
f 219 218 204
f 219 205 206
f 220 206 194
f 220 219 206
f 208 220 194
f 221 213 222
f 223 222 213
f 224 221 222
f 224 222 223
f 225 226 213
f 227 213 226
f 221 212 213
f 214 225 213
f 228 223 213
f 227 228 213
f 229 230 226
f 231 226 230
f 225 229 226
f 231 227 226
f 232 233 230
f 234 230 233
f 229 232 230
f 234 231 230
f 235 236 233
f 237 233 236
f 232 235 233
f 237 234 233
f 238 239 236
f 240 236 239
f 241 238 236
f 235 241 236
f 240 237 236
f 242 243 239
f 244 239 243
f 238 242 239
f 244 240 239
f 245 246 243
f 247 243 246
f 242 245 243
f 247 244 243
f 248 217 246
f 249 246 217
f 245 248 246
f 249 247 246
f 250 217 216
f 248 202 217
f 250 249 217
f 215 251 216
f 252 216 251
f 252 250 216
f 215 253 251
f 252 251 253
f 254 253 215
f 252 253 254
f 255 215 218
f 256 254 215
f 256 215 255
f 257 218 219
f 255 218 257
f 258 219 220
f 257 219 258
f 259 220 208
f 258 220 259
f 260 208 207
f 259 208 260
f 261 207 209
f 260 207 261
f 262 209 210
f 261 209 262
f 263 210 211
f 262 210 263
f 264 211 212
f 263 211 264
f 224 212 221
f 264 212 224
f 112 202 248
f 112 5 202
f 108 248 245
f 111 112 248
f 108 111 248
f 101 245 242
f 105 108 245
f 101 105 245
f 97 242 238
f 98 101 242
f 97 98 242
f 95 238 241
f 96 97 238
f 95 96 238
f 94 241 235
f 94 95 241
f 92 235 232
f 93 94 235
f 92 93 235
f 89 232 229
f 91 92 232
f 89 91 232
f 79 229 225
f 86 89 229
f 79 86 229
f 78 225 214
f 77 79 225
f 78 77 225
f 256 252 254
f 224 223 228
f 224 228 227
f 265 227 231
f 265 224 227
f 266 231 234
f 266 265 231
f 267 234 237
f 268 266 234
f 269 268 234
f 267 269 234
f 261 237 240
f 261 262 237
f 270 237 262
f 271 267 237
f 272 271 237
f 273 272 237
f 270 273 237
f 260 240 244
f 260 261 240
f 259 244 247
f 259 260 244
f 274 247 249
f 275 259 247
f 274 275 247
f 276 249 250
f 277 274 249
f 278 277 249
f 276 278 249
f 279 250 252
f 280 276 250
f 281 280 250
f 279 281 250
f 256 255 252
f 282 252 255
f 282 279 252
f 283 264 224
f 283 224 265
f 284 263 264
f 285 264 283
f 286 284 264
f 285 286 264
f 287 262 263
f 288 287 263
f 289 288 263
f 284 289 263
f 287 270 262
f 290 258 259
f 291 259 275
f 292 259 291
f 293 290 259
f 292 293 259
f 294 257 258
f 295 294 258
f 296 295 258
f 290 296 258
f 282 255 257
f 294 282 257
f 297 275 274
f 291 275 298
f 299 298 275
f 297 299 275
f 300 274 277
f 301 274 300
f 297 274 301
f 302 277 278
f 300 277 302
f 303 278 276
f 302 278 303
f 304 276 280
f 305 276 304
f 303 276 305
f 306 280 281
f 304 280 306
f 307 281 279
f 306 281 307
f 308 309 279
f 310 279 309
f 282 308 279
f 310 307 279
f 311 312 309
f 313 309 312
f 308 311 309
f 314 310 309
f 313 314 309
f 315 316 312
f 317 312 316
f 311 315 312
f 317 313 312
f 318 319 316
f 320 316 319
f 315 318 316
f 320 317 316
f 321 322 319
f 323 319 322
f 318 321 319
f 324 319 323
f 324 320 319
f 325 298 322
f 326 322 298
f 321 325 322
f 323 322 326
f 325 291 298
f 326 298 299
f 327 291 325
f 328 292 291
f 327 328 291
f 329 325 321
f 330 325 329
f 327 325 330
f 331 321 318
f 329 321 331
f 332 318 315
f 331 318 332
f 333 315 311
f 334 315 333
f 332 315 334
f 335 311 308
f 333 311 335
f 336 308 282
f 335 308 336
f 337 282 294
f 337 336 282
f 338 294 295
f 339 337 294
f 338 339 294
f 340 295 296
f 340 338 295
f 341 296 290
f 341 340 296
f 342 290 293
f 343 290 342
f 343 341 290
f 344 293 292
f 342 293 344
f 344 292 328
f 345 265 266
f 283 265 346
f 347 346 265
f 345 347 265
f 348 266 268
f 349 266 348
f 345 266 349
f 350 268 269
f 348 268 350
f 351 269 267
f 350 269 351
f 352 267 271
f 353 267 352
f 351 267 353
f 354 271 272
f 352 271 354
f 355 272 273
f 354 272 355
f 356 357 273
f 358 273 357
f 270 356 273
f 358 355 273
f 359 360 357
f 361 357 360
f 356 359 357
f 362 358 357
f 361 362 357
f 363 364 360
f 365 360 364
f 359 363 360
f 365 361 360
f 366 367 364
f 368 364 367
f 363 366 364
f 368 365 364
f 369 370 367
f 371 367 370
f 366 369 367
f 372 367 371
f 372 368 367
f 373 346 370
f 374 370 346
f 369 373 370
f 371 370 374
f 373 283 346
f 374 346 347
f 375 283 373
f 376 285 283
f 375 376 283
f 377 373 369
f 378 373 377
f 375 373 378
f 379 369 366
f 377 369 379
f 380 366 363
f 379 366 380
f 381 363 359
f 382 363 381
f 380 363 382
f 383 359 356
f 381 359 383
f 384 356 270
f 383 356 384
f 385 270 287
f 385 384 270
f 386 287 288
f 387 385 287
f 386 387 287
f 388 288 289
f 388 386 288
f 389 289 284
f 389 388 289
f 390 284 286
f 391 284 390
f 391 389 284
f 392 286 285
f 390 286 392
f 392 285 376
f 118 133 115
f 134 115 133
f 131 133 118
f 116 115 134
f 131 118 121
f 130 121 124
f 131 121 130
f 130 124 127
f 116 134 135
f 138 135 136
f 116 135 138
f 138 136 137
f 141 147 139
f 148 139 147
f 146 147 141
f 140 139 148
f 146 141 142
f 145 142 143
f 146 142 145
f 145 143 144
f 140 148 149
f 152 149 150
f 140 149 152
f 152 150 151
f 158 173 155
f 174 155 173
f 171 173 158
f 156 155 174
f 171 158 161
f 170 161 164
f 171 161 170
f 170 164 167
f 156 174 175
f 178 175 176
f 156 175 178
f 178 176 177
f 181 187 179
f 188 179 187
f 186 187 181
f 180 179 188
f 186 181 182
f 185 182 183
f 186 182 185
f 185 183 184
f 180 188 189
f 192 189 190
f 180 189 192
f 192 190 191
f 393 394 395
f 396 395 394
f 397 393 395
f 398 397 395
f 399 398 395
f 399 395 396
f 393 400 394
f 401 394 400
f 401 396 394
f 402 403 400
f 404 400 403
f 393 402 400
f 404 401 400
f 402 405 403
f 406 403 405
f 406 404 403
f 407 405 402
f 407 406 405
f 408 402 393
f 408 407 402
f 409 393 397
f 409 408 393
f 398 410 397
f 411 397 410
f 411 409 397
f 398 412 410
f 413 410 412
f 413 411 410
f 414 415 412
f 416 412 415
f 398 414 412
f 416 413 412
f 414 417 415
f 418 415 417
f 418 416 415
f 419 417 414
f 419 418 417
f 420 414 398
f 420 419 414
f 399 420 398
f 421 396 401
f 422 399 396
f 421 422 396
f 423 401 404
f 423 421 401
f 424 404 406
f 424 423 404
f 425 406 407
f 425 424 406
f 426 407 408
f 426 425 407
f 427 408 409
f 427 426 408
f 428 409 411
f 428 427 409
f 429 411 413
f 428 411 429
f 430 413 416
f 430 429 413
f 431 416 418
f 431 430 416
f 432 418 419
f 432 431 418
f 433 419 420
f 433 432 419
f 434 420 399
f 434 433 420
f 422 434 399
f 435 429 430
f 436 428 429
f 436 429 435
f 435 430 431
f 435 431 432
f 437 432 433
f 299 435 432
f 437 299 432
f 437 433 434
f 437 434 422
f 437 422 421
f 438 421 423
f 438 437 421
f 438 423 424
f 438 424 425
f 436 425 426
f 307 438 425
f 436 307 425
f 436 426 427
f 436 427 428
f 439 435 299
f 440 436 435
f 440 435 439
f 437 326 299
f 297 439 299
f 441 323 326
f 437 441 326
f 441 442 323
f 324 323 442
f 443 442 441
f 443 324 442
f 444 441 437
f 444 443 441
f 445 437 438
f 445 444 437
f 446 438 307
f 446 445 438
f 436 306 307
f 446 307 310
f 447 304 306
f 436 447 306
f 447 448 304
f 305 304 448
f 449 448 447
f 305 448 449
f 450 447 436
f 449 447 450
f 450 436 440
f 446 310 314
f 445 314 313
f 446 314 445
f 444 313 317
f 445 313 444
f 443 317 320
f 444 317 443
f 443 320 324
f 301 440 439
f 297 301 439
f 300 450 440
f 301 300 440
f 302 449 450
f 300 302 450
f 303 305 449
f 302 303 449
f 451 452 453
f 454 453 452
f 455 451 453
f 456 455 453
f 457 456 453
f 457 453 454
f 451 458 452
f 459 452 458
f 459 454 452
f 460 461 458
f 462 458 461
f 451 460 458
f 462 459 458
f 460 463 461
f 464 461 463
f 464 462 461
f 465 463 460
f 465 464 463
f 466 460 451
f 466 465 460
f 467 451 455
f 467 466 451
f 456 468 455
f 469 455 468
f 469 467 455
f 456 470 468
f 471 468 470
f 471 469 468
f 472 473 470
f 474 470 473
f 456 472 470
f 474 471 470
f 472 475 473
f 476 473 475
f 476 474 473
f 477 475 472
f 477 476 475
f 478 472 456
f 478 477 472
f 457 478 456
f 479 454 459
f 480 457 454
f 479 480 454
f 481 459 462
f 481 479 459
f 482 462 464
f 482 481 462
f 483 464 465
f 483 482 464
f 484 465 466
f 484 483 465
f 485 466 467
f 485 484 466
f 486 467 469
f 486 485 467
f 487 469 471
f 486 469 487
f 488 471 474
f 488 487 471
f 489 474 476
f 489 488 474
f 490 476 477
f 490 489 476
f 491 477 478
f 491 490 477
f 492 478 457
f 492 491 478
f 480 492 457
f 493 487 488
f 494 486 487
f 494 487 493
f 493 488 489
f 493 489 490
f 495 490 491
f 328 493 490
f 495 328 490
f 495 491 492
f 495 492 480
f 495 480 479
f 496 479 481
f 496 495 479
f 496 481 482
f 496 482 483
f 494 483 484
f 336 496 483
f 494 336 483
f 494 484 485
f 494 485 486
f 497 493 328
f 498 494 493
f 498 493 497
f 495 344 328
f 327 497 328
f 499 342 344
f 495 499 344
f 499 500 342
f 343 342 500
f 501 500 499
f 501 343 500
f 502 499 495
f 502 501 499
f 503 495 496
f 503 502 495
f 504 496 336
f 504 503 496
f 494 335 336
f 504 336 337
f 505 333 335
f 494 505 335
f 505 506 333
f 334 333 506
f 507 506 505
f 334 506 507
f 508 505 494
f 507 505 508
f 508 494 498
f 504 337 339
f 503 339 338
f 504 339 503
f 502 338 340
f 503 338 502
f 501 340 341
f 502 340 501
f 501 341 343
f 330 498 497
f 327 330 497
f 329 508 498
f 330 329 498
f 331 507 508
f 329 331 508
f 332 334 507
f 331 332 507
f 509 510 511
f 512 511 510
f 513 509 511
f 514 513 511
f 515 514 511
f 515 511 512
f 509 516 510
f 517 510 516
f 517 512 510
f 518 519 516
f 520 516 519
f 509 518 516
f 520 517 516
f 518 521 519
f 522 519 521
f 522 520 519
f 523 521 518
f 523 522 521
f 524 518 509
f 524 523 518
f 525 509 513
f 525 524 509
f 514 526 513
f 527 513 526
f 527 525 513
f 514 528 526
f 529 526 528
f 529 527 526
f 530 531 528
f 532 528 531
f 514 530 528
f 532 529 528
f 530 533 531
f 534 531 533
f 534 532 531
f 535 533 530
f 535 534 533
f 536 530 514
f 536 535 530
f 515 536 514
f 537 512 517
f 538 515 512
f 537 538 512
f 539 517 520
f 539 537 517
f 540 520 522
f 540 539 520
f 541 522 523
f 541 540 522
f 542 523 524
f 542 541 523
f 543 524 525
f 543 542 524
f 544 525 527
f 544 543 525
f 545 527 529
f 544 527 545
f 546 529 532
f 546 545 529
f 547 532 534
f 547 546 532
f 548 534 535
f 548 547 534
f 549 535 536
f 549 548 535
f 550 536 515
f 550 549 536
f 538 550 515
f 551 545 546
f 552 544 545
f 552 545 551
f 551 546 547
f 551 547 548
f 553 548 549
f 347 551 548
f 553 347 548
f 553 549 550
f 553 550 538
f 553 538 537
f 554 537 539
f 554 553 537
f 554 539 540
f 554 540 541
f 552 541 542
f 355 554 541
f 552 355 541
f 552 542 543
f 552 543 544
f 555 551 347
f 556 552 551
f 556 551 555
f 553 374 347
f 345 555 347
f 557 371 374
f 553 557 374
f 557 558 371
f 372 371 558
f 559 558 557
f 559 372 558
f 560 557 553
f 560 559 557
f 561 553 554
f 561 560 553
f 562 554 355
f 562 561 554
f 552 354 355
f 562 355 358
f 563 352 354
f 552 563 354
f 563 564 352
f 353 352 564
f 565 564 563
f 353 564 565
f 566 563 552
f 565 563 566
f 566 552 556
f 562 358 362
f 561 362 361
f 562 362 561
f 560 361 365
f 561 361 560
f 559 365 368
f 560 365 559
f 559 368 372
f 349 556 555
f 345 349 555
f 348 566 556
f 349 348 556
f 350 565 566
f 348 350 566
f 351 353 565
f 350 351 565
f 567 568 569
f 570 569 568
f 571 567 569
f 572 571 569
f 573 572 569
f 573 569 570
f 567 574 568
f 575 568 574
f 575 570 568
f 576 577 574
f 578 574 577
f 567 576 574
f 578 575 574
f 576 579 577
f 580 577 579
f 580 578 577
f 581 579 576
f 581 580 579
f 582 576 567
f 582 581 576
f 583 567 571
f 583 582 567
f 572 584 571
f 585 571 584
f 585 583 571
f 572 586 584
f 587 584 586
f 587 585 584
f 588 589 586
f 590 586 589
f 572 588 586
f 590 587 586
f 588 591 589
f 592 589 591
f 592 590 589
f 593 591 588
f 593 592 591
f 594 588 572
f 594 593 588
f 573 594 572
f 595 570 575
f 596 573 570
f 595 596 570
f 597 575 578
f 597 595 575
f 598 578 580
f 598 597 578
f 599 580 581
f 599 598 580
f 600 581 582
f 600 599 581
f 601 582 583
f 601 600 582
f 602 583 585
f 602 601 583
f 603 585 587
f 602 585 603
f 604 587 590
f 604 603 587
f 605 590 592
f 605 604 590
f 606 592 593
f 606 605 592
f 607 593 594
f 607 606 593
f 608 594 573
f 608 607 594
f 596 608 573
f 609 603 604
f 610 602 603
f 610 603 609
f 609 604 605
f 609 605 606
f 611 606 607
f 376 609 606
f 611 376 606
f 611 607 608
f 611 608 596
f 611 596 595
f 612 595 597
f 612 611 595
f 612 597 598
f 612 598 599
f 610 599 600
f 384 612 599
f 610 384 599
f 610 600 601
f 610 601 602
f 613 609 376
f 614 610 609
f 614 609 613
f 611 392 376
f 375 613 376
f 615 390 392
f 611 615 392
f 615 616 390
f 391 390 616
f 617 616 615
f 617 391 616
f 618 615 611
f 618 617 615
f 619 611 612
f 619 618 611
f 620 612 384
f 620 619 612
f 610 383 384
f 620 384 385
f 621 381 383
f 610 621 383
f 621 622 381
f 382 381 622
f 623 622 621
f 382 622 623
f 624 621 610
f 623 621 624
f 624 610 614
f 620 385 387
f 619 387 386
f 620 387 619
f 618 386 388
f 619 386 618
f 617 388 389
f 618 388 617
f 617 389 391
f 378 614 613
f 375 378 613
f 377 624 614
f 378 377 614
f 379 623 624
f 377 379 624
f 380 382 623
f 379 380 623

