# https://github.com/mikedh/trimesh

o palm_pinch_l.stl
v -21.32032204 -1.14709270 -3.50000000
v -30.00000000 2.00000000 -3.50000000
v -12.25000000 2.00000000 -3.50000000
v -12.25000000 2.00000000 0.00000000
v -12.25000000 1.00000000 -3.50000000
v -14.31866264 -16.00000000 -3.50000000
v -14.00000000 -7.00000000 -3.50000000
v -1.32032156 5.85290718 -3.50000000
v -12.25000000 9.00000000 -3.50000000
v -12.25000000 9.00000000 0.00000000
v -14.59659672 -4.39171124 -3.50000000
v -18.64656830 -1.15465903 -3.50000000
v -16.24833488 -2.31760025 -3.50000000
v -25.39657402 -4.37761402 -3.50000000
v -30.00000000 -16.00000000 -3.50000000
v -30.00000000 2.00000000 0.00000000
v -23.72440338 -2.29589057 -3.50000000
v -26.00000000 -7.00000000 -3.50000000
v -25.50586891 -16.00000000 -3.50000000
v -25.50586891 -16.00000000 -9.85000038
v -25.84708786 -5.65406179 -3.50000000
v -30.00000000 -24.75000000 0.00000000
v -30.00000000 -24.75000000 -9.85000038
v -30.00000000 -16.00000000 -9.85000038
v -23.75166512 -11.68239975 -3.50000000
v -23.60000038 -24.00000000 -3.50000000
v -25.40340424 -9.60828876 -3.50000000
v -16.27559662 -11.70410919 -3.50000000
v -15.50000000 -24.00000000 -3.50000000
v -23.60000038 -24.00000000 -9.85000038
v -18.67967796 -12.85290718 -3.50000000
v -21.35343170 -12.84534073 -3.50000000
v -14.60342598 -9.62238598 -3.50000000
v -15.50000000 -24.00000000 -9.85000038
v -12.25000000 -16.00000000 -3.50000000
v -12.25000000 -16.00000000 -9.85000038
v -14.15291309 -8.34593868 -3.50000000
v -14.31866264 -16.00000000 -9.85000038
v -3.72440314 4.70410967 -3.50000000
v -7.75000000 1.00000000 -3.50000000
v -7.75000000 1.00000000 -9.85000038
v -12.25000000 1.00000000 -9.85000038
v -5.84708691 1.34593821 -3.50000000
v -7.75000000 -9.00000000 -3.50000000
v -5.39657402 2.62238598 -3.50000000
v -6.00000000 -0.00000000 -3.50000000
v -5.50586891 -9.00000000 -3.50000000
v -5.50586891 -9.00000000 -9.85000038
v -7.75000000 -9.00000000 -9.85000038
v -3.75166535 -4.68239975 -3.50000000
v -3.59999990 -17.00000000 -3.50000000
v -5.40340328 -2.60828876 -3.50000000
v 1.32032156 -5.85290718 -3.50000000
v 3.59999990 -17.00000000 -3.50000000
v -3.59999990 -17.00000000 -9.85000038
v -1.35343099 -5.84534073 -3.50000000
v 5.39657402 -2.62238598 -3.50000000
v 5.50586891 -9.00000000 -3.50000000
v 3.59999990 -17.00000000 -9.85000038
v 3.72440314 -4.70410967 -3.50000000
v 7.75000000 1.00000000 -3.50000000
v 7.75000000 -9.00000000 -3.50000000
v 7.75000000 -9.00000000 -9.85000038
v 6.00000000 -0.00000000 -3.50000000
v 5.84708691 -1.34593821 -3.50000000
v 5.50586891 -9.00000000 -9.85000038
v 12.25000000 2.00000000 -3.50000000
v 12.25000000 1.00000000 -3.50000000
v 12.25000000 1.00000000 -9.85000038
v 12.25000000 9.00000000 -3.50000000
v 7.75000000 1.00000000 -9.85000038
v 14.15291309 -5.65406179 -3.50000000
v 12.25000000 -16.00000000 -3.50000000
v 32.00000000 2.00000000 -3.50000000
v 18.67967796 -1.14709270 -3.50000000
v 14.60342598 -4.37761402 -3.50000000
v 16.27559662 -2.29589057 -3.50000000
v 14.00000000 -7.00000000 -3.50000000
v 14.31866264 -16.00000000 -3.50000000
v 14.31866264 -16.00000000 -9.85000038
v 12.25000000 -16.00000000 -9.85000038
v 14.59659672 -9.60828876 -3.50000000
v 15.50000000 -24.00000000 -3.50000000
v 21.32032204 -12.85290718 -3.50000000
v 23.60000038 -24.00000000 -3.50000000
v 15.50000000 -24.00000000 -9.85000038
v 18.64656830 -12.84534073 -3.50000000
v 16.24833488 -11.68239975 -3.50000000
v 25.39657402 -9.62238598 -3.50000000
v 25.50586891 -16.00000000 -3.50000000
v 23.60000038 -24.00000000 -9.85000038
v 23.72440338 -11.70410919 -3.50000000
v 28.00000000 -4.00000000 -3.50000000
v 28.00000000 -16.00000000 -3.50000000
v 28.00000000 -16.00000000 -9.85000038
v 26.00000000 -7.00000000 -3.50000000
v 25.84708786 -8.34593868 -3.50000000
v 25.50586891 -16.00000000 -9.85000038
v 32.00000000 -3.00000000 -3.50000000
v 32.00000000 -4.00000000 -3.50000000
v 32.00000000 -4.00000000 -9.85000038
v 25.40340424 -4.39171124 -3.50000000
v 28.00000000 -4.00000000 -9.85000038
v 34.15291214 -10.65406132 -3.50000000
v 32.00000000 -21.00000000 -3.50000000
v 50.00000000 -3.00000000 -3.50000000
v 38.67967987 -6.14709282 -3.50000000
v 34.60342407 -9.37761402 -3.50000000
v 36.27559662 -7.29589033 -3.50000000
v 34.00000000 -12.00000000 -3.50000000
v 33.52471161 -21.00000000 -3.50000000
v 33.52471161 -21.00000000 -9.85000038
v 32.00000000 -21.00000000 -9.85000038
v 34.00000000 -29.00000000 -3.50000000
v 41.32032013 -17.85290718 -3.50000000
v 43.59999847 -29.00000000 -3.50000000
v 34.00000000 -29.00000000 -9.85000038
v 38.64656830 -17.84534073 -3.50000000
v 36.24833298 -16.68239975 -3.50000000
v 34.59659576 -14.60828876 -3.50000000
v 45.39657593 -14.62238598 -3.50000000
v 45.50586700 -21.00000000 -3.50000000
v 43.59999847 -29.00000000 -9.85000038
v 43.72440338 -16.70410919 -3.50000000
v 50.00000000 -21.00000000 -3.50000000
v 50.00000000 -21.00000000 -9.85000038
v 46.00000000 -12.00000000 -3.50000000
v 45.84708786 -13.34593868 -3.50000000
v 45.50586700 -21.00000000 -9.85000038
v 50.00000000 -38.00000000 0.00000000
v 50.00000000 -3.00000000 0.00000000
v 45.40340424 -9.39171124 -3.50000000
v 41.35343170 -6.15465927 -3.50000000
v 43.75166702 -7.31760025 -3.50000000
v 32.00000000 -3.00000000 0.00000000
v 32.00000000 2.00000000 0.00000000
v 21.35343170 -1.15465903 -3.50000000
v 23.75166512 -2.31760025 -3.50000000
v 12.25000000 2.00000000 0.00000000
v 12.25000000 9.00000000 0.00000000
v 5.40340328 2.60828876 -3.50000000
v 1.35343099 5.84534073 -3.50000000
v 3.75166535 4.68239975 -3.50000000
v -14.00000000 -7.00000000 -1.00000000
v -14.15291309 -5.65406179 -1.00000000
v -14.59659672 -9.60828876 -1.00000000
v -16.24833488 -11.68239975 -1.00000000
v -18.64656830 -12.84534073 -1.00000000
v -21.32032204 -12.85290718 -1.00000000
v -23.72440338 -11.70410919 -1.00000000
v -25.39657402 -9.62238598 -1.00000000
v -25.84708786 -8.34593868 -1.00000000
v -26.00000000 -7.00000000 -1.00000000
v -25.40340424 -4.39171124 -1.00000000
v -23.75166512 -2.31760025 -1.00000000
v -21.35343170 -1.15465903 -1.00000000
v -18.67967796 -1.14709270 -1.00000000
v -16.27559662 -2.29589057 -1.00000000
v -14.60342598 -4.37761402 -1.00000000
v 26.00000000 -7.00000000 -1.00000000
v 25.84708786 -5.65406179 -1.00000000
v 25.40340424 -9.60828876 -1.00000000
v 23.75166512 -11.68239975 -1.00000000
v 21.35343170 -12.84534073 -1.00000000
v 18.67967796 -12.85290718 -1.00000000
v 16.27559662 -11.70410919 -1.00000000
v 14.60342598 -9.62238598 -1.00000000
v 14.15291309 -8.34593868 -1.00000000
v 14.00000000 -7.00000000 -1.00000000
v 14.59659672 -4.39171124 -1.00000000
v 16.24833488 -2.31760025 -1.00000000
v 18.64656830 -1.15465903 -1.00000000
v 21.32032204 -1.14709270 -1.00000000
v 23.72440338 -2.29589057 -1.00000000
v 25.39657402 -4.37761402 -1.00000000
v 46.00000000 -12.00000000 -1.00000000
v 45.84708786 -10.65406132 -1.00000000
v 45.40340424 -14.60828876 -1.00000000
v 43.75166702 -16.68239975 -1.00000000
v 41.35343170 -17.84534073 -1.00000000
v 38.67967987 -17.85290718 -1.00000000
v 36.27559662 -16.70410919 -1.00000000
v 34.60342407 -14.62238598 -1.00000000
v 34.15291214 -13.34593868 -1.00000000
v 34.00000000 -12.00000000 -1.00000000
v 34.59659576 -9.39171124 -1.00000000
v 36.24833298 -7.31760025 -1.00000000
v 38.64656830 -6.15465927 -1.00000000
v 41.32032013 -6.14709282 -1.00000000
v 43.72440338 -7.29589033 -1.00000000
v 45.39657593 -9.37761402 -1.00000000
v 6.00000000 -0.00000000 -1.00000000
v 5.84708691 1.34593821 -1.00000000
v 5.40340328 -2.60828876 -1.00000000
v 3.75166535 -4.68239975 -1.00000000
v 1.35343099 -5.84534073 -1.00000000
v -1.32032156 -5.85290718 -1.00000000
v -3.72440314 -4.70410967 -1.00000000
v -5.39657402 -2.62238598 -1.00000000
v -5.84708691 -1.34593821 -1.00000000
v -6.00000000 0.00000000 -1.00000000
v -5.40340328 2.60828876 -1.00000000
v -3.75166535 4.68239975 -1.00000000
v -1.35343099 5.84534073 -1.00000000
v 1.32032156 5.85290718 -1.00000000
v 3.72440314 4.70410967 -1.00000000
v 5.39657402 2.62238598 -1.00000000
v 40.00000000 -75.00000000 0.00000000
v -30.00000000 -68.50000000 0.00000000
v -30.00000000 -96.44999695 0.00000000
v -30.00000000 -85.19999695 -9.85000038
v 40.00000000 -96.44999695 0.00000000
v 40.00000000 -96.44999695 4.50000000
v -30.00000000 -96.44999695 4.50000000
v -30.00000000 -102.44999695 -30.90110016
v -30.00000000 -51.00000000 0.00000000
v -30.00000000 -68.50000000 8.14999962
v -30.00000000 -68.50000000 -9.85000038
v -50.00000000 -61.00000000 8.14999962
v -30.00000000 -42.25000000 0.00000000
v -30.00000000 -51.00000000 -9.85000038
v -50.00000000 -51.00000000 -9.85000038
v -30.00000000 -51.00000000 8.14999962
v -30.00000000 -42.25000000 8.14999962
v -30.00000000 -42.25000000 -9.85000038
v -40.71693420 -42.25000000 4.41873550
v -42.17680740 -42.25000000 5.58330488
v -50.00000000 -32.25000000 -9.85000038
v -30.00000000 -24.75000000 8.14999962
v 50.00000000 -38.00000000 -9.85000038
v 40.00000000 -85.19999695 -9.85000038
v 40.00000000 -75.00000000 -9.85000038
v 40.00000000 -102.44999695 -31.02945518
v 40.00000000 -102.44999695 4.50000000
v 38.00000000 -102.44999695 -14.35000038
v -30.00000000 -102.44999695 4.50000000
v 29.13774300 -102.44999695 -2.86509132
v 30.97735596 -102.44999695 -4.31903315
v 30.22252464 -102.44999695 -3.38048267
v 40.00000000 -85.19999695 -14.35000038
v 39.50000000 -85.19999695 -14.35000038
v -30.00000000 -85.19999695 -14.35000038
v -28.00000000 -85.19999695 -14.35000038
v -27.79999924 -85.19999695 -14.35000038
v 38.00000000 -85.19999695 -14.35000038
v -18.84081841 -85.19999695 -20.87004089
v -20.03774261 -85.19999695 -20.86509132
v -17.76232338 -85.19999695 -21.39258003
v -17.01923943 -85.19999695 -22.32576942
v -16.75000000 -85.19999695 -23.50000000
v 26.87747574 -85.19999695 -21.38048172
v 27.96225739 -85.19999695 -20.86509132
v 29.15918159 -85.19999695 -20.87004089
v 30.23767662 -85.19999695 -21.39258003
v 30.98076057 -85.19999695 -22.32576942
v 31.25000000 -85.19999695 -23.50000000
v 37.79999924 -85.19999695 -14.35000038
v 40.00000000 -75.00000000 -14.35000038
v 40.00000000 -75.00000000 -31.02945518
v 50.00000000 -38.00000000 -31.02945518
v 39.50000000 -71.10086823 -14.35000038
v 50.00000000 -38.00000000 -14.35000038
v 16.45265388 -16.04000092 -39.59998703
v 28.22632790 -16.04000092 -35.31472397
v 40.00000000 -16.04000092 -31.02945518
v 38.00000000 -102.44999695 -29.62903976
v 16.45265388 -102.44999695 -39.59998703
v 30.98209381 -96.44999695 -4.32835484
v 30.98209381 -96.44999695 -6.67164516
v 31.25000000 -96.44999695 -5.50000000
v 31.25000000 -102.44999695 -5.50000000
v 30.23407745 -96.44999695 -3.38970590
v 30.23407745 -96.44999695 -7.61029387
v 30.98076057 -102.44999695 -6.67423105
v 29.14984512 -96.44999695 -2.86776090
v 29.14984512 -96.44999695 -8.13223934
v 29.15918159 -102.44999695 -8.12995911
v 30.23767662 -102.44999695 -7.60741901
v 27.95015526 -96.44999695 -2.86776090
v 27.95015526 -96.44999695 -8.13223934
v 27.96225739 -102.44999695 -8.13490868
v 26.86592102 -96.44999695 -3.38970590
v 26.86592102 -96.44999695 -7.61029387
v 26.87747574 -102.44999695 -7.61951733
v 26.11790657 -96.44999695 -4.32835484
v 26.11790657 -96.44999695 -6.67164516
v 26.12264442 -102.44999695 -6.68096685
v 25.85000038 -96.44999695 -5.50000000
v 25.85000038 -102.44999695 -5.50000000
v 26.11923981 -102.44999695 -4.32576895
v 27.94081879 -102.44999695 -2.87004089
v 26.86232376 -102.44999695 -3.39258075
v -17.01790619 -96.44999695 -4.32835484
v -17.01790619 -96.44999695 -6.67164516
v -16.75000000 -96.44999695 -5.50000000
v -16.75000000 -102.44999695 -5.50000000
v -17.02264404 -102.44999695 -4.31903315
v -17.76592255 -96.44999695 -3.38970590
v -17.76592255 -96.44999695 -7.61029387
v -17.01923943 -102.44999695 -6.67423105
v -18.85015488 -96.44999695 -2.86776090
v -18.85015488 -96.44999695 -8.13223934
v -18.84081841 -102.44999695 -8.12995911
v -17.76232338 -102.44999695 -7.60741901
v -20.04984474 -96.44999695 -2.86776090
v -20.04984474 -96.44999695 -8.13223934
v -20.03774261 -102.44999695 -8.13490868
v -21.13407898 -96.44999695 -3.38970590
v -21.13407898 -96.44999695 -7.61029387
v -21.12252426 -102.44999695 -7.61951733
v -21.88209343 -96.44999695 -4.32835484
v -21.88209343 -96.44999695 -6.67164516
v -21.87735558 -102.44999695 -6.68096685
v -22.14999962 -96.44999695 -5.50000000
v -22.14999962 -102.44999695 -5.50000000
v -21.88076019 -102.44999695 -4.32576895
v -20.05918121 -102.44999695 -2.87004089
v -21.13767624 -102.44999695 -3.39258075
v -18.86225700 -102.44999695 -2.86509132
v -17.77747536 -102.44999695 -3.38048267
v -50.00000000 -42.25000000 -9.85000038
v -50.00000000 -61.00000000 -9.85000038
v -45.82727432 -42.25000000 -1.98122931
v -42.17680740 -42.25000000 -1.98330450
v -44.00000000 -42.25000000 -2.40000010
v -40.71693420 -42.25000000 -0.81873459
v -39.90565872 -42.25000000 0.86434293
v -39.90565872 -42.25000000 2.73565769
v -28.00000000 -102.44999695 -28.90110016
v -28.00000000 -102.44999695 -14.35000038
v -27.79999924 -102.44999695 -14.35000038
v -22.14999962 -102.44999695 -23.50000000
v 25.85000038 -102.44999695 -23.50000000
v -30.00000000 -77.55000305 -30.90110016
v -21.30111122 -102.44999695 -39.59998703
v -30.00000000 -67.75000000 -19.35000038
v -30.00000000 -55.75000000 -30.90110016
v -19.56965256 -77.55000305 -30.90110016
v -30.00000000 -67.75000000 -14.35000038
v -21.30111122 -77.55000305 -39.59998703
v -50.00000000 -60.25000000 -19.35000038
v -30.00000000 -36.00000000 -30.90110016
v -50.00000000 -31.50000000 -19.35000038
v -50.00000000 -60.25000000 -14.35000038
v -28.00000000 -66.36399841 -14.35000038
v -42.00000000 -61.11399841 -14.35000038
v -50.00000000 -42.25000000 8.14999962
v -50.00000000 -32.25000000 8.14999962
v -48.09181213 -42.25000000 0.85335451
v -47.28281403 -42.25000000 -0.81948221
v -50.00000000 -51.00000000 8.14999962
v -48.09181213 -51.00000000 2.74664545
v -40.71693420 -51.00000000 -0.81873560
v -42.17680740 -51.00000000 -1.98330498
v -44.00000000 -51.00000000 -2.40000010
v -45.83744431 -51.00000000 -1.97621179
v -47.30117035 -51.00000000 -0.79620773
v -48.09934235 -51.00000000 0.88637394
v -44.00000000 -42.25000000 6.00000000
v -45.83744431 -42.25000000 5.57621193
v -47.30117035 -42.25000000 4.39620781
v -48.09934235 -42.25000000 2.71362615
v -44.00000000 -41.75000000 -2.40000010
v -45.83744431 -41.75000000 -1.97621179
v -42.17680740 -41.75000000 -1.98330498
v -40.71693420 -41.75000000 -0.81873560
v -39.90565872 -41.75000000 0.86434233
v -39.90565872 -41.75000000 2.73565722
v -40.71693420 -41.75000000 4.41873455
v -42.17680740 -41.75000000 5.58330441
v -44.00000000 -41.75000000 6.00000000
v -47.28281403 -41.75000000 4.41948223
v -45.82727432 -41.75000000 5.58122921
v -48.09181213 -41.75000000 2.74664545
v -48.09934235 -41.75000000 0.88637394
v -47.30117035 -41.75000000 -0.79620773
v -42.12480164 -41.75000000 -0.54157692
v -43.32313156 -41.75000000 -1.12217677
v -41.00000000 -41.75000000 1.79999995
v -41.29915619 -41.75000000 0.49529901
v -41.30293655 -41.75000000 3.11218572
v -43.34695053 -41.75000000 4.72767639
v -42.14163971 -41.75000000 4.15501928
v -44.67686844 -41.75000000 4.72217655
v -45.87519836 -41.75000000 4.14157677
v -47.00000000 -41.75000000 1.79999995
v -46.70084381 -41.75000000 3.10470104
v -46.69706345 -41.75000000 0.48781437
v -44.65304947 -41.75000000 -1.12767637
v -45.85836029 -41.75000000 -0.55501938
v -41.00000000 -39.40000153 1.79999995
v -41.30293655 -39.40000153 0.48781437
v -42.12480164 -39.40000153 4.14157677
v -41.29915619 -39.40000153 3.10470104
v -43.32313156 -39.40000153 4.72217655
v -44.65304947 -39.40000153 4.72767639
v -45.85836029 -39.40000153 4.15501928
v -46.69706345 -39.40000153 3.11218572
v -47.00000000 -39.40000153 1.79999995
v -45.87519836 -39.40000153 -0.54157692
v -46.70084381 -39.40000153 0.49529901
v -44.67686844 -39.40000153 -1.12217677
v -43.34695053 -39.40000153 -1.12767637
v -42.14163971 -39.40000153 -0.55501938
v -44.00000000 -51.00000000 6.00000000
v -45.82727432 -51.00000000 5.58122921
v -47.28281403 -51.00000000 4.41948223
v -42.17680740 -51.00000000 5.58330441
v -40.71693420 -51.00000000 4.41873455
v -39.90565872 -51.00000000 2.73565722
v -39.90565872 -51.00000000 0.86434233
v -44.00000000 -51.50000000 6.00000000
v -45.83744431 -51.50000000 5.57621193
v -42.17680740 -51.50000000 5.58330488
v -40.71693420 -51.50000000 4.41873550
v -39.90565872 -51.50000000 2.73565769
v -39.90565872 -51.50000000 0.86434293
v -40.71693420 -51.50000000 -0.81873459
v -42.17680740 -51.50000000 -1.98330450
v -44.00000000 -51.50000000 -2.40000010
v -47.28281403 -51.50000000 -0.81948221
v -45.82727432 -51.50000000 -1.98122931
v -48.09181213 -51.50000000 0.85335451
v -48.09934235 -51.50000000 2.71362615
v -47.30117035 -51.50000000 4.39620781
v -42.12480164 -51.50000000 4.14157677
v -43.32313156 -51.50000000 4.72217655
v -41.00000000 -51.50000000 1.79999995
v -41.29915619 -51.50000000 3.10470104
v -41.30293655 -51.50000000 0.48781437
v -43.34695053 -51.50000000 -1.12767637
v -42.14163971 -51.50000000 -0.55501938
v -44.67686844 -51.50000000 -1.12217677
v -45.87519836 -51.50000000 -0.54157692
v -47.00000000 -51.50000000 1.79999995
v -46.70084381 -51.50000000 0.49529901
v -46.69706345 -51.50000000 3.11218572
v -44.65304947 -51.50000000 4.72767639
v -45.85836029 -51.50000000 4.15501928
v -47.00000000 -53.84999847 1.79999995
v -46.69706345 -53.84999847 0.48781437
v -45.87519836 -53.84999847 4.14157677
v -46.70084381 -53.84999847 3.10470104
v -44.67686844 -53.84999847 4.72217655
v -43.34695053 -53.84999847 4.72767639
v -42.14163971 -53.84999847 4.15501928
v -41.30293655 -53.84999847 3.11218572
v -41.00000000 -53.84999847 1.79999995
v -42.12480164 -53.84999847 -0.54157692
v -41.29915619 -53.84999847 0.49529901
v -43.32313156 -53.84999847 -1.12217677
v -44.65304947 -53.84999847 -1.12767637
v -45.85836029 -53.84999847 -0.55501938
v 43.86161423 -16.04000092 -29.01550293
v 48.00000000 -16.04000092 -29.01322937
v 39.75613403 -9.62652493 -28.30976105
v 40.00000000 -16.04000092 -28.90110016
v 39.68058777 -16.04000092 -29.01735687
v 39.65101242 -16.13765144 -29.02812004
v 48.00000000 -16.04000092 -28.90110016
v 48.00000000 -2.90307164 -26.64998817
v 48.00000000 -9.47151947 -28.17461014
v 42.00000000 -29.00000000 -28.90110016
v 48.00000000 -29.00000000 -28.90110016
v 40.00000000 -69.25086975 -28.90110016
v 43.92764282 -2.90307164 -27.45869446
v 39.85481644 -2.90307164 -27.56535530
v -28.00000000 -2.90307164 -26.64998817
v 27.46455193 -2.90307164 -29.55008316
v 48.00000381 -2.90307164 -27.33563042
v 28.20762062 -16.32161713 -33.19317627
v -21.56013107 -2.90307164 -27.86826324
v -28.00000000 -2.90307164 -27.74346924
v -28.00000000 -24.00000000 -26.64998817
v -28.00000000 -9.51375103 -28.32575798
v -12.25000000 12.00000000 -26.64998817
v 20.93985367 -2.90307164 -30.88974953
v -14.90039825 -2.90307164 -27.97685623
v -30.00000000 6.00000000 -26.64998817
v 12.25000000 12.00000000 -26.64998817
v 50.00000000 -0.00000000 -26.64998817
v 50.00000000 -29.00000000 -26.64998817
v 48.00000000 -29.00000000 -26.64998817
v 14.15424633 -2.90307164 -32.44684601
v 22.23808670 -16.38317680 -35.36590958
v -12.31973076 -2.90307164 -32.44684601
v 16.07276917 -16.40859795 -37.59998703
v 16.10000038 -16.43128967 -37.59998703
v -16.68749237 -9.73147869 -28.45610428
v -13.39264584 -16.40859795 -37.59998703
v -13.41714191 -16.29739761 -37.55755997
v -28.00000000 -16.12611198 -28.90110016
v -28.00000000 -24.00000000 -28.90110016
v -23.00000000 -24.00000000 -28.90110016
v -18.41104126 -16.20291138 -28.90110016
v -18.41051865 -16.29709816 -28.90862083
v -30.00000000 -24.00000000 -26.64998817
v -30.00000000 -24.00000000 -19.35000038
v -23.20747185 -16.11787224 -28.90110016
v -30.00000000 -24.00000000 -14.35000038
v -23.00000000 -24.00000000 -14.35000038
v -50.00000000 -31.50000000 -14.35000038
v -23.00000000 -31.00000000 -28.90110016
v -30.00000000 -26.13600159 -14.35000038
v -30.00000000 -31.00000000 -14.35000038
v -23.00000000 -31.00000000 -14.35000038
v -30.00000000 -16.04000092 -30.90110016
v -28.00000000 -66.36399841 -17.99799728
v -28.00000000 -80.55000305 -28.90110016
v -42.00000000 -30.63600159 -14.35000038
v -30.00000000 -31.00000000 -23.21977425
v -28.00000000 -31.00000000 -28.90110016
v -28.00000000 -31.00000000 -23.46684456
v -29.31554031 -31.00000000 -23.46684456
v -30.00000000 -26.13600159 -18.53772926
v -42.00000000 -30.63600159 -17.66083336
v -41.49381256 -30.44618225 -18.53772926
v -42.00000000 -61.11399841 -17.66083336
v -29.47748756 -65.80994415 -18.53772926
v -41.49381256 -61.30381775 -18.53772926
v -19.30111122 -102.44999695 -37.59998703
v -19.30111122 -80.55000305 -37.59998703
v 16.10000038 -102.44999695 -37.59998703
v -13.39264584 -78.05000305 -37.59998703
v 38.00000000 -85.19999695 -29.62903976
v 39.00000000 -72.95086670 -29.26506996
v 37.79999924 -102.44999695 -14.35000038
v 37.79999924 -102.44999695 -28.83787537
v 37.79999924 -85.19999695 -28.83787537
v 27.96225739 -102.44999695 -26.13490868
v 15.10000038 -102.44999695 -37.09999847
v 31.25000000 -102.44999695 -23.50000000
v 30.98076057 -102.44999695 -24.67423058
v 29.15918159 -102.44999695 -26.12995911
v 30.23767662 -102.44999695 -25.60741997
v -18.84081841 -102.44999695 -26.12995911
v -19.04999924 -102.44999695 -37.09999847
v 15.10000038 -85.19999695 -37.09999847
v -17.01923943 -102.44999695 -24.67423058
v -16.75000000 -102.44999695 -23.50000000
v -17.76232338 -102.44999695 -25.60741997
v 26.12264442 -102.44999695 -24.68096733
v 26.87747574 -102.44999695 -25.61951828
v -27.79999924 -102.44999695 -28.35000038
v -27.79999924 -85.19999695 -28.35000038
v -21.87735558 -102.44999695 -24.68096733
v -21.12252426 -102.44999695 -25.61951828
v -20.03774261 -102.44999695 -26.13490868
v -19.04999924 -85.19999695 -37.09999847
v -17.02264404 -102.44999695 -22.31903267
v -17.02264404 -85.19999695 -24.68096733
v -17.77747536 -102.44999695 -21.38048172
v -18.86225700 -102.44999695 -20.86509132
v -20.05918121 -102.44999695 -20.87004089
v -21.13767624 -102.44999695 -21.39258003
v -21.12252426 -85.19999695 -21.38048172
v -21.88076019 -102.44999695 -22.32576942
v -21.87735558 -85.19999695 -22.31903267
v -22.14999962 -85.19999695 -23.50000000
v -21.13767624 -85.19999695 -25.60741997
v -21.88076019 -85.19999695 -24.67423058
v -20.05918121 -85.19999695 -26.12995911
v -18.86225700 -85.19999695 -26.13490868
v -17.77747536 -85.19999695 -25.61951828
v 26.11923981 -102.44999695 -22.32576942
v 26.86232376 -102.44999695 -21.39258003
v 27.94081879 -102.44999695 -20.87004089
v 29.13774300 -102.44999695 -20.86509132
v 30.22252464 -102.44999695 -21.38048172
v 30.97735596 -102.44999695 -22.31903267
v 30.97735596 -85.19999695 -24.68096733
v 26.12264442 -85.19999695 -22.31903267
v 25.85000038 -85.19999695 -23.50000000
v 26.86232376 -85.19999695 -25.60741997
v 26.11923981 -85.19999695 -24.67423058
v 27.94081879 -85.19999695 -26.12995911
v 29.13774300 -85.19999695 -26.13490868
v 30.22252464 -85.19999695 -25.61951828
v -14.54734612 -16.04000092 -39.59998703
v -14.54734612 -77.55000305 -39.59998703
v 40.00000000 -6.43059587 -29.96527863
v 50.00000000 -16.04000092 -31.02945518
v 22.90088463 -3.49019861 -32.82212067
v 31.45044327 -4.96039724 -31.39369965
v 14.35132694 -2.01999998 -34.25054550
v -19.56965256 -16.04000092 -30.90110016
v -12.25000000 12.00000000 -28.90110016
v 12.25000000 12.00000000 -28.90110016
v -30.00000000 6.00000000 -28.90110016
v 50.00000000 -0.00000000 -28.90110016
v 40.00000000 3.17880797 -28.90110016
v 26.12500000 7.58940411 -28.90110016
v 42.00000000 -29.00000000 -14.35000038
v 50.00000000 -29.00000000 -14.35000038
v 42.00000000 -35.00000000 -14.35000038
v 48.00000000 -35.00000000 -14.35000038
v 42.00000000 -35.00000000 -28.90110016
v 48.00000000 -39.65087128 -28.90110016
v 48.00000000 -35.00000000 -28.90110016
v 48.00000000 -39.65087128 -14.35000038
v 39.00000000 -72.95086670 -24.35000038
v 39.00000000 -85.19999695 -29.26506996
v 39.00000000 -85.19999695 -24.35000038
v -18.41495132 -78.05000305 -28.90110016
v -29.13699722 -55.17151260 -28.90110016
v -28.00000000 -55.17151260 -28.90110016
v -19.30111122 -78.05000305 -28.90110016
v -29.46393776 -55.04890823 -28.90110016
v -18.41495132 -16.10963058 -28.90110016
v -19.30111122 -80.55000305 -28.90110016
v -38.53620529 -57.09016800 -23.66136551
v -28.00000000 -36.57848740 -28.90110016
v -29.46393776 -36.70109177 -28.90110016
v -29.13699722 -36.57848740 -28.90110016
v -38.53620529 -34.65983200 -23.66136551
v -19.30111122 -78.05000305 -37.59998703
f 1 2 3
f 4 3 2
f 5 6 3
f 7 3 6
f 8 5 3
f 8 3 9
f 10 9 3
f 11 3 7
f 12 1 3
f 13 12 3
f 11 13 3
f 10 3 4
f 14 15 2
f 16 2 15
f 17 14 2
f 1 17 2
f 16 4 2
f 18 19 15
f 20 15 19
f 21 18 15
f 14 21 15
f 22 16 15
f 23 22 15
f 24 23 15
f 20 24 15
f 25 26 19
f 20 19 26
f 27 25 19
f 18 27 19
f 28 29 26
f 30 26 29
f 31 28 26
f 32 31 26
f 25 32 26
f 30 20 26
f 33 6 29
f 34 29 6
f 28 33 29
f 34 30 29
f 5 35 6
f 36 6 35
f 37 7 6
f 33 37 6
f 38 34 6
f 36 38 6
f 36 35 5
f 39 40 5
f 41 5 40
f 8 39 5
f 42 36 5
f 41 42 5
f 43 44 40
f 41 40 44
f 45 43 40
f 39 45 40
f 46 47 44
f 48 44 47
f 43 46 44
f 49 41 44
f 48 49 44
f 50 51 47
f 48 47 51
f 52 50 47
f 46 52 47
f 53 54 51
f 55 51 54
f 56 53 51
f 50 56 51
f 55 48 51
f 57 58 54
f 59 54 58
f 60 57 54
f 53 60 54
f 59 55 54
f 61 62 58
f 63 58 62
f 64 61 58
f 65 64 58
f 57 65 58
f 66 59 58
f 63 66 58
f 63 62 61
f 67 68 61
f 69 61 68
f 70 67 61
f 64 70 61
f 71 63 61
f 69 71 61
f 72 73 68
f 69 68 73
f 67 74 68
f 75 68 74
f 76 72 68
f 77 76 68
f 75 77 68
f 78 79 73
f 80 73 79
f 72 78 73
f 81 69 73
f 80 81 73
f 82 83 79
f 80 79 83
f 78 82 79
f 84 85 83
f 86 83 85
f 87 84 83
f 88 87 83
f 82 88 83
f 86 80 83
f 89 90 85
f 91 85 90
f 92 89 85
f 84 92 85
f 91 86 85
f 93 94 90
f 95 90 94
f 96 93 90
f 97 96 90
f 89 97 90
f 98 91 90
f 95 98 90
f 95 94 93
f 99 100 93
f 101 93 100
f 74 99 93
f 102 74 93
f 102 93 96
f 103 95 93
f 101 103 93
f 104 105 100
f 101 100 105
f 99 106 100
f 107 100 106
f 108 104 100
f 109 108 100
f 107 109 100
f 110 111 105
f 112 105 111
f 104 110 105
f 113 101 105
f 112 113 105
f 110 114 111
f 112 111 114
f 115 116 114
f 117 114 116
f 118 115 114
f 119 118 114
f 120 119 114
f 110 120 114
f 117 112 114
f 121 122 116
f 123 116 122
f 124 121 116
f 115 124 116
f 123 117 116
f 106 125 122
f 126 122 125
f 127 106 122
f 128 127 122
f 121 128 122
f 129 123 122
f 126 129 122
f 130 125 106
f 126 125 130
f 131 106 99
f 132 106 127
f 133 107 106
f 134 133 106
f 132 134 106
f 130 106 131
f 135 99 74
f 131 99 135
f 136 74 67
f 137 75 74
f 138 137 74
f 102 138 74
f 135 74 136
f 139 67 70
f 136 67 139
f 8 9 70
f 140 70 9
f 141 70 64
f 142 8 70
f 143 142 70
f 141 143 70
f 139 70 140
f 140 9 10
f 144 7 37
f 145 11 7
f 144 145 7
f 146 37 33
f 146 144 37
f 147 33 28
f 147 146 33
f 148 28 31
f 148 147 28
f 149 31 32
f 149 148 31
f 150 32 25
f 150 149 32
f 151 25 27
f 151 150 25
f 152 27 18
f 152 151 27
f 153 18 21
f 152 18 153
f 154 21 14
f 154 153 21
f 155 14 17
f 155 154 14
f 156 17 1
f 156 155 17
f 157 1 12
f 157 156 1
f 158 12 13
f 158 157 12
f 159 13 11
f 159 158 13
f 145 159 11
f 160 96 97
f 161 102 96
f 160 161 96
f 162 97 89
f 162 160 97
f 163 89 92
f 163 162 89
f 164 92 84
f 164 163 92
f 165 84 87
f 165 164 84
f 166 87 88
f 166 165 87
f 167 88 82
f 167 166 88
f 168 82 78
f 168 167 82
f 169 78 72
f 168 78 169
f 170 72 76
f 170 169 72
f 171 76 77
f 171 170 76
f 172 77 75
f 172 171 77
f 173 75 137
f 173 172 75
f 174 137 138
f 174 173 137
f 175 138 102
f 175 174 138
f 161 175 102
f 176 127 128
f 177 132 127
f 176 177 127
f 178 128 121
f 178 176 128
f 179 121 124
f 179 178 121
f 180 124 115
f 180 179 124
f 181 115 118
f 181 180 115
f 182 118 119
f 182 181 118
f 183 119 120
f 183 182 119
f 184 120 110
f 184 183 120
f 185 110 104
f 184 110 185
f 186 104 108
f 186 185 104
f 187 108 109
f 187 186 108
f 188 109 107
f 188 187 109
f 189 107 133
f 189 188 107
f 190 133 134
f 190 189 133
f 191 134 132
f 191 190 134
f 177 191 132
f 192 64 65
f 193 141 64
f 192 193 64
f 194 65 57
f 194 192 65
f 195 57 60
f 195 194 57
f 196 60 53
f 196 195 60
f 197 53 56
f 197 196 53
f 198 56 50
f 198 197 56
f 199 50 52
f 199 198 50
f 200 52 46
f 200 199 52
f 201 46 43
f 200 46 201
f 202 43 45
f 202 201 43
f 203 45 39
f 203 202 45
f 204 39 8
f 204 203 39
f 205 8 142
f 205 204 8
f 206 142 143
f 206 205 142
f 207 143 141
f 207 206 143
f 193 207 141
f 22 4 16
f 139 4 22
f 140 10 4
f 139 140 4
f 208 209 210
f 211 210 209
f 212 208 210
f 213 212 210
f 214 213 210
f 215 210 211
f 215 214 210
f 130 216 209
f 217 209 216
f 208 130 209
f 218 211 209
f 219 218 209
f 217 219 209
f 130 220 216
f 221 216 220
f 222 216 221
f 223 216 222
f 223 217 216
f 130 22 220
f 224 220 22
f 225 221 220
f 226 225 220
f 227 220 224
f 227 226 220
f 136 139 22
f 135 136 22
f 131 135 22
f 130 131 22
f 228 22 23
f 229 22 228
f 224 22 229
f 230 130 208
f 126 130 230
f 231 208 212
f 232 230 208
f 231 232 208
f 233 212 213
f 233 231 212
f 126 230 232
f 211 232 231
f 117 232 211
f 123 232 117
f 129 232 123
f 126 232 129
f 233 213 234
f 214 234 213
f 235 233 234
f 236 234 214
f 237 234 236
f 238 235 234
f 239 238 234
f 237 239 234
f 233 240 231
f 241 231 240
f 242 211 231
f 243 242 231
f 244 243 231
f 245 231 241
f 246 247 231
f 244 231 247
f 248 246 231
f 249 248 231
f 250 249 231
f 251 250 231
f 252 251 231
f 253 252 231
f 254 253 231
f 255 254 231
f 256 255 231
f 257 256 231
f 257 231 245
f 233 258 240
f 241 240 258
f 233 259 258
f 260 258 259
f 241 258 261
f 262 261 258
f 260 262 258
f 263 259 233
f 264 265 259
f 260 259 265
f 263 264 259
f 235 266 233
f 267 233 266
f 263 233 267
f 268 269 270
f 271 270 269
f 238 268 270
f 238 270 271
f 272 273 269
f 274 269 273
f 268 272 269
f 274 271 269
f 275 276 273
f 277 273 276
f 272 275 273
f 278 273 277
f 274 273 278
f 279 280 276
f 281 276 280
f 275 279 276
f 277 276 281
f 282 283 280
f 284 280 283
f 279 282 280
f 281 280 284
f 285 286 283
f 287 283 286
f 282 285 283
f 284 283 287
f 285 288 286
f 287 286 288
f 289 288 285
f 287 288 289
f 290 285 282
f 289 285 290
f 291 282 279
f 292 282 291
f 290 282 292
f 237 279 275
f 291 279 237
f 239 275 272
f 237 275 239
f 238 272 268
f 239 272 238
f 293 294 295
f 296 295 294
f 297 293 295
f 297 295 296
f 298 299 294
f 300 294 299
f 293 298 294
f 300 296 294
f 301 302 299
f 303 299 302
f 298 301 299
f 304 299 303
f 300 299 304
f 305 306 302
f 307 302 306
f 301 305 302
f 303 302 307
f 308 309 306
f 310 306 309
f 305 308 306
f 307 306 310
f 311 312 309
f 313 309 312
f 308 311 309
f 310 309 313
f 311 314 312
f 313 312 314
f 315 314 311
f 313 314 315
f 316 311 308
f 315 311 316
f 317 308 305
f 318 308 317
f 316 308 318
f 319 305 301
f 317 305 319
f 320 301 298
f 319 301 320
f 297 298 293
f 320 298 297
f 20 23 24
f 20 225 23
f 321 23 225
f 321 228 23
f 20 221 225
f 20 218 221
f 322 221 218
f 322 222 221
f 323 321 225
f 324 325 225
f 323 225 325
f 326 324 225
f 327 326 225
f 328 327 225
f 226 328 225
f 20 211 218
f 242 215 211
f 30 211 20
f 34 211 30
f 36 211 34
f 41 211 36
f 49 211 41
f 48 211 49
f 55 211 48
f 59 211 55
f 63 211 59
f 81 211 63
f 80 211 81
f 86 211 80
f 91 211 86
f 113 211 91
f 112 211 113
f 117 211 112
f 219 322 218
f 215 236 214
f 329 236 215
f 330 236 329
f 330 331 236
f 332 236 331
f 315 236 332
f 319 320 236
f 333 236 320
f 317 319 236
f 318 317 236
f 316 318 236
f 315 316 236
f 291 237 236
f 292 291 236
f 290 292 236
f 289 290 236
f 333 289 236
f 242 334 215
f 335 215 334
f 335 329 215
f 336 337 334
f 338 334 337
f 339 336 334
f 242 339 334
f 340 335 334
f 338 340 334
f 341 337 336
f 342 338 337
f 343 342 337
f 341 343 337
f 344 336 339
f 341 336 344
f 345 339 242
f 346 344 339
f 345 346 339
f 345 242 243
f 36 34 38
f 41 36 42
f 63 59 66
f 69 63 71
f 81 63 69
f 95 91 98
f 113 91 95
f 101 95 103
f 113 95 101
f 347 228 321
f 347 348 228
f 229 228 348
f 349 347 321
f 350 349 321
f 323 350 321
f 219 222 322
f 351 222 219
f 352 222 351
f 353 223 222
f 354 353 222
f 355 354 222
f 356 355 222
f 357 356 222
f 358 357 222
f 352 358 222
f 152 153 154
f 151 154 155
f 152 154 151
f 150 155 156
f 151 155 150
f 149 156 157
f 150 156 149
f 148 157 158
f 149 157 148
f 147 158 159
f 148 158 147
f 146 159 145
f 147 159 146
f 146 145 144
f 168 169 170
f 167 170 171
f 168 170 167
f 166 171 172
f 167 171 166
f 165 172 173
f 166 172 165
f 164 173 174
f 165 173 164
f 163 174 175
f 164 174 163
f 162 175 161
f 163 175 162
f 162 161 160
f 184 185 186
f 183 186 187
f 184 186 183
f 182 187 188
f 183 187 182
f 181 188 189
f 182 188 181
f 180 189 190
f 181 189 180
f 179 190 191
f 180 190 179
f 178 191 177
f 179 191 178
f 178 177 176
f 200 201 202
f 199 202 203
f 200 202 199
f 198 203 204
f 199 203 198
f 197 204 205
f 198 204 197
f 196 205 206
f 197 205 196
f 195 206 207
f 196 206 195
f 194 207 193
f 195 207 194
f 194 193 192
f 224 348 347
f 224 229 348
f 227 224 347
f 359 227 347
f 360 359 347
f 361 360 347
f 362 361 347
f 349 362 347
f 363 325 324
f 364 323 325
f 364 325 363
f 365 324 326
f 365 363 324
f 366 326 327
f 366 365 326
f 367 327 328
f 367 366 327
f 368 328 226
f 368 367 328
f 369 226 227
f 369 368 226
f 370 227 359
f 370 369 227
f 371 359 360
f 371 370 359
f 372 360 361
f 373 371 360
f 372 373 360
f 374 361 362
f 374 372 361
f 375 362 349
f 375 374 362
f 376 349 350
f 376 375 349
f 364 350 323
f 364 376 350
f 364 363 365
f 364 365 366
f 377 366 367
f 378 364 366
f 377 378 366
f 379 367 368
f 380 367 379
f 380 377 367
f 381 368 369
f 381 379 368
f 382 369 370
f 383 381 369
f 382 383 369
f 373 370 371
f 382 370 373
f 384 373 372
f 384 382 373
f 385 372 374
f 385 384 372
f 386 374 375
f 387 385 374
f 386 387 374
f 388 375 376
f 388 386 375
f 389 376 364
f 390 388 376
f 389 390 376
f 378 389 364
f 391 379 381
f 392 380 379
f 391 392 379
f 393 381 383
f 394 391 381
f 393 394 381
f 395 383 382
f 395 393 383
f 396 382 384
f 396 395 382
f 397 384 385
f 397 396 384
f 398 385 387
f 398 397 385
f 398 387 386
f 399 386 388
f 398 386 399
f 400 388 390
f 401 399 388
f 400 401 388
f 402 390 389
f 402 400 390
f 403 389 378
f 403 402 389
f 404 378 377
f 404 403 378
f 392 377 380
f 392 404 377
f 391 399 401
f 394 399 391
f 398 399 394
f 392 401 400
f 391 401 392
f 404 400 402
f 392 400 404
f 404 402 403
f 398 394 393
f 397 393 395
f 398 393 397
f 397 395 396
f 217 351 219
f 223 351 217
f 405 351 223
f 406 351 405
f 407 352 351
f 406 407 351
f 408 405 223
f 409 408 223
f 410 409 223
f 411 410 223
f 353 411 223
f 412 405 408
f 413 406 405
f 413 405 412
f 414 408 409
f 414 412 408
f 415 409 410
f 415 414 409
f 416 410 411
f 416 415 410
f 417 411 353
f 417 416 411
f 418 353 354
f 418 417 353
f 419 354 355
f 419 418 354
f 420 355 356
f 420 419 355
f 421 356 357
f 422 420 356
f 421 422 356
f 423 357 358
f 423 421 357
f 424 358 352
f 424 423 358
f 425 352 407
f 425 424 352
f 413 407 406
f 413 425 407
f 413 412 414
f 413 414 415
f 426 415 416
f 427 413 415
f 426 427 415
f 428 416 417
f 429 426 416
f 428 429 416
f 430 417 418
f 430 428 417
f 431 418 419
f 432 430 418
f 431 432 418
f 422 419 420
f 431 419 422
f 433 422 421
f 433 431 422
f 434 421 423
f 434 433 421
f 435 423 424
f 436 423 435
f 436 434 423
f 437 424 425
f 437 435 424
f 438 425 413
f 439 437 425
f 438 439 425
f 427 438 413
f 440 435 437
f 441 436 435
f 440 441 435
f 442 437 439
f 443 440 437
f 442 443 437
f 444 439 438
f 444 442 439
f 445 438 427
f 445 444 438
f 446 427 426
f 446 445 427
f 447 426 429
f 447 446 426
f 447 429 428
f 448 428 430
f 447 428 448
f 449 430 432
f 450 448 430
f 449 450 430
f 451 432 431
f 451 449 432
f 452 431 433
f 452 451 431
f 453 433 434
f 453 452 433
f 441 434 436
f 441 453 434
f 440 448 450
f 443 448 440
f 447 448 443
f 441 450 449
f 440 450 441
f 453 449 451
f 441 449 453
f 453 451 452
f 447 443 442
f 446 442 444
f 447 442 446
f 446 444 445
f 454 455 456
f 457 454 458
f 456 458 454
f 459 457 458
f 456 459 458
f 460 455 454
f 457 460 454
f 461 455 460
f 456 455 462
f 461 462 455
f 463 460 457
f 464 461 460
f 463 464 460
f 465 457 459
f 465 463 457
f 462 466 467
f 468 467 466
f 456 462 467
f 469 456 467
f 469 467 468
f 462 470 466
f 468 466 470
f 461 470 462
f 461 468 470
f 469 459 456
f 471 459 469
f 471 465 459
f 472 468 473
f 474 473 468
f 475 472 473
f 475 473 474
f 476 468 461
f 477 469 468
f 478 477 468
f 472 478 468
f 479 474 468
f 476 479 468
f 480 476 461
f 481 480 461
f 482 481 461
f 483 482 461
f 464 483 461
f 471 469 477
f 478 484 477
f 485 477 484
f 471 477 485
f 478 486 484
f 487 484 486
f 485 484 488
f 487 488 484
f 489 486 478
f 490 487 486
f 491 490 486
f 489 491 486
f 475 478 472
f 489 478 475
f 492 474 493
f 494 493 474
f 495 492 493
f 496 493 494
f 495 493 496
f 492 475 474
f 497 498 474
f 494 474 498
f 479 497 474
f 489 475 492
f 499 489 492
f 499 492 495
f 494 500 501
f 502 501 500
f 503 494 501
f 504 501 502
f 505 506 501
f 503 501 506
f 504 505 501
f 494 498 500
f 343 500 498
f 343 502 500
f 342 498 497
f 343 498 342
f 342 497 507
f 479 507 497
f 503 496 494
f 508 345 243
f 330 243 331
f 244 331 243
f 509 243 330
f 508 243 509
f 510 502 344
f 341 344 502
f 346 510 344
f 510 504 502
f 341 502 343
f 511 506 505
f 503 506 512
f 513 512 506
f 514 506 511
f 513 506 514
f 515 505 504
f 511 505 515
f 515 504 510
f 516 510 346
f 517 510 516
f 515 510 517
f 518 346 345
f 516 346 518
f 519 345 508
f 520 345 519
f 518 345 520
f 335 521 329
f 522 329 521
f 509 330 329
f 522 509 329
f 267 523 521
f 488 521 523
f 335 267 521
f 524 521 488
f 524 522 521
f 267 266 523
f 525 523 266
f 526 465 523
f 488 523 465
f 525 526 523
f 245 266 235
f 525 266 245
f 238 527 235
f 257 235 527
f 257 245 235
f 238 528 527
f 529 527 528
f 257 527 529
f 530 531 528
f 529 528 531
f 238 271 528
f 532 528 271
f 533 528 532
f 534 530 528
f 535 534 528
f 533 535 528
f 536 537 531
f 538 531 537
f 539 531 540
f 296 540 531
f 541 536 531
f 539 541 531
f 297 296 531
f 320 297 531
f 333 320 531
f 542 333 531
f 543 542 531
f 530 543 531
f 529 531 538
f 331 544 537
f 545 537 544
f 332 331 537
f 546 332 537
f 547 546 537
f 548 547 537
f 536 548 537
f 549 537 545
f 538 537 549
f 244 544 331
f 545 544 244
f 300 550 540
f 250 540 550
f 551 539 540
f 300 540 296
f 551 540 250
f 304 552 550
f 248 550 552
f 300 304 550
f 249 550 248
f 250 550 249
f 303 553 552
f 246 552 553
f 304 303 552
f 248 552 246
f 307 554 553
f 247 553 554
f 303 307 553
f 246 553 247
f 310 555 554
f 556 554 555
f 307 310 554
f 247 554 556
f 313 557 555
f 558 555 557
f 310 313 555
f 556 555 558
f 315 332 557
f 558 557 332
f 313 315 557
f 559 332 546
f 558 332 559
f 560 546 547
f 561 559 546
f 561 546 560
f 562 547 548
f 560 547 562
f 563 548 536
f 562 548 563
f 564 536 541
f 563 536 564
f 551 541 539
f 564 541 551
f 532 271 274
f 565 287 289
f 333 565 289
f 566 284 287
f 565 566 287
f 567 281 284
f 566 567 284
f 568 277 281
f 567 568 281
f 569 278 277
f 568 569 277
f 570 274 278
f 569 570 278
f 570 532 274
f 256 532 570
f 571 533 532
f 571 532 256
f 254 570 569
f 255 570 254
f 256 570 255
f 253 569 568
f 254 569 253
f 252 568 567
f 253 568 252
f 251 567 566
f 252 567 251
f 572 566 565
f 251 566 572
f 572 565 333
f 573 333 542
f 572 333 573
f 574 542 543
f 575 573 542
f 575 542 574
f 576 543 530
f 574 543 576
f 577 530 534
f 576 530 577
f 578 534 535
f 577 534 578
f 571 535 533
f 578 535 571
f 340 267 335
f 579 263 267
f 580 579 267
f 340 580 267
f 581 265 264
f 582 260 265
f 581 582 265
f 583 264 263
f 584 581 264
f 583 584 264
f 585 263 579
f 585 583 263
f 586 579 580
f 587 579 586
f 588 585 579
f 587 588 579
f 338 580 340
f 586 580 338
f 507 586 338
f 342 507 338
f 589 586 507
f 587 586 589
f 479 589 507
f 476 589 479
f 587 589 476
f 587 476 480
f 588 480 481
f 587 480 588
f 590 481 482
f 591 481 590
f 592 481 591
f 588 481 592
f 593 482 483
f 593 594 482
f 262 482 594
f 260 482 262
f 582 482 260
f 582 590 482
f 593 483 464
f 463 593 464
f 595 594 593
f 596 594 595
f 262 594 596
f 595 593 463
f 597 463 465
f 595 463 597
f 465 598 599
f 600 599 598
f 597 465 599
f 596 597 599
f 600 596 599
f 600 598 465
f 261 600 465
f 261 465 526
f 485 488 465
f 471 485 465
f 596 595 597
f 262 596 600
f 262 600 261
f 261 526 601
f 602 601 526
f 603 261 601
f 602 603 601
f 602 526 525
f 603 241 261
f 525 241 603
f 525 245 241
f 602 525 603
f 545 558 559
f 545 559 561
f 545 556 558
f 244 247 556
f 545 244 556
f 549 551 250
f 251 572 250
f 538 250 572
f 538 549 250
f 549 564 551
f 549 563 564
f 549 562 563
f 545 560 562
f 549 545 562
f 545 561 560
f 538 572 573
f 538 573 575
f 257 571 256
f 529 578 571
f 257 529 571
f 538 577 578
f 529 538 578
f 538 576 577
f 538 574 576
f 538 575 574
f 524 488 487
f 591 590 582
f 581 591 582
f 584 591 581
f 592 591 584
f 592 584 583
f 592 583 585
f 588 592 585
f 524 487 490
f 604 490 491
f 524 490 604
f 489 496 491
f 604 491 496
f 495 496 489
f 605 606 496
f 607 496 606
f 608 605 496
f 503 608 496
f 607 604 496
f 609 495 489
f 499 609 489
f 499 495 609
f 607 509 610
f 522 610 509
f 522 607 610
f 607 606 509
f 508 509 606
f 519 606 605
f 519 508 606
f 611 605 608
f 520 519 605
f 520 605 611
f 612 613 608
f 611 608 613
f 503 612 608
f 612 614 613
f 514 613 614
f 615 611 613
f 514 615 613
f 513 614 612
f 513 514 614
f 503 512 612
f 513 612 512
f 616 604 607
f 524 604 616
f 616 607 522
f 524 616 522
f 518 520 611
f 615 518 611
f 615 516 518
f 615 517 516
f 515 517 615
f 511 515 615
f 514 511 615

