# https://github.com/mikedh/trimesh

o ph_distal.stl
v 12.83367252 -10.48944473 6.75000000
v 4.50000000 -10.48944473 -6.75000000
v 12.83367252 -10.48944473 -6.75000000
v 17.86150169 6.46462202 -6.75000000
v 14.39882374 -10.37199211 -6.75000000
v 17.38914108 4.31893730 -6.75000000
v 4.50000000 -10.48944473 6.75000000
v 3.25076056 -10.29441452 6.75000000
v 3.25152922 -10.29460907 -6.75000000
v 0.00000000 6.50000000 6.75000000
v 14.39888668 -10.37198257 6.75000000
v 0.62584633 -7.73105621 -6.75000000
v 0.40117529 -6.48760796 6.75000000
v 0.40117529 -6.48760796 -6.75000000
v -1.19392061 -6.38924122 6.75000000
v 0.00000000 6.50000000 -6.75000000
v -1.19331586 -6.38939905 -6.75000000
v 0.62605882 -7.73181963 6.75000000
v 1.21775341 -8.84635448 -6.75000000
v 1.21846998 -8.84710026 6.75000000
v 2.12237883 -9.72957420 -6.75000000
v 2.12161636 -9.72887611 6.75000000
v 18.65388680 6.64832258 6.75000000
v 17.86150169 6.46462202 6.75000000
v 19.45815468 4.59999990 6.75000000
v 17.67056084 4.59999990 6.75000000
v 18.65237808 6.64805603 -6.75000000
v 17.67056084 4.59999990 -6.75000000
v 17.53988075 4.44942570 -6.75000000
v 19.45815468 6.74677086 6.75000000
v 19.45815468 6.74677086 -6.75000000
v 20.52700615 6.74580193 6.64455462
v 20.72440910 6.72925234 -6.60251236
v 19.45815468 4.59999990 -6.75000000
v 21.57141495 6.59905529 6.32798767
v 21.98455620 6.49961233 -6.13545752
v 20.82238197 4.59999990 -6.57801867
v 22.48623085 6.34541702 5.84161282
v 22.58249855 6.31145906 -5.77629137
v 22.10138893 4.59999990 -6.07320547
v 23.31554413 6.00353098 5.17083836
v 23.14355087 6.08391523 -5.33238935
v 23.65243149 5.83057308 -4.80747032
v 23.21509171 4.59999990 -5.26675558
v 24.09410477 5.57031250 4.20938683
v 24.09410477 5.57031250 -4.20938683
v 24.71718597 5.12945032 3.01883554
v 24.71915436 5.12790489 -3.01412678
v 24.09410477 4.59999990 -4.20938683
v 25.14556885 4.76699066 1.65723419
v 25.14630890 4.76631689 -1.65382004
v 24.75091362 4.59999990 -2.93676519
v 25.26975441 4.65131521 0.91218185
v 25.26988983 4.65118504 -0.91101700
v 25.16485405 4.59999990 -1.56533933
v 25.32263565 4.59999990 0.13798882
v 25.32263184 4.59999990 -0.13798869
v 23.32314873 4.59999990 -0.00000000
v 23.13716125 4.59999990 -1.66167367
v 25.16485405 4.59999990 1.56533933
v 24.75091362 4.59999990 2.93676519
v 24.09410477 4.59999990 4.20938683
v 23.21509171 4.59999990 5.26675558
v 22.10138893 4.59999990 6.07320547
v 20.82238197 4.59999990 6.57801867
v 22.58927345 4.59999990 -3.23915482
v 21.70588303 4.59999990 -4.65818644
v 23.13716125 4.59999990 1.66167367
v 22.58927345 4.59999990 3.23915482
v 21.70588303 4.59999990 4.65818644
v 23.21100426 -1.52948058 1.29343426
v 23.32311630 -0.00000051 0.00000003
v 23.20782089 -1.55092072 -1.31152880
v 22.86765480 -3.05739093 2.57684946
v 22.34681892 -4.41933203 3.70471263
v 22.35469437 -4.40220785 -3.69077468
v 22.87137032 -3.04517245 -2.56664610
v 21.70588303 -5.59574175 4.65818644
v 20.88844490 4.59999990 5.49321365
v 21.70588303 -5.59574175 -4.65818644
v 21.24530220 -6.26681089 5.17115402
v 21.24530220 -6.26681089 -5.17115402
v 20.88844490 4.59999990 -5.49321365
v 17.38914108 -4.50793743 6.75000000
v 17.54604721 -3.37000465 6.75000000
v 17.38914108 -2.23328614 6.75000000
v 17.38914108 4.31893730 6.75000000
v 18.51323700 -8.81878662 6.63389778
v 17.53954887 4.44910049 6.74794292
v 17.67056084 4.59999990 6.74279547
v 17.38914108 -9.44860554 6.75000000
v 15.92893887 -10.02233028 6.75000000
v 17.38914108 -9.44860554 -6.75000000
v 18.51323700 -8.81878662 -6.63389778
v 15.92890835 -10.02233887 -6.75000000
v -1.58598375 6.30337238 6.75000000
v -2.71496534 -5.90580511 6.75000000
v -3.07429147 5.72698069 6.75000000
v -4.07429361 -5.06464005 6.75000000
v -2.71622849 -5.90524960 -6.75000000
v -4.37911177 4.80352211 6.75000000
v -5.18700838 -3.91730905 6.75000000
v -4.07409620 -5.06461334 -6.75000000
v -5.41889286 3.58970237 6.75000000
v -5.98570347 -2.53365445 6.75000000
v -5.98539019 -2.53455043 -6.75000000
v -5.18693733 -3.91730118 -6.75000000
v -6.13066769 2.15939093 6.75000000
v -6.42277479 -0.99851155 6.75000000
v -6.47215748 0.60019892 6.75000000
v -6.42300558 -0.99709386 -6.75000000
v -6.47230005 0.59876972 -6.75000000
v -6.13040972 2.16030455 -6.75000000
v -5.41882181 3.58969903 -6.75000000
v -3.07551789 5.72634792 -6.75000000
v -4.37891340 4.80350780 -6.75000000
v -1.58538997 6.30356741 -6.75000000
v 17.53988075 4.44942570 6.75000000
v 20.74391174 -6.88887167 5.60849047
v 20.74391174 -6.88887167 -5.60849047
v 20.20989227 -7.45786953 5.97168112
v 20.20989227 -7.45786953 -5.97168112
v 19.65292931 -7.97033167 6.26251078
v 19.65292931 -7.97033167 -6.26251078
v 19.91312027 4.59999990 -6.13666773
v 18.82393265 4.59999990 -6.55955458
v 17.54604721 -3.37000465 -6.75000000
v 17.67056084 4.59999990 -6.74279547
v 17.38914108 -4.50793743 -6.75000000
v 17.38914108 -2.23328614 -6.75000000
v 18.82393265 4.59999990 6.55955458
v 19.91312027 4.59999990 6.13666773
v 17.53954887 4.44910049 -6.74794292
f 1 2 3
f 4 3 2
f 5 1 3
f 6 3 4
f 6 5 3
f 1 7 2
f 8 2 7
f 9 2 8
f 4 2 9
f 10 7 1
f 10 8 7
f 10 1 11
f 5 11 1
f 12 13 14
f 15 14 13
f 4 12 14
f 16 4 14
f 17 14 15
f 17 16 14
f 12 18 13
f 10 13 18
f 10 15 13
f 19 20 18
f 10 18 20
f 12 19 18
f 21 22 20
f 10 20 22
f 19 21 20
f 21 8 22
f 10 22 8
f 21 9 8
f 4 9 21
f 4 21 19
f 4 19 12
f 23 4 24
f 16 24 4
f 25 23 24
f 26 24 10
f 16 10 24
f 26 25 24
f 23 27 4
f 28 4 27
f 29 6 4
f 28 29 4
f 30 31 27
f 28 27 31
f 23 30 27
f 32 33 31
f 34 31 33
f 30 32 31
f 34 28 31
f 35 36 33
f 37 33 36
f 32 35 33
f 37 34 33
f 38 39 36
f 40 36 39
f 35 38 36
f 40 37 36
f 41 42 39
f 40 39 42
f 38 41 39
f 41 43 42
f 44 42 43
f 44 40 42
f 45 46 43
f 44 43 46
f 41 45 43
f 47 48 46
f 49 46 48
f 45 47 46
f 44 46 49
f 50 51 48
f 52 48 51
f 47 50 48
f 52 49 48
f 53 54 51
f 55 51 54
f 50 53 51
f 55 52 51
f 56 57 54
f 55 54 57
f 53 56 54
f 58 57 56
f 59 55 57
f 59 57 58
f 60 56 53
f 58 56 60
f 60 53 50
f 61 50 47
f 61 60 50
f 61 47 45
f 62 45 41
f 62 61 45
f 63 41 38
f 63 62 41
f 64 38 35
f 64 63 38
f 65 35 32
f 65 64 35
f 65 32 30
f 25 30 23
f 65 30 25
f 66 49 52
f 67 49 66
f 44 49 67
f 59 52 55
f 66 52 59
f 68 60 61
f 58 60 68
f 69 61 62
f 68 61 69
f 69 62 70
f 63 70 62
f 68 71 72
f 73 72 71
f 58 68 72
f 73 58 72
f 68 74 71
f 73 71 74
f 69 75 74
f 76 74 75
f 68 69 74
f 77 74 76
f 73 74 77
f 70 78 75
f 76 75 78
f 69 70 75
f 79 78 70
f 76 78 80
f 81 80 78
f 79 81 78
f 63 79 70
f 73 59 58
f 77 66 59
f 73 77 59
f 80 67 66
f 76 80 66
f 77 76 66
f 82 67 80
f 83 67 82
f 44 67 83
f 81 82 80
f 84 85 86
f 87 86 85
f 10 84 86
f 87 10 86
f 88 85 84
f 89 87 85
f 90 85 88
f 90 89 85
f 10 91 84
f 88 84 91
f 10 92 91
f 93 91 92
f 93 94 91
f 88 91 94
f 10 11 92
f 95 92 11
f 95 93 92
f 5 95 11
f 96 97 15
f 17 15 97
f 10 96 15
f 98 99 97
f 100 97 99
f 96 98 97
f 17 97 100
f 101 102 99
f 103 99 102
f 98 101 99
f 100 99 103
f 104 105 102
f 106 102 105
f 101 104 102
f 107 102 106
f 103 102 107
f 108 109 105
f 106 105 109
f 104 108 105
f 108 110 109
f 111 109 110
f 106 109 111
f 112 110 108
f 111 110 112
f 113 108 104
f 112 108 113
f 114 104 101
f 113 104 114
f 115 101 98
f 116 101 115
f 114 101 116
f 115 98 96
f 117 96 10
f 115 96 117
f 118 26 10
f 87 118 10
f 117 10 16
f 90 25 26
f 65 25 90
f 90 26 118
f 89 118 87
f 90 118 89
f 119 120 82
f 83 82 120
f 81 119 82
f 121 122 120
f 83 120 122
f 119 121 120
f 123 124 122
f 125 122 124
f 121 123 122
f 125 83 122
f 88 94 124
f 126 124 94
f 123 88 124
f 126 125 124
f 127 94 93
f 128 94 127
f 128 126 94
f 129 93 95
f 127 93 129
f 6 95 5
f 130 95 6
f 130 129 95
f 131 88 123
f 131 90 88
f 132 123 121
f 132 131 123
f 132 121 119
f 79 119 81
f 79 132 119
f 133 6 29
f 133 130 6
f 133 29 28
f 37 28 34
f 133 28 128
f 37 128 28
f 17 117 16
f 100 115 117
f 17 100 117
f 103 116 115
f 100 103 115
f 107 114 116
f 103 107 116
f 106 113 114
f 107 106 114
f 111 112 113
f 106 111 113
f 130 127 129
f 133 127 130
f 133 128 127
f 65 90 131
f 65 131 132
f 64 132 79
f 65 132 64
f 64 79 63
f 40 83 125
f 44 83 40
f 40 125 126
f 37 126 128
f 40 126 37

