# https://github.com/mikedh/trimesh

o ph_distal_collision.stl
v 17.91116714 6.64716196 6.75000048
v 20.89381409 6.29141426 6.75000048
v 17.91275024 6.64718962 -6.74999952
v -4.05152845 8.73912430 -6.24999952
v -2.98852801 8.66890240 -6.24999952
v -2.98852801 8.66890240 6.25000048
v -4.05152845 8.73912430 6.25000048
v 23.62592506 5.09918833 -6.75000000
v 23.61857796 5.10380888 6.75000000
v 25.83910751 3.18697953 6.75000000
v 25.83910751 3.18698001 -6.75000000
v -6.80750561 -3.32251954 3.24999976
v -6.76323938 -1.56932819 3.25000000
v -6.76324844 -1.56936193 -3.25000000
v -5.92249966 -0.00000027 6.25000000
v -6.04689074 -4.92752218 3.24999976
v -4.98369837 -3.24384046 5.24968624
v 25.33782196 -0.35636684 6.75000000
v 23.87863350 -3.65434337 6.75000000
v 25.33781052 -0.35640296 -6.75000000
v -4.90807915 8.69361782 -6.24999952
v -5.85294676 8.59289837 -6.24999952
v 14.95216942 6.13526917 -6.74999952
v 12.30128002 4.80550766 -6.75000000
v 10.20446587 2.78223610 -6.75000000
v 8.86136627 0.25920147 -6.75000000
v 8.39655685 -2.53919172 -6.75000000
v 15.03105259 -10.02286339 6.74999952
v 11.25676918 -10.48944473 6.74999952
v 15.03101349 -10.02287388 -6.75000048
v 20.90329552 6.28882122 -6.74999952
v 23.87860107 -3.65439558 -6.75000000
v -3.97326231 -6.80110836 3.24999976
v -1.36520815 -7.94539261 3.24999976
v 1.49574900 -8.23685741 5.24968576
v -6.04689074 -4.92752218 -3.25000024
v -3.44126368 -4.96985149 -5.24968624
v -3.97326231 -6.80110836 -3.25000024
v 9.51999950 -10.48944473 -6.75000048
v 1.49574900 -8.23685741 -5.24968672
v -1.36520815 -7.94539261 -3.25000024
v -4.48048878 8.72773838 -6.24999952
v -5.92249966 0.00000027 -6.25000000
v 11.25676918 -10.48944473 -6.75000048
v 9.51999950 -10.48944473 6.74999952
v 8.68156910 -4.74081802 6.75000000
v 21.56207085 -6.48464966 6.74999952
v 18.54510880 -8.65654945 6.74999952
v 21.56201935 -6.48469687 -6.75000048
v 18.54505157 -8.65657997 -6.75000048
v -3.44126368 -4.96985149 5.24968624
v 8.68156910 -4.74081707 -6.75000000
v -6.80749798 -3.32255340 -3.25000024
v -4.98369837 -3.24383998 -5.24968624
v -5.85294676 8.59289837 6.25000048
v 14.95535374 6.13631392 6.75000048
v 12.30002403 4.80460072 6.75000000
v 10.19877052 2.77465820 6.75000000
v 8.85868549 0.25128746 6.75000000
v -4.90807915 8.69361782 6.25000048
v 8.39655685 -2.53919220 6.75000000
v -4.48048878 8.72773838 6.25000048
f 1 2 3
f 4 5 3
f 3 5 6
f 6 1 3
f 1 6 7
f 8 9 10
f 11 8 10
f 12 13 14
f 15 12 16
f 16 17 15
f 18 19 20
f 18 20 11
f 18 11 10
f 21 3 22
f 23 22 3
f 23 24 22
f 25 26 22
f 24 25 22
f 26 27 22
f 28 29 30
f 31 2 9
f 9 8 31
f 31 3 2
f 20 19 32
f 33 34 35
f 36 37 38
f 39 40 37
f 40 38 37
f 41 40 39
f 40 41 38
f 42 4 3
f 21 42 3
f 27 43 22
f 43 39 37
f 30 29 44
f 45 46 15
f 45 35 34
f 47 48 49
f 47 49 32
f 47 32 19
f 49 48 50
f 50 48 28
f 50 28 30
f 51 33 35
f 51 15 17
f 33 51 16
f 51 17 16
f 51 45 15
f 45 51 35
f 39 43 52
f 52 43 27
f 53 14 22
f 53 22 43
f 53 43 36
f 12 14 53
f 53 36 16
f 53 16 12
f 54 37 36
f 54 43 37
f 54 36 43
f 55 56 1
f 56 55 57
f 55 58 57
f 55 59 58
f 14 55 22
f 55 14 13
f 55 13 12
f 15 55 12
f 60 55 1
f 59 55 61
f 61 15 46
f 61 55 15
f 62 1 7
f 62 60 1
f 5 4 6
f 6 4 7
f 38 33 36
f 36 33 16
f 41 33 38
f 34 33 41
f 34 41 45
f 45 41 39
f 45 39 44
f 45 44 29
f 52 8 11
f 24 23 52
f 52 11 20
f 52 25 24
f 52 31 8
f 52 32 49
f 49 50 52
f 52 44 39
f 52 23 3
f 26 25 52
f 52 27 26
f 31 52 3
f 20 32 52
f 30 44 52
f 52 50 30
f 55 60 22
f 60 21 22
f 61 9 2
f 61 57 58
f 10 9 61
f 61 2 1
f 19 18 61
f 61 56 57
f 61 18 10
f 61 45 29
f 61 29 28
f 28 48 61
f 48 47 61
f 46 45 61
f 61 47 19
f 61 1 56
f 58 59 61
f 62 7 4
f 4 42 62
f 21 60 62
f 62 42 21

