# https://github.com/mikedh/trimesh

o ph_knuckle_collision.stl
v -8.75225544 6.25000048 -6.90639782
v -8.35482693 3.45707703 -2.36376810
v -7.38344955 6.24999905 8.73912525
v 2.68696284 -2.68693304 11.73912430
v 1.45513189 -3.51030970 11.73912430
v 17.75056267 -6.25000048 6.65080929
v -7.38344955 -6.25000095 8.73912334
v 4.50000000 -6.25000095 8.73912334
v -0.00000000 -4.00000095 11.53912449
v -3.79999995 -0.00000103 11.73912430
v 7.97826576 -6.74999952 -6.00000048
v 15.10441303 -6.75000000 -0.93352407
v -8.75225544 -6.24999952 -6.90639877
v 8.00000000 -6.74999905 -9.44722271
v 7.97826576 6.75000048 -5.99999952
v 8.00000000 6.75000095 -9.44722080
v -4.00000000 0.00000111 -12.68944454
v -4.50000000 -6.24999905 -9.88944530
v -7.40865374 -6.24999905 -8.25000095
v -2.68696284 -2.68693089 -12.88944435
v -3.79999995 0.00000113 -12.88944435
v -0.00000000 -3.80000091 11.73912430
v 3.51030874 -1.45513082 -12.88944435
v 3.79999995 0.00000113 -12.88944435
v 12.72382641 -6.74999905 -8.73963165
v -8.11027718 2.85693097 0.43144801
v -8.11027718 -2.74306917 0.43144754
v -8.35482693 -2.14292288 -2.36376858
v 3.79999995 -0.00000103 11.73912430
v 17.75056267 6.24999952 6.65081024
v 3.51030874 1.45513082 11.73912430
v 15.10197735 6.75000000 -0.93590802
v 3.51032114 -1.45510304 11.73912430
v 12.72399902 -5.24999905 -8.73955727
v 14.80105686 -6.74999952 -7.52307367
v -3.51032114 -1.45510089 -12.88944435
v -7.40865374 6.25000095 -8.24999905
v 16.62198067 -6.75000000 -1.07515645
v 17.27612305 -6.75000000 -2.62667489
v 17.75056267 -6.25000048 4.24000168
v 17.23524475 -6.74999952 -4.30495548
v 16.13887787 -6.75000000 -0.70712334
v -3.51032114 1.45510089 11.73912430
v -2.68696284 2.68693113 11.73912430
v -1.45513189 3.51030779 11.73912430
v -0.00000000 -3.99999881 -12.68944454
v 10.40752125 -6.74999905 -9.39509392
v -0.00000000 -3.79999876 -12.88944435
v -1.45513189 -3.51030755 -12.88944435
v 2.68693209 -2.68696165 -12.88944435
v 16.12923431 6.75000000 -0.70373768
v 4.50000000 6.24999905 8.73912525
v 12.72382641 6.75000095 -8.73962975
v 12.72389793 5.25000095 -8.73960018
v 17.23514557 6.25000048 -4.30563593
v 17.23524094 6.75000048 -4.30496740
v 14.80105782 6.75000048 -7.52307272
v -3.51030874 1.45513296 -12.88944435
v 2.68696284 2.68693328 -12.88944435
v 10.40752125 6.75000095 -9.39509201
v -4.50000000 6.25000095 -9.88944340
v 16.58763123 -6.75000000 -1.02901411
v 15.58922100 -6.75000000 -0.67219108
v -3.51030874 -1.45513296 11.73912430
v -2.68693209 -2.68696380 11.73912430
v -1.45510197 -3.51032209 11.73912430
v 0.00000000 3.99999905 11.53912449
v 1.45510197 -3.51031995 -12.88944435
v 16.57907867 6.75000000 -1.01834023
v 15.58257675 6.75000000 -0.67366564
v 17.75056267 6.24999952 4.24000788
v 17.27612495 6.75000000 -2.62668037
v 16.62198067 6.75000000 -1.07515526
v 16.50633621 -6.74999952 -5.82279396
v 14.80129147 -5.24999952 -7.52289152
v 16.50632858 6.75000048 -5.82280111
v 3.51032114 1.45510304 -12.88944435
v 1.45513189 3.51030993 -12.88944435
v 0.00000000 3.80000114 -12.88944435
v 0.00000000 4.00000095 -12.68944454
v -1.45510197 3.51032233 -12.88944435
v -2.68693209 2.68696404 -12.88944435
v 16.60513878 -6.75000000 -1.05183828
v 0.00000000 3.79999900 11.73912430
v 16.60103607 6.75000000 -1.04636586
v 16.95157433 -6.24999952 -5.10266495
v 16.50690842 5.25000048 -5.82213974
v 16.94302750 5.25000048 -5.12091923
v 14.80113888 5.25000048 -7.52301359
v 1.45510197 3.51032019 11.73912430
v 16.94313622 -5.24999952 -5.11989641
v 17.22583771 5.25000048 -4.34458303
v 16.50651741 -5.75171328 -5.82255888
v 2.68693209 2.68696189 11.73912430
v 17.23507881 -6.24999952 -4.30592012
v 17.22562027 -5.24999952 -4.34357691
v 16.95174217 6.25000048 -5.10231352
v 16.50643921 -6.24999952 -5.82266092
f 1 2 3
f 4 5 6
f 7 8 9
f 7 10 3
f 11 12 7
f 13 11 7
f 14 11 13
f 1 15 16
f 3 15 1
f 1 17 13
f 18 19 20
f 17 19 13
f 19 17 21
f 14 13 19
f 18 14 19
f 5 22 6
f 6 22 8
f 8 22 9
f 9 22 7
f 23 24 25
f 2 26 3
f 27 28 7
f 7 28 13
f 29 30 31
f 29 6 30
f 15 3 32
f 33 4 6
f 29 33 6
f 24 34 25
f 25 34 35
f 19 36 20
f 36 19 21
f 1 37 17
f 17 37 21
f 1 16 37
f 38 39 6
f 6 39 40
f 40 39 41
f 8 42 6
f 10 43 3
f 43 44 3
f 44 45 3
f 14 46 47
f 48 47 46
f 18 46 14
f 48 46 18
f 20 49 18
f 49 48 18
f 47 50 25
f 50 23 25
f 30 51 52
f 53 54 24
f 54 34 24
f 41 55 56
f 54 53 57
f 34 57 35
f 54 57 34
f 37 58 21
f 59 60 53
f 61 37 16
f 42 62 6
f 12 63 7
f 7 63 8
f 42 8 63
f 64 10 7
f 65 64 7
f 22 66 7
f 66 65 7
f 3 67 52
f 48 68 47
f 68 50 47
f 51 30 69
f 52 70 3
f 51 70 52
f 70 32 3
f 40 41 71
f 56 71 41
f 30 72 73
f 71 72 30
f 71 56 72
f 74 75 76
f 35 75 74
f 53 24 77
f 77 59 53
f 60 78 79
f 60 59 78
f 16 80 61
f 61 80 79
f 60 80 16
f 80 60 79
f 61 79 81
f 58 37 82
f 61 82 37
f 81 82 61
f 38 6 83
f 62 83 6
f 45 84 3
f 3 84 67
f 30 52 84
f 67 84 52
f 30 73 85
f 69 30 85
f 74 86 41
f 76 87 74
f 88 87 76
f 76 89 57
f 75 89 76
f 57 89 35
f 75 35 89
f 84 90 30
f 88 91 74
f 86 74 91
f 86 91 88
f 92 56 55
f 87 88 93
f 30 94 31
f 90 94 30
f 41 95 55
f 55 95 92
f 86 96 41
f 92 96 86
f 41 96 95
f 95 96 92
f 88 97 86
f 92 86 97
f 92 97 56
f 56 97 76
f 97 88 76
f 88 74 98
f 93 88 98
f 87 98 74
f 93 98 87
f 27 7 26
f 7 3 26
f 1 28 2
f 1 13 28
f 26 28 27
f 2 28 26
f 30 6 71
f 40 71 6
f 82 36 21
f 49 82 48
f 50 82 23
f 23 82 24
f 36 82 20
f 78 59 82
f 49 20 82
f 77 82 59
f 58 82 21
f 68 82 50
f 68 48 82
f 77 24 82
f 78 82 79
f 81 79 82
f 47 83 14
f 74 83 35
f 11 83 12
f 47 25 83
f 11 14 83
f 35 83 25
f 39 38 83
f 39 83 41
f 62 42 83
f 74 41 83
f 63 83 42
f 83 63 12
f 56 76 85
f 15 85 16
f 57 85 76
f 32 85 15
f 69 85 51
f 60 85 53
f 70 51 85
f 57 53 85
f 60 16 85
f 72 56 85
f 70 85 32
f 72 85 73
f 5 4 94
f 29 31 94
f 33 29 94
f 64 65 94
f 22 5 94
f 43 94 44
f 33 94 4
f 45 44 94
f 43 10 94
f 66 94 65
f 64 94 10
f 66 22 94
f 84 45 94
f 84 94 90

