# https://github.com/mikedh/trimesh

o ph_medium.stl
v -8.08037949 -1.66393125 2.25000000
v -8.25000000 0.00000000 2.25000000
v -6.50000000 0.00000000 2.25000000
v -6.50000000 0.00000000 3.25000000
v -7.57824039 -3.26048088 2.25000000
v -6.76445484 -4.72270250 2.25000000
v -6.33701611 -1.44605541 2.25000000
v -6.33701611 -1.44605541 -2.25000000
v -6.50000000 0.00000000 -2.25000000
v -6.45260715 0.78301615 6.25000000
v -8.25000000 0.00000000 2.94142771
v -7.57860804 -3.25993872 2.94142771
v -8.08040905 -1.66417897 2.94142771
v -6.76522779 -4.72167253 2.94142771
v -5.85625839 -2.82027555 2.25000000
v -5.67325830 -5.98969269 2.25000000
v -5.67370892 -5.98928404 2.94142771
v -5.08235312 -4.05202198 2.25000000
v -4.34814787 -7.01101542 2.25000000
v -4.34892702 -7.01065826 2.94142771
v -4.05272675 -5.08179188 2.25000000
v -2.84365439 -7.74431133 2.25000000
v -2.84534788 -7.74380350 2.94142771
v -1.44651651 -6.33691216 2.25000000
v -1.22282159 -8.15885925 2.25000000
v -1.22478771 -8.15857792 2.94142771
v -2.82095146 -5.85593176 2.25000000
v 0.00000000 -6.50000000 2.25000000
v 0.44738859 -8.23781586 2.25000000
v 0.44612715 -8.23792839 2.94142771
v 5.08060026 -6.50000000 2.25000000
v 2.10045552 -7.97800446 2.25000000
v 2.09870028 -7.97859383 2.94142771
v 3.66745830 -7.38988495 2.25000000
v 3.66498971 -7.39123487 2.94142771
v 5.08060026 -6.50000000 -2.25000000
v 10.07179642 -6.50000000 -6.25000000
v 5.08060026 -6.50000000 2.94142771
v -0.00000000 -6.50000000 -2.25000000
v -1.44651651 -6.33691216 -2.25000000
v -2.82095146 -5.85593176 -2.25000000
v -4.05272675 -5.08179188 -2.25000000
v -5.08235312 -4.05202198 -2.25000000
v -5.85625839 -2.82027555 -2.25000000
v 23.50000191 -0.00003755 6.25000000
v 26.28534508 -2.00758696 6.25000000
v 26.49887657 -0.14615385 6.25000000
v 26.49887657 -0.14615385 5.77898073
v 23.50009537 -0.00004217 5.74993229
v 24.89815712 -0.06816088 5.49658442
v 25.70969772 -3.79335546 6.25000000
v 26.28509140 -2.00924730 5.77898073
v 24.79507065 -5.43018103 6.25000000
v 25.70948982 -3.79404521 5.77898073
v 23.57664299 -6.85537434 6.25000000
v 24.79450226 -5.43099833 5.77898073
v 22.85639000 2.82001925 6.25000000
v 22.10111237 -8.01417732 6.25000000
v 23.57578087 -6.85631895 5.77898073
v 23.33690262 1.44669902 6.25000000
v 21.05336189 5.08130932 6.25000000
v 20.42772293 -8.86006355 6.25000000
v 22.10081673 -8.01446629 5.77898073
v 22.08188248 4.05264425 6.25000000
v 19.82071114 5.85605717 6.25000000
v 18.62073898 -9.36064053 6.25000000
v 20.42708778 -8.86030865 5.77898073
v 17.00000000 6.50000000 6.25000000
v 16.74949837 -9.49661160 6.25000000
v 18.61981201 -9.36088657 5.77898073
v 18.44717407 6.33679390 6.25000000
v 0.00000000 6.50000000 6.25000000
v 14.88912773 -9.26251698 6.25000000
v 16.74941826 -9.49669456 5.77898073
v 13.11102486 -8.66742516 6.25000000
v 14.88878822 -9.26243973 5.77898073
v 11.48346615 -7.73409557 6.25000000
v 13.11042595 -8.66724968 5.77898073
v 10.07179642 -6.50000000 6.25000000
v 11.48363209 -7.73431873 5.77898073
v 0.00000000 -6.50000000 6.25000000
v 10.07179642 -6.50000000 5.77898073
v -1.55543375 6.31103516 6.25000000
v -1.55543375 -6.31103516 6.25000000
v 0.00000000 -6.50000000 3.25000000
v 1.25498164 -6.50000000 3.22881770
v 3.75234771 -6.50000000 3.07275844
v 2.49868345 -6.50000000 3.16823339
v -3.02095675 5.75531912 6.25000000
v -3.02095675 -5.75531912 6.25000000
v -2.14681387 -6.13524151 3.25000000
v -0.72776908 -6.45912933 3.25000000
v -1.44638610 -6.33703136 3.25000000
v -4.31002903 4.86542130 6.25000000
v -4.31002903 -4.86542130 6.25000000
v -3.45820856 -5.50370741 3.25000000
v -2.82024431 -5.85629749 3.25000000
v -5.34962082 3.69203997 6.25000000
v -5.34962082 -3.69203997 6.25000000
v -4.59619427 -4.59619427 3.25000000
v -4.05268383 -5.08190441 3.25000000
v -6.07738590 2.30527854 6.25000000
v -6.07738590 -2.30527854 6.25000000
v -5.50370741 -3.45820856 3.25000000
v -5.08190441 -4.05268383 3.25000000
v -6.45260715 -0.78301615 6.25000000
v -6.13524151 -2.14681387 3.25000000
v -5.85629749 -2.82024431 3.25000000
v -6.45912933 -0.72776908 3.25000000
v -6.33703136 -1.44638610 3.25000000
v -6.45244884 0.78394562 -6.25000000
v -6.50000000 0.00000000 -3.25000000
v -6.07771778 2.30460429 -6.25000000
v -5.34934330 3.69225073 -6.25000000
v -4.30988312 4.86563587 -6.25000000
v -3.02115583 5.75514507 -6.25000000
v -1.55521524 6.31107473 -6.25000000
v 0.00000000 6.50000000 -6.25000000
v 17.00000000 6.50000000 -6.25000000
v 19.82036781 5.85608816 -6.25000000
v 18.44587326 6.33705235 -6.25000000
v 21.05305672 5.08156395 -6.25000000
v 22.08156395 4.05305672 -6.25000000
v 22.85608864 2.82036757 -6.25000000
v 23.33705139 1.44587290 -6.25000000
v 23.49923134 0.00000000 5.24986458
v 0.00000000 -6.50000000 -6.25000000
v -1.55521524 -6.31107473 -6.25000000
v 11.49329758 -7.74109697 -6.25000000
v 16.79743767 -9.49775314 -6.25000000
v 13.13301754 -8.67725658 -6.25000000
v 14.92427921 -9.27045727 -6.25000000
v -8.25000000 0.00000000 -2.94142771
v -6.76445484 -4.72270250 -2.25000000
v -8.25000000 0.00000000 -2.25000000
v -6.45244884 -0.78394562 -6.25000000
v -6.45912933 -0.72776908 -3.25000000
v -6.33703136 -1.44638610 -3.25000000
v -8.08040905 -1.66417897 -2.94142771
v -6.07771778 -2.30460429 -6.25000000
v -6.13524151 -2.14681387 -3.25000000
v -5.85629749 -2.82024431 -3.25000000
v -7.57860804 -3.25993872 -2.94142771
v -5.34934330 -3.69225073 -6.25000000
v -5.50370741 -3.45820856 -3.25000000
v -5.08190441 -4.05268383 -3.25000000
v -6.76522779 -4.72167253 -2.94142771
v -4.30988312 -4.86563587 -6.25000000
v -4.59619427 -4.59619427 -3.25000000
v -4.05268383 -5.08190441 -3.25000000
v -5.67370892 -5.98928404 -2.94142771
v -3.02115583 -5.75514507 -6.25000000
v -3.45820856 -5.50370741 -3.25000000
v -2.82024431 -5.85629749 -3.25000000
v -4.34892702 -7.01065826 -2.94142771
v -2.14681387 -6.13524151 -3.25000000
v -2.84534788 -7.74380350 -2.94142771
v -1.44638610 -6.33703136 -3.25000000
v -0.72776908 -6.45912933 -3.25000000
v -1.22478771 -8.15857792 -2.94142771
v -0.00000000 -6.50000000 -3.25000000
v 1.25415838 -6.50000000 -3.22888970
v 0.44612715 -8.23792839 -2.94142771
v -1.22282159 -8.15885925 -2.25000000
v 3.66745830 -7.38988495 -2.25000000
v 2.10045552 -7.97800446 -2.25000000
v 0.44738859 -8.23781586 -2.25000000
v -2.84365439 -7.74431133 -2.25000000
v -4.34814787 -7.01101542 -2.25000000
v -5.67325830 -5.98969269 -2.25000000
v 15.90625381 -6.50000000 5.26608753
v 15.90697002 -6.50000000 -5.26606655
v 17.00000000 -6.50000000 -5.25000000
v 16.79812431 -9.49785519 -5.77898073
v 17.00000000 -6.50000000 5.25000000
v 17.72776985 -6.45912933 -5.25000000
v 18.67978668 -9.35031128 -5.77898073
v 14.82313633 -6.50000000 -5.31252098
v 14.92442989 -9.27049160 -5.77898073
v 14.82192326 -6.50000000 5.31258821
v 13.74095154 -6.50000000 -5.38595867
v 13.13266373 -8.67719460 -5.77898073
v 12.04101181 -6.50000000 5.54545021
v 12.04094219 -6.50000000 -5.54545975
v 11.49355221 -7.74138451 -5.77898073
v 13.73969936 -6.50000000 5.38605785
v 10.07179642 -6.50000000 -5.77898073
v 2.49775004 -6.50000000 -3.16832352
v 3.75151706 -6.50000000 -3.07281446
v 5.08060026 -6.50000000 -2.94142771
v 2.09870028 -7.97859383 -2.94142771
v 3.66498971 -7.39123487 -2.94142771
v 17.72776604 -6.45912981 5.25000000
v 23.45912552 -0.72779685 5.25000000
v 23.50000000 0.00000000 -5.25000000
v 23.33702278 -1.44641995 5.25000000
v 23.33703232 -1.44638610 -5.25000000
v 23.45912933 -0.72776908 -5.25000000
v 23.13523102 -2.14684176 5.25000000
v 23.13524246 -2.14681387 -5.25000000
v 22.85628510 -2.82026839 5.25000000
v 22.85629845 -2.82024431 -5.25000000
v 22.50369453 -3.45822883 5.25000000
v 22.50370789 -3.45820856 -5.25000000
v 22.08189201 -4.05270052 5.25000000
v 22.08190536 -4.05268383 -5.25000000
v 21.59617996 -4.59620714 5.25000000
v 21.05267143 -5.08191442 5.25000000
v 21.59619331 -4.59619427 -5.25000000
v 20.45819664 -5.50371456 5.25000000
v 21.05268288 -5.08190441 -5.25000000
v 19.82023430 -5.85630226 5.25000000
v 20.45820808 -5.50370741 -5.25000000
v 19.14680672 -6.13524437 5.25000000
v 19.82024384 -5.85629749 -5.25000000
v 18.44638062 -6.33703279 5.25000000
v 19.14681435 -6.13524151 -5.25000000
v 18.44638634 -6.33703136 -5.25000000
v 18.67971039 -9.35023594 -6.25000000
v 20.49459076 -8.83390236 -6.25000000
v 22.17157173 -7.96888828 -6.25000000
v 23.50000000 0.00000000 -6.25000000
v 26.50000000 0.00000000 -5.77898073
v 23.64543343 -6.78870869 -6.25000000
v 26.50000000 0.00000000 -6.25000000
v 26.31250381 -1.87810302 -5.77898073
v 25.75741577 -3.68207192 -5.77898073
v 24.85664940 -5.34069872 -5.77898073
v 23.64575768 -6.78851318 -5.77898073
v 22.17253876 -7.96836567 -5.77898073
v 20.49514389 -8.83368397 -5.77898073
v -7.57824039 -3.26048088 -2.25000000
v -8.08037949 -1.66393125 -2.25000000
v 24.85623550 -5.34130859 -6.25000000
v 25.75694466 -3.68296576 -6.25000000
v 26.31241608 -1.87810719 -6.25000000
f 1 2 3
f 4 3 2
f 5 1 3
f 6 5 3
f 7 6 3
f 8 7 3
f 9 3 10
f 4 10 3
f 8 3 9
f 11 2 1
f 11 4 2
f 12 1 5
f 13 11 1
f 13 1 12
f 14 5 6
f 12 5 14
f 15 16 6
f 17 6 16
f 7 15 6
f 14 6 17
f 18 19 16
f 20 16 19
f 15 18 16
f 17 16 20
f 21 22 19
f 23 19 22
f 18 21 19
f 20 19 23
f 24 25 22
f 26 22 25
f 27 24 22
f 21 27 22
f 23 22 26
f 28 29 25
f 30 25 29
f 24 28 25
f 26 25 30
f 31 32 29
f 33 29 32
f 28 31 29
f 30 29 33
f 31 34 32
f 35 32 34
f 33 32 35
f 35 34 31
f 36 31 28
f 36 37 31
f 38 31 37
f 35 31 38
f 39 28 24
f 36 28 39
f 40 24 27
f 40 39 24
f 41 27 21
f 41 40 27
f 42 21 18
f 42 41 21
f 43 18 15
f 43 42 18
f 44 15 7
f 44 43 15
f 8 44 7
f 45 46 47
f 48 47 46
f 49 45 47
f 50 47 48
f 49 47 50
f 45 51 46
f 52 46 51
f 48 46 52
f 45 53 51
f 54 51 53
f 52 51 54
f 45 55 53
f 56 53 55
f 54 53 56
f 57 58 55
f 59 55 58
f 60 57 55
f 45 60 55
f 56 55 59
f 61 62 58
f 63 58 62
f 64 61 58
f 57 64 58
f 59 58 63
f 65 66 62
f 67 62 66
f 61 65 62
f 63 62 67
f 68 69 66
f 70 66 69
f 71 68 66
f 65 71 66
f 67 66 70
f 72 73 69
f 74 69 73
f 68 72 69
f 70 69 74
f 72 75 73
f 76 73 75
f 74 73 76
f 72 77 75
f 78 75 77
f 76 75 78
f 72 79 77
f 80 77 79
f 78 77 80
f 72 81 79
f 82 79 81
f 80 79 82
f 83 84 81
f 85 81 84
f 72 83 81
f 86 81 85
f 87 38 81
f 82 81 38
f 88 87 81
f 86 88 81
f 89 90 84
f 91 84 90
f 83 89 84
f 92 85 84
f 93 92 84
f 91 93 84
f 94 95 90
f 96 90 95
f 89 94 90
f 97 91 90
f 96 97 90
f 98 99 95
f 100 95 99
f 94 98 95
f 101 96 95
f 100 101 95
f 102 103 99
f 104 99 103
f 98 102 99
f 105 100 99
f 104 105 99
f 10 106 103
f 107 103 106
f 102 10 103
f 108 104 103
f 107 108 103
f 109 106 10
f 110 107 106
f 109 110 106
f 111 10 102
f 112 9 10
f 111 112 10
f 4 109 10
f 113 102 98
f 113 111 102
f 114 98 94
f 114 113 98
f 115 94 89
f 115 114 94
f 116 89 83
f 116 115 89
f 117 83 72
f 117 116 83
f 118 72 68
f 117 72 118
f 119 68 71
f 119 118 68
f 120 71 65
f 121 119 71
f 120 121 71
f 122 65 61
f 122 120 65
f 123 61 64
f 123 122 61
f 123 64 57
f 124 57 60
f 124 123 57
f 125 60 45
f 125 124 60
f 125 45 126
f 49 126 45
f 127 118 119
f 128 118 127
f 117 118 128
f 37 127 119
f 129 37 119
f 130 119 121
f 131 129 119
f 132 131 119
f 130 132 119
f 133 9 112
f 134 8 9
f 135 134 9
f 133 135 9
f 136 137 112
f 133 112 137
f 111 136 112
f 136 138 137
f 139 137 138
f 139 133 137
f 140 141 138
f 139 138 141
f 136 140 138
f 140 142 141
f 143 141 142
f 143 139 141
f 144 145 142
f 143 142 145
f 140 144 142
f 144 146 145
f 147 145 146
f 147 143 145
f 148 149 146
f 147 146 149
f 144 148 146
f 148 150 149
f 151 149 150
f 151 147 149
f 152 153 150
f 151 150 153
f 148 152 150
f 152 154 153
f 155 153 154
f 155 151 153
f 128 156 154
f 157 154 156
f 152 128 154
f 157 155 154
f 128 158 156
f 157 156 158
f 127 159 158
f 160 158 159
f 128 127 158
f 160 157 158
f 127 161 159
f 160 159 161
f 37 161 127
f 162 161 37
f 163 161 162
f 163 160 161
f 117 128 152
f 116 152 148
f 117 152 116
f 115 148 144
f 116 148 115
f 114 144 140
f 115 144 114
f 113 140 136
f 114 140 113
f 113 136 111
f 30 85 92
f 30 86 85
f 26 92 93
f 26 30 92
f 26 93 91
f 23 91 97
f 23 26 91
f 20 97 96
f 20 23 97
f 20 96 101
f 17 101 100
f 17 20 101
f 17 100 105
f 14 105 104
f 14 17 105
f 14 104 108
f 12 108 107
f 12 14 108
f 12 107 110
f 13 110 109
f 13 12 110
f 13 109 4
f 13 4 11
f 164 39 40
f 165 36 39
f 166 165 39
f 167 166 39
f 164 167 39
f 164 40 41
f 168 41 42
f 168 164 41
f 169 42 43
f 169 168 42
f 170 43 44
f 170 169 43
f 170 44 8
f 134 170 8
f 171 172 173
f 174 173 172
f 175 171 173
f 176 175 173
f 177 176 173
f 174 177 173
f 171 178 172
f 179 172 178
f 179 174 172
f 180 181 178
f 182 178 181
f 171 180 178
f 182 179 178
f 183 184 181
f 185 181 184
f 186 183 181
f 180 186 181
f 185 182 181
f 82 187 184
f 185 184 187
f 183 82 184
f 38 37 187
f 129 187 37
f 82 38 187
f 185 187 129
f 188 162 37
f 189 188 37
f 190 189 37
f 36 190 37
f 191 162 188
f 191 163 162
f 192 188 189
f 192 191 188
f 192 189 190
f 165 190 36
f 192 190 165
f 35 38 87
f 35 87 88
f 33 88 86
f 33 35 88
f 30 33 86
f 80 82 183
f 80 183 186
f 78 186 180
f 78 80 186
f 76 180 171
f 76 78 180
f 74 171 175
f 74 76 171
f 74 175 193
f 176 193 175
f 50 194 126
f 195 126 194
f 49 50 126
f 195 125 126
f 52 196 194
f 197 194 196
f 48 52 194
f 50 48 194
f 198 195 194
f 197 198 194
f 54 199 196
f 200 196 199
f 52 54 196
f 200 197 196
f 54 201 199
f 202 199 201
f 202 200 199
f 56 203 201
f 204 201 203
f 54 56 201
f 204 202 201
f 56 205 203
f 206 203 205
f 206 204 203
f 59 207 205
f 206 205 207
f 56 59 205
f 59 208 207
f 209 207 208
f 209 206 207
f 63 210 208
f 211 208 210
f 59 63 208
f 211 209 208
f 67 212 210
f 213 210 212
f 63 67 210
f 213 211 210
f 67 214 212
f 215 212 214
f 215 213 212
f 70 216 214
f 217 214 216
f 67 70 214
f 217 215 214
f 70 193 216
f 218 216 193
f 218 217 216
f 70 74 193
f 176 218 193
f 219 121 120
f 219 130 121
f 220 120 122
f 220 219 120
f 220 122 123
f 221 123 124
f 221 220 123
f 221 124 125
f 195 222 125
f 221 125 222
f 223 222 195
f 224 221 222
f 225 224 222
f 223 225 222
f 223 195 198
f 226 198 197
f 226 223 198
f 226 197 200
f 227 200 202
f 227 226 200
f 227 202 204
f 228 204 206
f 228 227 204
f 228 206 209
f 229 209 211
f 229 228 209
f 230 211 213
f 230 229 211
f 230 213 215
f 231 215 217
f 231 230 215
f 231 217 218
f 177 218 176
f 177 231 218
f 192 165 166
f 191 166 167
f 192 166 191
f 163 167 164
f 191 167 163
f 160 164 168
f 163 164 160
f 157 168 169
f 160 168 157
f 155 169 170
f 157 169 155
f 151 170 134
f 155 170 151
f 135 232 134
f 147 134 232
f 151 134 147
f 135 233 232
f 143 232 233
f 147 232 143
f 139 233 135
f 143 233 139
f 139 135 133
f 185 129 131
f 182 131 132
f 185 131 182
f 179 132 130
f 182 132 179
f 174 130 219
f 179 130 174
f 177 219 220
f 174 219 177
f 231 220 221
f 177 220 231
f 230 221 224
f 231 221 230
f 225 234 224
f 229 224 234
f 230 224 229
f 225 235 234
f 228 234 235
f 229 234 228
f 225 236 235
f 227 235 236
f 228 235 227
f 226 236 225
f 227 236 226
f 226 225 223

