# https://github.com/mikedh/trimesh

o ph_prossimal.stl
v 15.25718975 6.25000000 -7.14816856
v 15.50605774 6.25000000 0.00267496
v 15.52273369 6.25000000 -0.01536030
v 15.52273560 5.78339767 -0.01464534
v 16.35342598 6.25000000 -0.73431790
v 16.35402298 5.40702534 -0.73374331
v 15.49994659 6.25000000 0.02638338
v 15.50601578 5.25106096 0.00339351
v 15.52273560 5.25401163 -0.01471024
v 15.33173561 6.25000000 1.46927702
v 15.49994373 5.78169870 0.02709885
v 14.84782791 6.25000000 2.83767009
v 15.33155060 -6.25000000 1.47008574
v 15.49994373 -6.25000000 0.02701435
v 15.49994373 -5.72739458 0.02709235
v 15.49994373 5.25000000 0.02702526
v 13.77773666 6.25000000 -8.21115303
v 14.07246876 6.25000000 4.06447124
v 14.84752941 -6.25000000 2.83828449
v 13.04388332 6.25000000 5.08889771
v 14.07212734 -6.25000000 4.06489754
v 12.12345409 6.25000000 -8.97178841
v 11.81394482 6.25000000 5.85928059
v 13.04356194 -6.25000000 5.08915234
v 10.35326576 6.25000000 -9.40308666
v 10.44359207 6.25000000 6.33764076
v 11.81369877 -6.25000000 5.85939884
v 9.00000000 6.25000000 6.50000000
v 10.44345951 -6.25000000 6.33767128
v 0.00000000 6.25000000 -6.50000000
v 0.00000000 6.25000000 6.50000000
v 0.00000000 4.00000000 6.50000000
v 2.07179666 6.25000000 -6.50000000
v 3.44008851 6.25000000 -7.70299435
v 5.01302338 6.25000000 -8.62286472
v 6.73160791 6.25000000 -9.22514820
v 8.53458691 6.25000000 -9.48855877
v 9.00000000 -6.25000000 6.50000000
v 3.23564291 -2.35172582 6.50000000
v 1.23520112 3.80450773 6.50000000
v 3.80408478 -1.23650253 6.50000000
v 4.00000000 -0.00000000 6.50000000
v 3.80408478 1.23650253 6.50000000
v 3.23564291 2.35172582 6.50000000
v 2.35044885 3.23657060 6.50000000
v -1.55560803 6.25000000 -6.31101370
v -1.55560803 6.25000000 6.31101370
v -3.02047372 6.25000000 -5.75557470
v -3.02047372 6.25000000 5.75557470
v -1.71876526 3.61190701 6.26864004
v -0.59671479 3.95520830 6.47255230
v -1.17561305 3.82337499 6.39280319
v -4.31041431 6.25000000 -4.86510515
v -4.31041431 6.25000000 4.86510515
v -3.45000052 2.02373624 5.50885630
v -2.27395844 3.29076171 6.08926201
v -2.87364268 2.78293943 5.83028126
v -5.34915924 6.25000000 -3.69271827
v -5.34915924 6.25000000 3.69271827
v -4.31041431 -6.25000000 4.86510515
v -4.00000000 -0.00000000 5.12347555
v -3.86306262 1.03599429 5.22749901
v -6.07766485 6.25000000 -2.30458570
v -6.07766485 6.25000000 2.30458570
v -5.34915924 -6.25000000 3.69271827
v -6.45251274 6.25000000 -0.78388178
v -6.45251274 6.25000000 0.78388178
v -6.07766485 -6.25000000 2.30458570
v -6.45251274 -6.25000000 0.78388178
v -6.45251274 -6.25000000 -0.78388178
v -6.07766485 -6.25000000 -2.30458570
v -5.34915924 -6.25000000 -3.69271827
v -3.86245751 1.03824782 -5.22794628
v -4.31041431 -6.25000000 -4.86510515
v -4.00000000 -0.00000000 -5.12347555
v -2.87187862 2.78476000 -5.83115005
v -3.44856787 2.02618289 -5.50975323
v -1.17461550 3.82368159 -6.39298677
v -2.27226782 3.29192924 -6.08989334
v -1.71738994 3.61256123 -6.26901674
v 2.07179666 5.77898073 -6.50000000
v -0.00000000 4.00000000 -6.50000000
v -0.59615731 3.95529270 -6.47260332
v 5.01227999 5.77898073 -8.62253380
v 3.43981743 5.77898073 -7.70288038
v 6.73136759 5.77898073 -9.22514534
v 8.53386974 5.77898073 -9.48855782
v 10.35351181 5.77898073 -9.40308475
v 12.12338638 5.77898073 -8.97187042
v 13.77841759 5.77898073 -8.21076870
v 16.50648308 6.25000000 -5.82261992
v 15.25774956 5.77898073 -7.14776707
v 16.95820236 6.25000000 -1.65314806
v 17.05441284 6.25000000 -4.86930370
v 16.50700760 5.77898073 -5.82192755
v 16.50676537 6.01318121 -5.82223845
v 17.28953171 6.25000000 -2.70260382
v 17.32257271 6.25000000 -3.80243301
v 17.05594635 5.76339245 -4.86619377
v 17.32352257 5.71699286 -3.79645109
v 16.95984268 5.53743601 -1.65526915
v 17.29028320 5.64147091 -2.70407891
v 9.72968769 5.25000000 -6.45891285
v 9.00000000 5.25000000 -6.50000000
v 9.00000000 -5.25000000 -6.50000000
v 7.90539742 5.26611233 -6.50000000
v 1.23520112 3.80450773 -6.50000000
v 2.35044885 3.23657060 -6.50000000
v 3.23564291 2.35172582 -6.50000000
v 10.45014954 5.25000000 -6.33617115
v 9.76855659 -5.25000000 -6.45440340
v 11.15227890 5.25000000 -6.13332653
v 10.52633858 -5.25000000 -6.31825066
v 11.82719898 5.25000000 -5.85294342
v 11.26271439 -5.25000000 -6.09344912
v 12.46637726 5.25000000 -5.49856615
v 11.96734810 -5.25000000 -5.78315210
v 13.06173325 5.25000000 -5.07467508
v 12.63033867 -5.25000000 -5.39171934
v 13.60573959 5.25000000 -4.58662891
v 13.24248409 -5.25000000 -4.92456341
v 14.09151936 5.25000000 -4.04059792
v 13.79482365 -5.25000000 -4.38858366
v 14.51293087 5.25000000 -3.44348502
v 14.28046322 -5.25000000 -3.79034376
v 14.86464787 5.25000000 -2.80283880
v 14.69199181 -5.25000000 -3.13866615
v 15.14222240 5.25000000 -2.12675881
v 15.02127838 -5.25000000 -2.44830728
v 15.34214592 5.25000000 -1.42379153
v 15.25614357 -5.25000000 -1.76370752
v 15.46189117 5.25000000 -0.70282525
v 15.40327644 -5.25000000 -1.11716259
v 15.49994659 -5.25000000 0.02637958
v 6.82041883 5.31267262 -6.50000000
v 5.73793077 5.38619804 -6.50000000
v 4.03976202 5.54558372 -6.50000000
v 16.50665855 -6.25000000 -5.82235003
v 15.50605774 -6.25000000 0.00330619
v 15.25768089 -6.25000000 -7.14773369
v 15.52273560 -6.25000000 -0.01472712
v 15.50601673 -5.25106096 0.00274727
v 16.34999847 -6.25000000 -0.72949910
v 15.52273560 -5.72956610 -0.01464861
v 16.95250320 -6.25000000 -1.64039445
v 16.35394287 -5.40702105 -0.73428184
v 15.52273369 -5.25401163 -0.01535534
v 17.05584145 -6.25000000 -4.86609173
v 17.15571213 -6.25000000 -2.15167999
v 16.95982361 -5.53745174 -1.65580416
v 17.22718239 -6.25000000 -4.33829594
v 17.28814697 -6.25000000 -2.69226623
v 17.32356644 -6.25000000 -3.79557753
v 17.29023933 -5.64148426 -2.70446157
v 17.32347679 -5.71699858 -3.79663324
v 17.05592728 -5.76339436 -4.86624432
v 15.25777531 -5.77898073 -7.14774466
v 16.50700951 -5.77898073 -5.82192421
v 16.50703812 -6.01586485 -5.82188749
v 13.77814388 -6.25000000 -8.21091557
v 13.77844143 -5.77898073 -8.21075535
v 12.12372971 -6.25000000 -8.97169304
v 10.35337543 -6.25000000 -9.40307140
v 12.12340927 -5.77898073 -8.97186279
v 8.53453827 -6.25000000 -9.48855686
v 10.35353184 -5.77898073 -9.40308189
v 0.00000000 -6.25000000 6.50000000
v 6.73145008 -6.25000000 -9.22510910
v 8.53388596 -5.77898073 -9.48855782
v 5.01283455 -6.25000000 -8.62277794
v 6.73137903 -5.77898073 -9.22514820
v 3.43995786 -6.25000000 -7.70289993
v 5.01228762 -5.77898073 -8.62253761
v 2.07179666 -6.25000000 -6.50000000
v 3.43982053 -5.77898073 -7.70288277
v 0.00000000 -6.25000000 -6.50000000
v -0.00000000 -4.00000000 -6.50000000
v 2.07179666 -5.77898073 -6.50000000
v -1.55560803 -6.25000000 6.31101370
v -1.55560803 -6.25000000 -6.31101370
v -3.02047372 -6.25000000 5.75557470
v -3.02047372 -6.25000000 -5.75557470
v -1.72883189 -3.60710335 -6.26587105
v -0.60073119 -3.95459962 -6.47218084
v -1.18360186 -3.82090497 -6.39132881
v -3.45602536 -2.01343369 -5.50507832
v -2.28397727 -3.28381610 -6.08551121
v -2.88279676 -2.77344418 -5.82576036
v -3.86487794 -1.02922273 -5.22615719
v -3.86546779 -1.02700686 5.22572088
v -2.88454461 -2.77162600 5.82489491
v -3.45742965 -2.01101542 5.50419664
v -1.18463099 -3.82058597 6.39113855
v -2.28566456 -3.28264189 6.08487797
v -1.73022580 -3.60643482 6.26548624
v -0.60130602 -3.95451188 6.47212744
v 0.00000000 -4.00000000 6.50000000
v 1.23520112 -3.80450773 6.50000000
v 2.35044885 -3.23657060 6.50000000
v 0.00000000 3.99989104 11.69999981
v 1.23566949 3.80430865 11.69999981
v -1.23566949 3.80430865 11.69999981
v -2.35137773 3.23587847 11.69999981
v -3.23610568 2.35091805 11.69999981
v -3.80404353 1.23638117 11.69999981
v -4.00000000 -0.00000000 11.69999981
v -3.80404353 -1.23638117 11.69999981
v -3.23610568 -2.35091805 11.69999981
v -2.35137773 -3.23587847 11.69999981
v -1.23566949 -3.80430865 11.69999981
v 0.00000000 -3.99989104 11.69999981
v 0.00000000 -3.99989104 -12.80000019
v 1.23520112 -3.80450773 -6.50000000
v 1.23566949 -3.80430865 -12.80000019
v 4.02056074 -5.54763412 -6.50000000
v 5.71354580 -5.38813162 -6.50000000
v 6.80009174 -5.31381321 -6.50000000
v 7.89385891 -5.26644993 -6.50000000
v -1.23566949 -3.80430865 -12.80000019
v -2.35137773 -3.23587847 -12.80000019
v -3.23610568 -2.35091805 -12.80000019
v -3.80404353 -1.23638117 -12.80000019
v -4.00000000 -0.00000000 -12.80000019
v -3.80404353 1.23638117 -12.80000019
v -3.23610568 2.35091805 -12.80000019
v -2.35137773 3.23587847 -12.80000019
v -1.23566949 3.80430865 -12.80000019
v 0.00000000 3.99989104 -12.80000019
v 1.23566949 3.80430865 -12.80000019
v 2.35137773 3.23587847 -12.80000019
v 3.80408478 1.23650253 -6.50000000
v 3.23610568 2.35091805 -12.80000019
v 4.00000000 -0.00000000 -6.50000000
v 3.80404353 1.23638117 -12.80000019
v 3.80408478 -1.23650253 -6.50000000
v 4.00000000 0.00000000 -12.80000019
v 3.23564291 -2.35172582 -6.50000000
v 3.23610568 -2.35091805 -12.80000019
v 3.80404353 -1.23638117 -12.80000019
v 2.35044885 -3.23657060 -6.50000000
v 2.35137773 -3.23587847 -12.80000019
v 1.23566949 -3.80430865 11.69999981
v 2.35137773 -3.23587847 11.69999981
v 3.23610568 -2.35091805 11.69999981
v 3.80404353 -1.23638117 11.69999981
v 4.00000000 0.00000000 11.69999981
v 3.23610568 2.35091805 11.69999981
v 3.80404353 1.23638117 11.69999981
v 2.35137773 3.23587847 11.69999981
f 1 2 3
f 4 3 2
f 5 1 3
f 6 5 3
f 4 6 3
f 1 7 2
f 8 2 7
f 9 2 8
f 4 2 9
f 1 10 7
f 11 7 10
f 11 8 7
f 1 12 10
f 13 10 12
f 13 14 10
f 15 10 14
f 10 15 16
f 17 18 12
f 19 12 18
f 1 17 12
f 13 12 19
f 17 20 18
f 21 18 20
f 19 18 21
f 22 23 20
f 24 20 23
f 17 22 20
f 21 20 24
f 25 26 23
f 27 23 26
f 22 25 23
f 24 23 27
f 25 28 26
f 29 26 28
f 27 26 29
f 30 31 28
f 32 28 31
f 33 30 28
f 34 33 28
f 35 34 28
f 36 35 28
f 37 36 28
f 25 37 28
f 29 28 38
f 39 38 28
f 40 28 32
f 41 39 28
f 42 41 28
f 43 42 28
f 44 43 28
f 45 44 28
f 40 45 28
f 46 47 31
f 32 31 47
f 30 46 31
f 48 49 47
f 50 47 49
f 46 48 47
f 51 32 47
f 52 51 47
f 50 52 47
f 53 54 49
f 55 49 54
f 48 53 49
f 56 50 49
f 57 56 49
f 55 57 49
f 58 59 54
f 60 54 59
f 53 58 54
f 61 54 60
f 62 55 54
f 61 62 54
f 63 64 59
f 65 59 64
f 58 63 59
f 60 59 65
f 66 67 64
f 68 64 67
f 63 66 64
f 65 64 68
f 69 67 66
f 68 67 69
f 70 66 63
f 69 66 70
f 71 63 58
f 70 63 71
f 72 58 53
f 71 58 72
f 73 53 48
f 72 53 74
f 75 74 53
f 73 75 53
f 76 48 46
f 77 73 48
f 76 77 48
f 78 46 30
f 79 76 46
f 80 79 46
f 78 80 46
f 81 30 33
f 82 30 81
f 83 78 30
f 82 83 30
f 81 33 34
f 84 34 35
f 85 34 84
f 81 34 85
f 86 35 36
f 84 35 86
f 87 36 37
f 86 36 87
f 88 37 25
f 87 37 88
f 88 25 22
f 89 22 17
f 88 22 89
f 90 17 1
f 89 17 90
f 5 91 1
f 92 1 91
f 90 1 92
f 93 94 91
f 94 95 96
f 5 93 91
f 96 91 94
f 96 92 91
f 97 98 94
f 99 94 98
f 93 97 94
f 95 94 99
f 100 98 97
f 99 98 100
f 101 97 93
f 102 97 101
f 100 97 102
f 6 93 5
f 101 93 6
f 88 103 104
f 105 104 103
f 87 88 104
f 106 87 104
f 82 106 104
f 107 82 104
f 108 107 104
f 109 108 104
f 105 109 104
f 88 110 103
f 111 103 110
f 111 105 103
f 89 112 110
f 113 110 112
f 88 89 110
f 113 111 110
f 90 114 112
f 115 112 114
f 89 90 112
f 115 113 112
f 90 116 114
f 117 114 116
f 117 115 114
f 92 118 116
f 119 116 118
f 90 92 116
f 119 117 116
f 92 120 118
f 121 118 120
f 121 119 118
f 95 122 120
f 123 120 122
f 92 95 120
f 123 121 120
f 95 124 122
f 125 122 124
f 125 123 122
f 99 126 124
f 127 124 126
f 95 99 124
f 127 125 124
f 100 128 126
f 129 126 128
f 99 100 126
f 129 127 126
f 102 130 128
f 131 128 130
f 100 102 128
f 131 129 128
f 101 132 130
f 133 130 132
f 102 101 130
f 133 131 130
f 8 16 132
f 134 132 16
f 9 8 132
f 6 9 132
f 101 6 132
f 134 133 132
f 11 16 8
f 16 11 10
f 4 9 6
f 96 95 92
f 106 86 87
f 135 84 86
f 106 135 86
f 136 85 84
f 135 136 84
f 137 81 85
f 136 137 85
f 82 81 137
f 82 137 136
f 82 136 135
f 82 135 106
f 138 139 14
f 15 14 139
f 140 138 14
f 13 140 14
f 138 141 139
f 142 139 141
f 15 139 134
f 142 134 139
f 138 143 141
f 144 141 143
f 144 142 141
f 138 145 143
f 146 143 145
f 146 147 143
f 144 143 147
f 148 149 145
f 150 145 149
f 138 148 145
f 146 145 150
f 151 152 149
f 150 149 152
f 148 151 149
f 151 153 152
f 154 152 153
f 150 152 154
f 155 153 151
f 154 153 155
f 155 151 148
f 156 148 138
f 155 148 156
f 157 138 140
f 158 138 157
f 159 138 158
f 159 156 138
f 21 160 140
f 161 140 160
f 19 21 140
f 13 19 140
f 157 140 161
f 24 162 160
f 161 160 162
f 21 24 160
f 29 163 162
f 164 162 163
f 27 29 162
f 24 27 162
f 161 162 164
f 38 165 163
f 166 163 165
f 29 38 163
f 164 163 166
f 167 168 165
f 169 165 168
f 38 167 165
f 166 165 169
f 167 170 168
f 171 168 170
f 169 168 171
f 167 172 170
f 173 170 172
f 171 170 173
f 167 174 172
f 175 172 174
f 173 172 175
f 167 176 174
f 177 174 176
f 178 174 177
f 175 174 178
f 179 180 176
f 177 176 180
f 167 179 176
f 181 182 180
f 183 180 182
f 179 181 180
f 184 177 180
f 185 184 180
f 183 185 180
f 60 74 182
f 186 182 74
f 181 60 182
f 187 183 182
f 188 187 182
f 186 188 182
f 65 72 74
f 60 65 74
f 189 186 74
f 75 189 74
f 68 71 72
f 65 68 72
f 69 70 71
f 68 69 71
f 190 60 181
f 190 61 60
f 191 181 179
f 192 190 181
f 191 192 181
f 193 179 167
f 194 191 179
f 195 194 179
f 193 195 179
f 39 167 38
f 196 193 167
f 197 196 167
f 198 197 167
f 199 198 167
f 39 199 167
f 200 32 51
f 201 40 32
f 201 32 200
f 200 51 52
f 202 52 50
f 200 52 202
f 202 50 56
f 203 56 57
f 202 56 203
f 204 57 55
f 203 57 204
f 205 55 62
f 204 55 205
f 205 62 61
f 206 61 190
f 205 61 206
f 207 190 192
f 207 206 190
f 208 192 191
f 207 192 208
f 209 191 194
f 208 191 209
f 209 194 195
f 210 195 193
f 209 195 210
f 210 193 196
f 210 196 197
f 211 197 198
f 210 197 211
f 212 177 184
f 105 177 213
f 214 213 177
f 215 178 177
f 216 215 177
f 217 216 177
f 218 217 177
f 105 218 177
f 214 177 212
f 212 184 185
f 219 185 183
f 212 185 219
f 219 183 187
f 220 187 188
f 219 187 220
f 221 188 186
f 220 188 221
f 222 186 189
f 221 186 222
f 222 189 75
f 223 75 73
f 222 75 223
f 224 73 77
f 224 223 73
f 225 77 76
f 224 77 225
f 226 76 79
f 225 76 226
f 226 79 80
f 227 80 78
f 226 80 227
f 227 78 83
f 227 83 82
f 228 82 107
f 227 82 228
f 229 107 108
f 228 107 229
f 230 108 109
f 229 108 230
f 105 231 109
f 232 109 231
f 230 109 232
f 105 233 231
f 234 231 233
f 232 231 234
f 105 235 233
f 236 233 235
f 234 233 236
f 105 237 235
f 238 235 237
f 239 235 238
f 236 235 239
f 105 240 237
f 241 237 240
f 238 237 241
f 105 213 240
f 214 240 213
f 241 240 214
f 175 178 215
f 175 215 216
f 173 216 217
f 173 175 216
f 171 217 218
f 171 173 217
f 169 218 105
f 169 171 218
f 169 105 111
f 242 198 199
f 211 198 242
f 243 199 39
f 242 199 243
f 244 39 41
f 243 39 244
f 245 41 42
f 244 41 245
f 246 42 43
f 245 42 246
f 247 43 44
f 248 43 247
f 246 43 248
f 249 44 45
f 247 44 249
f 201 45 40
f 249 45 201
f 15 134 16
f 166 111 113
f 166 169 111
f 164 113 115
f 164 166 113
f 164 115 117
f 161 117 119
f 161 164 117
f 161 119 121
f 157 121 123
f 157 161 121
f 158 123 125
f 158 157 123
f 156 125 127
f 156 158 125
f 155 127 129
f 155 156 127
f 154 129 131
f 154 155 129
f 150 131 133
f 150 154 131
f 142 133 134
f 142 147 133
f 146 133 147
f 146 150 133
f 144 147 142
f 159 158 156
f 248 205 206
f 246 248 206
f 207 246 206
f 247 204 205
f 248 247 205
f 249 203 204
f 247 249 204
f 201 202 203
f 249 201 203
f 201 200 202
f 207 245 246
f 208 244 245
f 207 208 245
f 209 243 244
f 208 209 244
f 210 242 243
f 209 210 243
f 210 211 242
f 239 222 223
f 236 239 223
f 224 236 223
f 238 221 222
f 239 238 222
f 241 220 221
f 238 241 221
f 214 219 220
f 241 214 220
f 214 212 219
f 224 234 236
f 225 232 234
f 224 225 234
f 226 230 232
f 225 226 232
f 227 229 230
f 226 227 230
f 227 228 229

