# https://github.com/mikedh/trimesh

o ph_short_collision.stl
v -6.49999952 -0.00000027 6.25000000
v -6.43469143 8.59289837 6.25000048
v -7.33099079 -3.32251954 3.24999976
v 7.97826529 -6.00000048 6.74999952
v -6.61679840 -4.92752218 3.24999976
v -4.17020035 -4.96985149 5.24968624
v -5.72066498 -5.94441557 3.24999976
v 17.75056076 6.65081024 -6.24999952
v 16.12923241 -0.70373797 -6.75000000
v -3.74509645 8.66890240 -6.24999952
v -4.74321890 8.73912430 -6.24999952
v -6.43469143 8.59289837 -6.24999952
v -7.28943491 -1.56936193 -3.25000000
v 7.99999952 -9.44722176 6.74999952
v 0.46549198 -8.23685741 5.24968576
v -0.88946295 -8.20188713 3.24999952
v 0.46549198 -8.23685741 -5.24968672
v -4.17020035 -4.96985149 -5.24968624
v 7.99999952 -9.44722176 -6.75000048
v -3.49246740 -7.47421217 -3.25000024
v -2.22085261 -7.94539261 -3.25000024
v -0.88946295 -8.20188713 -3.25000048
v -4.66972971 -6.80110836 -3.25000024
v -5.72066498 -5.94441557 -3.25000024
v -4.66972971 -6.80110836 3.24999976
v -2.22085261 -7.94539261 3.24999976
v -5.61849594 -3.24384046 5.24968624
v -3.74509645 8.66890240 6.25000048
v 16.13887596 -0.70712304 6.75000000
v 17.75056076 6.65080929 6.25000048
v -4.74321890 8.73912430 6.25000048
v 17.75056076 4.24000692 -6.25000000
v 17.27587891 -2.62543774 -6.75000000
v 15.58257580 -0.67366594 -6.75000000
v -7.28942633 -1.56932819 3.25000000
v -6.49999952 0.00000027 -6.25000000
v 7.97826529 -5.99999952 -6.75000048
v -6.61679840 -4.92752218 -3.25000024
v 16.94378471 -5.11925030 -5.25000000
v 16.50701523 -5.82201099 -5.25000048
v 16.50632668 -5.82280111 -6.75000048
v 16.95153999 -5.10272932 -6.25000000
v 16.94364166 -5.11882210 5.25000000
v 16.50644302 -5.82265282 6.24999952
v 17.75056076 4.24000168 6.25000000
v 17.23505974 -4.30598736 -6.25000000
v 16.50632668 -5.82280207 6.74999952
v 14.80138016 -7.52282143 5.24999952
v 14.80105686 -7.52307367 6.74999952
v 14.80118370 -7.52297974 -5.25000048
v 14.80105686 -7.52307272 -6.75000048
v -3.49246740 -7.47421217 3.24999976
v 17.27588463 -2.62546825 6.75000000
v 17.23493576 -4.30619764 6.75000000
v 15.10441208 -0.93352377 6.75000000
v 16.62197876 -1.07515562 -6.75000000
v 17.23494339 -4.30616713 -6.75000000
v -5.54749203 8.69361782 -6.24999952
v 15.10197639 -0.93590832 -6.75000000
v -7.33098364 -3.32255340 -3.25000024
v -5.61849594 -3.24383998 -5.24968624
v 16.50652885 -5.82254362 5.75182962
v 17.22641373 -4.34217691 -5.25000000
v 16.95139503 -5.10303497 6.25000000
v 10.40752029 -9.39509296 -6.75000048
v 10.40761852 -9.39507866 5.24999952
v 10.40752029 -9.39509296 6.74999952
v 12.72382545 -8.73963070 6.74999952
v 12.72382545 -8.73963070 -6.75000048
v 12.72405529 -8.73953247 5.24999952
v 15.58922005 -0.67219079 6.75000000
v -5.14599848 8.72773838 6.25000048
v -5.54749203 8.69361782 6.25000048
v 16.62197876 -1.07515609 6.75000000
v 16.57907677 -1.01834059 -6.75000000
v -5.14599848 8.72773838 -6.24999952
v 17.23500061 -4.30623579 6.25000000
v 17.22600746 -4.34197330 5.25000000
v 10.40757847 -9.39508438 -5.25000048
v 12.72393322 -8.73958492 -5.25000048
v 16.58762932 -1.02901375 6.75000000
v 16.60103416 -1.04636621 -6.75000000
v 16.60513687 -1.05183792 6.75000000
f 1 2 3
f 1 4 2
f 3 5 1
f 6 5 7
f 8 9 10
f 9 11 10
f 12 13 2
f 14 4 1
f 14 6 15
f 6 14 1
f 16 14 15
f 17 18 19
f 20 17 21
f 22 17 19
f 17 22 21
f 17 20 23
f 18 23 24
f 17 23 18
f 6 25 15
f 7 25 6
f 16 15 26
f 1 27 6
f 5 27 1
f 5 6 27
f 28 29 30
f 29 28 31
f 32 33 8
f 9 34 11
f 2 35 3
f 13 3 35
f 13 35 2
f 36 12 37
f 36 37 19
f 18 36 19
f 24 38 18
f 39 40 41
f 41 42 39
f 39 43 44
f 32 45 46
f 43 47 44
f 48 47 49
f 41 47 48
f 47 40 44
f 40 47 41
f 41 50 51
f 48 50 41
f 51 50 49
f 49 50 48
f 25 52 15
f 26 15 52
f 30 53 45
f 45 53 54
f 4 55 2
f 33 56 8
f 42 41 57
f 32 46 57
f 57 33 32
f 34 12 58
f 12 59 37
f 34 59 12
f 60 13 12
f 36 60 12
f 38 60 36
f 13 60 3
f 38 5 60
f 5 3 60
f 36 18 61
f 38 61 18
f 36 61 38
f 44 62 39
f 40 62 44
f 39 62 40
f 57 46 63
f 57 63 42
f 42 64 39
f 43 39 64
f 63 64 42
f 47 64 54
f 47 43 64
f 65 66 67
f 68 67 66
f 68 66 69
f 70 51 49
f 68 70 49
f 71 29 31
f 72 71 31
f 73 71 72
f 2 71 73
f 55 71 2
f 53 30 74
f 9 8 75
f 34 76 11
f 58 76 34
f 77 63 46
f 45 77 46
f 45 54 77
f 64 78 54
f 78 64 63
f 77 54 78
f 77 78 63
f 69 79 65
f 66 79 69
f 65 79 66
f 51 80 69
f 70 80 51
f 69 80 68
f 70 68 80
f 29 81 30
f 56 82 8
f 75 8 82
f 74 30 83
f 81 83 30
f 31 28 11
f 11 28 10
f 8 28 30
f 10 28 8
f 14 65 67
f 14 19 65
f 14 22 19
f 22 14 16
f 23 25 24
f 25 7 24
f 16 26 22
f 22 26 21
f 7 38 24
f 5 38 7
f 30 45 8
f 45 32 8
f 52 25 23
f 23 20 52
f 26 52 21
f 20 21 52
f 73 58 2
f 2 58 12
f 11 76 31
f 72 31 76
f 58 73 76
f 72 76 73
f 65 82 69
f 37 82 19
f 51 69 82
f 34 9 82
f 51 82 41
f 65 19 82
f 56 33 82
f 57 82 33
f 82 59 34
f 57 41 82
f 59 82 37
f 75 82 9
f 14 83 4
f 83 14 67
f 47 83 49
f 68 49 83
f 55 83 71
f 54 83 47
f 68 83 67
f 53 83 54
f 4 83 55
f 71 83 29
f 74 83 53
f 29 83 81

