# https://github.com/mikedh/trimesh

o ph_short.stl
v 15.25718975 -7.14816856 -6.25000000
v 15.50605774 0.00267496 -6.25000000
v 15.52273369 -0.01536030 -6.25000000
v 15.52273560 -0.01464534 -5.78339767
v 16.35342598 -0.73431790 -6.25000000
v 16.35402298 -0.73374331 -5.40702534
v 15.49994659 0.02638338 -6.25000000
v 15.50601578 0.00339351 -5.25106096
v 15.52273560 -0.01471024 -5.25401163
v 15.33173561 1.46927702 -6.25000000
v 15.49994373 0.02709885 -5.78169870
v 14.84782791 2.83767009 -6.25000000
v 15.33155060 1.47008574 6.25000000
v 15.49994373 0.02701435 6.25000000
v 15.49994373 0.02709235 5.72739458
v 15.49994373 0.02702526 -5.25000000
v 13.77773666 -8.21115303 -6.25000000
v 14.07246876 4.06447124 -6.25000000
v 14.84752941 2.83828449 6.25000000
v 13.04388332 5.08889771 -6.25000000
v 14.07212734 4.06489754 6.25000000
v 12.12345409 -8.97178841 -6.25000000
v 11.81394482 5.85928059 -6.25000000
v 13.04356194 5.08915234 6.25000000
v 10.35326576 -9.40308666 -6.25000000
v 10.44359207 6.33764076 -6.25000000
v 11.81369877 5.85939884 6.25000000
v 9.00000000 6.50000000 -6.25000000
v 10.44345951 6.33767128 6.25000000
v 0.00000000 -6.50000000 -6.25000000
v 0.00000000 6.50000000 -6.25000000
v 0.00000000 6.50000000 6.25000000
v 2.07179666 -6.50000000 -6.25000000
v 3.44008851 -7.70299435 -6.25000000
v 5.01302338 -8.62286472 -6.25000000
v 6.73160791 -9.22514820 -6.25000000
v 8.53458691 -9.48855877 -6.25000000
v 9.00000000 6.50000000 6.25000000
v -1.55560803 -6.31101370 -6.25000000
v -1.55560803 6.31101370 -6.25000000
v -3.02047372 -5.75557470 -6.25000000
v -3.02047372 5.75557470 -6.25000000
v -1.55560803 6.31101370 6.25000000
v -4.31041431 -4.86510515 -6.25000000
v -4.31041431 4.86510515 -6.25000000
v -3.02047372 5.75557470 6.25000000
v -5.34915924 -3.69271827 -6.25000000
v -5.34915924 3.69271827 -6.25000000
v -4.31041431 4.86510515 6.25000000
v -6.07766485 -2.30458570 -6.25000000
v -6.07766485 2.30458570 -6.25000000
v -5.34915924 3.69271827 6.25000000
v -6.45251274 -0.78388178 -6.25000000
v -6.45251274 0.78388178 -6.25000000
v -6.07766485 2.30458570 6.25000000
v -6.45251274 0.78388178 6.25000000
v -6.45251274 -0.78388178 6.25000000
v -6.07766485 -2.30458570 6.25000000
v -5.34915924 -3.69271827 6.25000000
v -4.31041431 -4.86510515 6.25000000
v -3.02047372 -5.75557470 6.25000000
v -1.55560803 -6.31101370 6.25000000
v 2.07179666 -6.50000000 -5.77898073
v 9.00000000 -6.50000000 5.25000000
v 0.00000000 -6.50000000 6.25000000
v 2.07179666 -6.50000000 6.25000000
v 2.07179666 -6.50000000 5.77898073
v 4.02056074 -6.50000000 5.54763412
v 5.71354580 -6.50000000 5.38813162
v 6.80009174 -6.50000000 5.31381321
v 7.89385891 -6.50000000 5.26644993
v 5.01227999 -8.62253380 -5.77898073
v 3.43981743 -7.70288038 -5.77898073
v 6.73136759 -9.22514534 -5.77898073
v 8.53386974 -9.48855782 -5.77898073
v 10.35351181 -9.40308475 -5.77898073
v 12.12338638 -8.97187042 -5.77898073
v 13.77841759 -8.21076870 -5.77898073
v 16.50648308 -5.82261992 -6.25000000
v 15.25774956 -7.14776707 -5.77898073
v 16.95820236 -1.65314806 -6.25000000
v 17.05441284 -4.86930370 -6.25000000
v 16.50700760 -5.82192755 -5.77898073
v 16.50676537 -5.82223845 -6.01318121
v 17.28953171 -2.70260382 -6.25000000
v 17.32257271 -3.80243301 -6.25000000
v 17.05594635 -4.86619377 -5.76339245
v 17.32352257 -3.79645109 -5.71699286
v 16.95984268 -1.65526915 -5.53743601
v 17.29028320 -2.70407891 -5.64147091
v 9.72968769 -6.45891285 -5.25000000
v 9.00000000 -6.50000000 -5.25000000
v 7.90539742 -6.50000000 -5.26611233
v 10.45014954 -6.33617115 -5.25000000
v 9.76855659 -6.45440340 5.25000000
v 11.15227890 -6.13332653 -5.25000000
v 10.52633858 -6.31825066 5.25000000
v 11.82719898 -5.85294342 -5.25000000
v 11.26271439 -6.09344912 5.25000000
v 12.46637726 -5.49856615 -5.25000000
v 11.96734810 -5.78315210 5.25000000
v 13.06173325 -5.07467508 -5.25000000
v 12.63033867 -5.39171934 5.25000000
v 13.60573959 -4.58662891 -5.25000000
v 13.24248409 -4.92456341 5.25000000
v 14.09151936 -4.04059792 -5.25000000
v 13.79482365 -4.38858366 5.25000000
v 14.51293087 -3.44348502 -5.25000000
v 14.28046322 -3.79034376 5.25000000
v 14.86464787 -2.80283880 -5.25000000
v 14.69199181 -3.13866615 5.25000000
v 15.14222240 -2.12675881 -5.25000000
v 15.02127838 -2.44830728 5.25000000
v 15.34214592 -1.42379153 -5.25000000
v 15.25614357 -1.76370752 5.25000000
v 15.46189117 -0.70282525 -5.25000000
v 15.40327644 -1.11716259 5.25000000
v 15.49994659 0.02637958 5.25000000
v 6.82041883 -6.50000000 -5.31267262
v 5.73793077 -6.50000000 -5.38619804
v 4.03976202 -6.50000000 -5.54558372
v 16.50665855 -5.82235003 6.25000000
v 15.50605774 0.00330619 6.25000000
v 15.25768089 -7.14773369 6.25000000
v 15.52273560 -0.01472712 6.25000000
v 15.50601673 0.00274727 5.25106096
v 16.34999847 -0.72949910 6.25000000
v 15.52273560 -0.01464861 5.72956610
v 16.95250320 -1.64039445 6.25000000
v 16.35394287 -0.73428184 5.40702105
v 15.52273369 -0.01535534 5.25401163
v 17.05584145 -4.86609173 6.25000000
v 17.15571213 -2.15167999 6.25000000
v 16.95982361 -1.65580416 5.53745174
v 17.22718239 -4.33829594 6.25000000
v 17.28814697 -2.69226623 6.25000000
v 17.32356644 -3.79557753 6.25000000
v 17.34403801 -3.24599671 6.25000000
v 17.29023933 -2.70446157 5.64148426
v 17.32347679 -3.79663324 5.71699858
v 17.05592728 -4.86624432 5.76339436
v 15.25777531 -7.14774466 5.77898073
v 16.50700951 -5.82192421 5.77898073
v 16.50703812 -5.82188749 6.01586485
v 13.77814388 -8.21091557 6.25000000
v 13.77844143 -8.21075535 5.77898073
v 12.12372971 -8.97169304 6.25000000
v 10.35337543 -9.40307140 6.25000000
v 12.12340927 -8.97186279 5.77898073
v 8.53453827 -9.48855686 6.25000000
v 10.35353184 -9.40308189 5.77898073
v 6.73145008 -9.22510910 6.25000000
v 8.53388596 -9.48855782 5.77898073
v 5.01283455 -8.62277794 6.25000000
v 6.73137903 -9.22514820 5.77898073
v 3.43995786 -7.70289993 6.25000000
v 5.01228762 -8.62253761 5.77898073
v 3.43982053 -7.70288277 5.77898073
f 1 2 3
f 4 3 2
f 5 1 3
f 6 5 3
f 4 6 3
f 1 7 2
f 8 2 7
f 9 2 8
f 4 2 9
f 1 10 7
f 11 7 10
f 11 8 7
f 1 12 10
f 13 10 12
f 13 14 10
f 15 10 14
f 10 15 16
f 17 18 12
f 19 12 18
f 1 17 12
f 13 12 19
f 17 20 18
f 21 18 20
f 19 18 21
f 22 23 20
f 24 20 23
f 17 22 20
f 21 20 24
f 25 26 23
f 27 23 26
f 22 25 23
f 24 23 27
f 25 28 26
f 29 26 28
f 27 26 29
f 30 31 28
f 32 28 31
f 33 30 28
f 34 33 28
f 35 34 28
f 36 35 28
f 37 36 28
f 25 37 28
f 38 28 32
f 29 28 38
f 39 40 31
f 32 31 40
f 30 39 31
f 41 42 40
f 43 40 42
f 39 41 40
f 32 40 43
f 44 45 42
f 46 42 45
f 41 44 42
f 43 42 46
f 47 48 45
f 49 45 48
f 44 47 45
f 46 45 49
f 50 51 48
f 52 48 51
f 47 50 48
f 49 48 52
f 53 54 51
f 55 51 54
f 50 53 51
f 52 51 55
f 56 54 53
f 55 54 56
f 57 53 50
f 56 53 57
f 58 50 47
f 57 50 58
f 59 47 44
f 58 47 59
f 60 44 41
f 59 44 60
f 61 41 39
f 60 41 61
f 62 39 30
f 61 39 62
f 63 30 33
f 64 30 63
f 65 30 66
f 67 66 30
f 62 30 65
f 68 67 30
f 69 68 30
f 70 69 30
f 71 70 30
f 64 71 30
f 63 33 34
f 72 34 35
f 73 34 72
f 63 34 73
f 74 35 36
f 72 35 74
f 75 36 37
f 74 36 75
f 76 37 25
f 75 37 76
f 76 25 22
f 77 22 17
f 76 22 77
f 78 17 1
f 77 17 78
f 5 79 1
f 80 1 79
f 78 1 80
f 81 82 79
f 82 83 84
f 5 81 79
f 84 79 82
f 84 80 79
f 85 86 82
f 87 82 86
f 81 85 82
f 83 82 87
f 88 86 85
f 87 86 88
f 89 85 81
f 90 85 89
f 88 85 90
f 6 81 5
f 89 81 6
f 76 91 92
f 64 92 91
f 75 76 92
f 93 75 92
f 64 93 92
f 76 94 91
f 95 91 94
f 95 64 91
f 77 96 94
f 97 94 96
f 76 77 94
f 97 95 94
f 78 98 96
f 99 96 98
f 77 78 96
f 99 97 96
f 78 100 98
f 101 98 100
f 101 99 98
f 80 102 100
f 103 100 102
f 78 80 100
f 103 101 100
f 80 104 102
f 105 102 104
f 105 103 102
f 83 106 104
f 107 104 106
f 80 83 104
f 107 105 104
f 83 108 106
f 109 106 108
f 109 107 106
f 87 110 108
f 111 108 110
f 83 87 108
f 111 109 108
f 88 112 110
f 113 110 112
f 87 88 110
f 113 111 110
f 90 114 112
f 115 112 114
f 88 90 112
f 115 113 112
f 89 116 114
f 117 114 116
f 90 89 114
f 117 115 114
f 8 16 116
f 118 116 16
f 9 8 116
f 6 9 116
f 89 6 116
f 118 117 116
f 11 16 8
f 16 11 10
f 4 9 6
f 84 83 80
f 93 74 75
f 119 72 74
f 93 119 74
f 120 73 72
f 119 120 72
f 121 63 73
f 120 121 73
f 64 63 121
f 64 121 120
f 64 120 119
f 64 119 93
f 122 123 14
f 15 14 123
f 124 122 14
f 13 124 14
f 122 125 123
f 126 123 125
f 15 123 118
f 126 118 123
f 122 127 125
f 128 125 127
f 128 126 125
f 122 129 127
f 130 127 129
f 130 131 127
f 128 127 131
f 132 133 129
f 134 129 133
f 122 132 129
f 130 129 134
f 135 136 133
f 134 133 136
f 132 135 133
f 137 138 136
f 139 136 138
f 135 137 136
f 134 136 139
f 139 138 137
f 140 137 135
f 139 137 140
f 140 135 132
f 141 132 122
f 140 132 141
f 142 122 124
f 143 122 142
f 144 122 143
f 144 141 122
f 21 145 124
f 146 124 145
f 19 21 124
f 13 19 124
f 142 124 146
f 24 147 145
f 146 145 147
f 21 24 145
f 29 148 147
f 149 147 148
f 27 29 147
f 24 27 147
f 146 147 149
f 38 150 148
f 151 148 150
f 29 38 148
f 149 148 151
f 32 152 150
f 153 150 152
f 38 32 150
f 151 150 153
f 32 154 152
f 155 152 154
f 153 152 155
f 32 156 154
f 157 154 156
f 155 154 157
f 32 66 156
f 158 156 66
f 157 156 158
f 32 65 66
f 158 66 67
f 43 62 65
f 32 43 65
f 46 61 62
f 43 46 62
f 49 60 61
f 46 49 61
f 52 59 60
f 49 52 60
f 55 58 59
f 52 55 59
f 56 57 58
f 55 56 58
f 158 67 68
f 158 68 69
f 157 69 70
f 157 158 69
f 155 70 71
f 155 157 70
f 153 71 64
f 153 155 71
f 153 64 95
f 15 118 16
f 151 95 97
f 151 153 95
f 149 97 99
f 149 151 97
f 149 99 101
f 146 101 103
f 146 149 101
f 146 103 105
f 142 105 107
f 142 146 105
f 143 107 109
f 143 142 107
f 141 109 111
f 141 143 109
f 140 111 113
f 140 141 111
f 139 113 115
f 139 140 113
f 134 115 117
f 134 139 115
f 126 117 118
f 126 131 117
f 130 117 131
f 130 134 117
f 128 131 126
f 144 143 141

