# https://github.com/mikedh/trimesh

o ph_thumb_l.stl
v 15.01743603 0.36798975 -5.62222147
v 15.01747131 -4.59351110 -3.36700273
v 16.50000000 -4.66227007 -3.51827312
v 9.00000000 -5.50606680 -5.37462616
v 16.50000000 0.29922709 -5.77349949
v 22.20047569 -4.66227007 -3.51827312
v 13.60926151 -4.39087915 -2.92121243
v 13.60920620 0.57062930 -5.17641449
v 12.34546471 -4.06488657 -2.20402884
v 12.34540749 0.89662969 -4.45921373
v 11.28806400 -3.63195372 -1.25157666
v 11.28801727 1.32956731 -3.50675082
v 10.48688412 -3.11247802 -0.10873059
v 10.48685741 1.84904182 -2.36390686
v 9.98227024 -2.53193116 1.16847265
v 9.80037689 3.04229140 0.26124215
v 9.80037689 -1.91920590 2.51646829
v 9.98226166 2.42958093 -1.08672106
v 9.30407524 3.37085390 0.98407984
v 9.00000000 -1.73586071 2.91982770
v 9.30407524 -1.59064329 3.23930597
v 9.72279453 5.16016102 4.92055511
v 10.04755116 2.74730778 -0.38772169
v 11.15065670 1.54384255 -3.03534532
v 10.42228222 2.11805487 -1.77207828
v 12.19011688 1.05829239 -4.10355568
v 13.47884369 0.69021088 -4.91333485
v 14.94478512 0.46016556 -5.41943455
v 22.20047569 0.29922709 -5.77349949
v 16.50000000 0.38198769 -5.59142590
v 12.75491810 -5.47700882 -5.31069851
v 11.75680256 -5.50606680 -5.37462616
v 7.00000000 5.87351418 -10.54716301
v 12.75491810 5.90257215 -10.48323536
v 11.75680256 5.87351418 -10.54716301
v 9.00000000 -9.50000000 -3.55920196
v 21.49020576 -4.72475147 -3.65573168
v 20.77346039 -4.77293539 -3.76173687
v 17.22653961 -5.02920532 -4.32553005
v 13.73338127 -5.39042950 -5.12022400
v 7.00000000 -1.73586071 2.91982770
v -5.08072805 -2.10606861 2.91982770
v 9.00000000 -9.50000000 2.91982770
v 7.00000000 -9.50000000 2.91982770
v 7.00000000 -5.50000000 2.91982770
v 0.00000000 -5.50000000 2.91982770
v -0.72029763 -5.45256758 2.91982770
v -1.42530942 -5.31198788 2.91982770
v -2.10611200 -5.08070993 2.91982770
v -2.75134850 -4.76235533 2.91982770
v -3.34919000 -4.36258459 2.91982770
v -3.88902497 -3.88898063 2.91982770
v -4.36262131 -3.34914160 2.91982770
v -4.76238298 -2.75130033 2.91982770
v 9.26813507 -0.11996105 6.47480679
v 7.00000000 1.52408385 10.09170532
v 7.00000000 6.81913519 2.91982770
v 8.98659039 -0.47146520 5.70149803
v 8.89134598 -0.83938456 4.89207506
v 8.99578762 -1.22443390 4.04496670
v -5.31199694 -1.42527592 2.91982770
v 10.65334034 0.63469231 8.13504410
v 12.84486675 1.52408385 10.09170532
v 12.84486675 12.90366459 4.91916895
v 9.72279453 0.19866361 7.17578125
v 7.00000000 12.90366459 4.91916895
v 13.00024986 1.50609350 10.05212688
v 11.74622631 1.00101495 8.94095421
v 13.11008358 1.45793092 9.94616890
v 13.00026321 12.88567066 4.87958288
v 13.14437485 1.39311123 9.80356598
v 13.11009502 12.83750343 4.77361345
v 13.09321022 1.33036220 9.66551781
v 13.14437389 12.77268219 4.63100767
v 12.97018528 1.28715205 9.57045555
v 13.09320164 12.70993805 4.49296951
v 12.97018528 12.66673279 4.39791918
v 11.74622631 12.38059616 3.76841736
v 10.36855602 5.47774076 5.61923122
v 11.10069466 5.76142597 6.24333811
v 9.26813507 4.84153605 4.21958113
v 8.98659039 4.49003220 3.44627166
v 8.89134598 4.12211275 2.63684916
v 8.99578762 3.73706341 1.78974068
v 21.49020576 6.65482950 -8.82826805
v 22.20047569 6.71731091 -8.69081020
v 22.20047569 1.75581348 -6.43558407
v 20.77346039 6.60664558 -8.93427372
v 17.22653961 6.35037565 -9.49806690
v 13.73338127 5.98915148 -10.29276085
v 8.99578762 10.15514755 -1.12757003
v 9.98226166 8.84766483 -4.00403166
v 10.48685741 8.26712513 -5.28121758
v 7.00000000 -9.50000000 -3.55920196
v 7.00000000 -5.50000000 -2.93000007
v 7.00000000 6.81913519 -2.93000007
v 9.30407524 9.78893757 -1.93323088
v 9.80037689 9.46037483 -2.65606856
v 9.80037689 4.49887753 -0.40084258
v 9.98227024 3.88615251 -1.74883807
v 9.30407524 4.82744026 0.32199514
v 8.89134598 10.54019642 -0.28046161
v 8.99578762 5.19364977 1.12765598
v 8.98659039 10.90811539 0.52896100
v 8.89134598 5.57869911 1.97476447
v 9.26813507 11.25961971 1.30227017
v 8.98659039 5.94661856 2.78418708
v 9.72279453 11.57824421 2.00324440
v 9.26813507 6.29812241 3.55749607
v 10.65334034 12.01427364 2.96250749
v 9.72279453 6.61674738 4.25847054
v 11.10069466 7.21801233 5.58125353
v 10.36855602 6.93432713 4.95714617
v 13.60920620 6.98871279 -8.09372520
v 12.34540749 7.31471348 -7.37652445
v 11.28801727 7.74765110 -6.42406178
v 16.50000000 6.71731091 -8.69081020
v 15.01743603 6.78607321 -8.53953171
v 16.50000000 1.75581348 -6.43558407
v 13.60926151 2.02720475 -5.83852291
v 15.01747131 1.82457280 -6.28431320
v 12.34546471 2.35319710 -5.12133980
v 11.28806400 2.78612995 -4.16888762
v 10.48688412 3.30560565 -3.02604127
v 16.50000000 1.83857405 -6.25351048
v 22.95337486 1.83857405 -6.25351048
v 14.94478512 1.91675198 -6.08151913
v 13.47884369 2.14679718 -5.57541943
v 12.19011688 2.51487875 -4.76564026
v 11.15065670 3.00042892 -3.69742990
v 10.42228222 3.57464123 -2.43416309
v 10.04755116 4.85269213 0.37754926
v 10.04755116 4.20389414 -1.04980636
v 16.50000000 6.80007124 -8.50873661
v 22.57867241 1.79522026 -6.34888887
v 22.57867241 0.33863384 -5.68680429
v 22.95337486 0.38198769 -5.59142590
v 25.50000000 -4.57950974 -3.33620000
v 25.50000000 6.80007124 -8.50873661
v 13.67774963 7.06690025 -7.92171335
v 15.05208969 6.86768723 -8.35998249
v 12.44631481 7.38723564 -7.21697521
v 11.41899204 7.81234026 -6.28174543
v 10.64484692 8.32191277 -5.16068649
v 10.16340923 8.89062595 -3.90951562
v 10.00000000 5.84832478 -0.93614286
v 10.42228222 5.48194504 1.76190591
v 10.16340065 6.44747400 0.38198611
v 11.15065670 6.05615759 3.02517271
v 10.64482117 7.01618004 1.63313949
v 12.19011688 6.54170752 4.09338331
v 11.41894627 7.52575159 2.75419664
v 13.47884369 6.90978909 4.90316248
v 12.44625759 7.95086050 3.68943667
v 14.94478512 7.13983440 5.40926218
v 13.67769527 8.27120399 4.39419222
v 16.50000000 7.21801233 5.58125353
v 15.05205441 8.47042465 4.83247757
v 16.50000000 5.76142597 6.24333811
v 21.58060074 4.44139433 6.84335232
v 16.50000000 8.53804398 4.98123932
v 14.94478512 5.68324804 6.07134676
v 10.42228222 4.02535868 2.42399049
v 13.47884369 5.45320272 5.56524706
v 12.19011688 5.08512115 4.75546789
v 11.15065670 4.59957123 3.68725753
v 21.58060074 8.53804398 4.98123932
v 17.03734207 9.25491810 6.55836391
v 15.40084267 9.23176193 6.50741816
v 22.19350243 1.58305633 8.14259720
v 21.58060074 9.16749668 4.69512463
v 20.19338417 9.53043747 5.49359512
v 18.65490532 9.14363384 6.31353760
v 20.18972206 8.90172100 5.78133011
v 21.05134964 11.26885796 3.73996019
v 20.24669075 9.28751659 4.64056969
v 21.05134964 11.49011421 3.63938880
v 22.19623184 11.39618397 3.68208480
v 16.50000000 11.26885796 3.73996019
v 18.99906158 9.37398338 4.60126686
v 17.74917221 9.42931271 4.57611704
v 18.65999794 9.77256584 6.02627802
v 16.50000000 9.44841003 4.56743622
v 17.04112816 9.88430023 6.27209234
v 15.05361366 11.20142078 3.59159923
v 15.77223110 9.43149757 4.53022909
v 17.81409454 11.21328831 3.61770701
v 15.88244247 10.35607529 0.24091093
v 16.28738785 10.37953281 0.29251617
v 16.69628143 10.37999439 0.29353133
v 18.22135925 10.50706482 -0.35335025
v 20.22824669 10.78242683 2.66981387
v 19.07477760 11.04880428 3.25584364
v 22.01406097 12.17700386 4.83743143
v 23.29615211 1.65195394 8.11128044
v 23.29535866 11.32752609 3.71329284
v 24.39765549 1.69539452 8.09153461
v 24.39833832 11.28402519 3.73306584
v 22.89749718 12.84173203 5.92118502
v 25.50000000 1.71029508 8.08476162
v 25.50000000 11.26914310 3.73983049
v 24.74661446 12.97973728 6.22479773
v 26.22776985 1.69338274 8.04755402
v 26.22776985 11.25223064 3.70262313
v 24.74661446 2.45775628 11.00751591
v 26.62520409 2.44246578 10.97387695
v 22.89749718 2.31975055 10.70390415
v 22.01865196 1.94236779 9.49674320
v 21.05134964 1.71058083 8.08463192
v 21.05134964 1.48932374 8.18520260
v 21.58060074 3.81194186 7.12946749
v 20.22824669 1.22415054 7.01448488
v 22.89749718 1.89095068 10.89881325
v 16.50000000 3.53102803 7.25715542
v 16.50000000 1.71058083 8.08463192
v 17.81409454 1.65501118 7.96237850
v 17.74970055 3.55014110 7.24846792
v 18.99974060 3.60549402 7.22330713
v 20.24720383 3.69196296 7.18400335
v 19.07477760 1.49052775 7.60051489
v 15.77223110 3.51411581 7.21994829
v 15.05361366 3.46359110 7.10879421
v 15.05361366 1.64314389 7.93627024
v 16.28738785 -0.30204698 5.14777946
v 17.10153008 -0.32412818 5.09920073
v 16.69628143 -0.30158556 5.14879465
v 17.04112816 4.52874565 8.70643520
v 15.40084267 4.50566244 8.65565205
v 18.65999794 4.41701174 8.46062088
v 20.19338417 4.17488289 7.92793798
v 20.18972206 4.80507231 7.64344311
v 16.50000000 4.44139433 6.84335232
v 15.05208969 4.37377882 6.69459772
v 15.40084267 5.13511229 8.36953163
v 18.65490532 5.04698467 8.17565060
v 17.03734207 5.15826941 8.42047691
v 10.04755116 3.39610577 1.03963399
v 13.67774963 4.17456579 6.25632906
v 12.44631481 3.85423040 5.55159092
v 11.41899204 3.42912579 4.61636162
v 10.64484692 2.91955352 3.49530220
v 10.16340923 2.35083961 2.24413157
v 10.00000000 1.75167537 0.92597044
v 10.16340065 -2.48894000 1.26305330
v 10.00000000 0.84130895 1.33977342
v 10.00000000 -0.97913837 2.16724944
v 10.00000000 -1.88979053 2.58118224
v 10.64482117 -3.05764604 0.01189992
v 11.41894627 -3.56721759 -1.10915720
v 12.44625759 -3.99232674 -2.04439735
v 13.67769527 -4.31267023 -2.74915266
v 15.05205441 -4.51189041 -3.18743801
v 16.50000000 -4.57950974 -3.33620000
v -0.95506495 5.41644287 -2.93000007
v -5.45256996 -0.72027862 2.91982770
v -5.50000000 -0.00000000 2.91982770
v -5.35137510 1.26959229 2.91982770
v -4.91416550 2.46980023 2.91982770
v -4.21326017 3.53530383 2.91982770
v -3.28565931 4.41059875 2.91982770
v -2.17959309 5.04959965 2.91982770
v -0.95506495 5.41644287 2.91982770
v 0.00000000 -5.50000000 -2.93000007
v -0.72027862 -5.45256996 -2.93000007
v -1.42527592 -5.31199694 -2.93000007
v -2.10606861 -5.08072805 -2.93000007
v -2.75130033 -4.76238298 -2.93000007
v -3.34914160 -4.36262131 -2.93000007
v -3.88898063 -3.88902497 -2.93000007
v -4.36258459 -3.34919000 -2.93000007
v -4.76235533 -2.75134850 -2.93000007
v -5.08070993 -2.10611200 -2.93000007
v -5.31198788 -1.42530942 -2.93000007
v -5.45256758 -0.72029763 -2.93000007
v -5.50000000 0.00000000 -2.93000007
v -5.35136747 1.26962626 -2.93000007
v -4.91414022 2.46985030 -2.93000007
v -4.21321964 3.53535223 -2.93000007
v -3.28561449 4.41063213 -2.93000007
v -2.17956090 5.04961348 -2.93000007
v 33.00652313 11.89918041 2.70930433
v 32.46451187 9.63361454 -2.27494264
v 32.02273560 9.49616146 -2.57733846
v 32.02273941 9.04062939 -2.37115026
v 32.00607300 9.48871517 -2.59372115
v 32.00804901 8.58071613 -2.17813897
v 32.01445389 8.58503342 -2.17137098
v 32.85479736 9.79426384 -1.92151296
v 32.46767044 8.80051994 -1.89415407
v 32.02273560 8.58913612 -2.16588092
v 33.18835831 9.97565842 -1.52244496
v 32.86302948 9.03186703 -1.56590343
v 33.31423569 11.70919514 2.29133511
v 33.45880127 10.17452145 -1.08494616
v 33.19868088 9.27821064 -1.18984532
v 33.55487442 11.50432301 1.84061742
v 33.66044235 10.38686275 -0.61779660
v 33.46650696 9.53341198 -0.77740920
v 33.72544479 11.28759384 1.36381328
v 33.78947830 10.60831642 -0.13059807
v 33.66596985 9.79629612 -0.33253536
v 33.82251740 11.06297207 0.86964440
v 33.84390259 10.83500004 0.36810562
v 33.79299927 10.06289482 0.13674666
v 33.84494019 10.32781696 0.61952507
v 33.82106018 10.58563042 1.10466337
v 33.72206116 10.83370590 1.58612716
v 33.55022430 11.06671715 2.05277681
v 33.30998993 11.28017521 2.49484396
v 31.99994659 9.47888756 -2.61534071
v 31.71271515 12.46372890 3.95130920
v 31.71433449 12.03439045 4.14503384
v 33.00700760 11.47012138 2.90364194
v 30.57165718 7.80750084 -6.29239130
v 30.17650986 12.91158295 4.93658829
v 30.17856407 12.48234367 5.13053179
v 31.34699249 8.31493092 -5.17604542
v 31.83153343 8.88153934 -3.92950773
v 29.54490089 7.38434076 -7.22334433
v 28.45939064 13.22530842 5.62678480
v 28.45977402 12.79645824 5.82158422
v 26.94426346 6.86734247 -8.36074066
v 26.62668037 13.39313698 5.99600887
v 28.31550598 7.06555605 -7.92466974
v 24.74785233 13.40854645 6.02990913
v 26.62520218 12.96444702 6.19115877
v 22.89749718 13.27053165 5.72627592
v 17.81719589 10.60562706 -0.13651478
v 18.22135925 10.15806484 -0.19471355
v 17.38274956 10.67667007 0.01978033
v 17.49561310 10.31232262 0.14465536
v 17.87121391 10.24544716 -0.00247205
v 16.92711830 10.71897602 0.11285264
v 17.10153008 10.35745144 0.24393749
v 16.46118736 10.73153973 0.14049275
v 15.99581146 10.71399689 0.10189959
v 15.54325390 10.66682243 -0.00188331
v 15.11432076 10.59130096 -0.16803132
v 15.48896027 10.31005859 0.13967356
v 14.71878910 10.48922634 -0.39259481
v 15.11424732 10.24233532 -0.00931662
v 14.36582184 10.36288452 -0.67054868
v 14.44847298 10.04718113 -0.43865710
v 14.76525879 10.15416431 -0.20329382
v 14.06415749 10.21519852 -0.99545598
v 14.16977024 9.92337227 -0.71103734
v 13.82177162 10.05005550 -1.35877156
v 13.93432617 9.78503513 -1.01537812
v 13.64417171 9.87134266 -1.75193918
v 13.74650955 9.63473892 -1.34602976
v 13.49890232 9.48979092 -2.59135461
v 13.53561401 9.68332672 -2.16557407
v 13.60980701 9.47527313 -1.69685423
v 13.52675819 9.30959797 -2.06133914
v 10.00000000 9.48979092 -2.59135461
v 13.49890232 9.14078999 -2.43271780
v 10.00000000 8.57913876 -2.17742181
v 10.00000000 6.75869083 -1.34994578
v 28.31526375 -4.31407309 -2.75223947
v 26.94412613 -4.51225138 -3.18823195
v 29.54459953 -3.99533987 -2.05102634
v 30.57135010 -3.57223797 -1.12020242
v 31.34673882 -3.06486654 -0.00398522
v 31.83138466 -2.49830890 1.24244165
v 31.99994469 8.56823444 -2.20216918
v 31.99994278 -1.44764519 2.35047293
v 32.00211334 8.57453537 -2.18921328
v 32.00000000 8.57942390 -2.17755175
v 31.95912933 8.88057709 -1.51501513
v 31.83703232 9.17794323 -0.86081028
v 31.63524246 9.46778202 -0.22316426
v 31.35629845 9.74644947 0.38990420
v 31.00370789 10.01044083 0.97068542
v 30.58190536 10.25643635 1.51187575
v 31.99998665 8.57381725 -2.18988657
v 31.99994659 -0.99032414 2.14339900
v 26.62672806 2.01355410 11.16854000
v 16.92708397 -0.66060328 5.28539419
v 17.38272667 -0.70290786 5.19232416
v 17.81718254 -0.77395171 5.03602743
v 18.22135925 -0.87251580 4.81918669
v 24.74786949 2.02896619 11.20244694
v 28.45948219 1.84571493 10.79929447
v 30.17664719 1.53196955 10.10905457
v 31.71290207 1.08407903 9.12369537
v 31.99994278 -1.90099585 2.55653024
v 32.00195312 -0.98488384 2.15620422
v 32.00607300 -1.89116907 2.57814932
v 31.99998665 -0.98487407 2.15538907
v 32.00000000 -0.97942400 2.16737914
v 31.95912933 -0.67827100 2.82991576
v 32.00757217 -0.98063940 2.16793180
v 31.83703232 -0.38090518 3.48412061
v 33.19412613 -0.69646680 3.33718300
v 32.01404572 -0.97825086 2.17594790
v 32.02273560 -0.97670645 2.18305302
v 32.46488953 -0.91152084 2.51855922
v 32.85878754 -0.81706494 2.90631914
v 31.63524246 -0.09106609 4.12176657
v 33.66306305 -0.39225933 4.28909445
v 33.46250916 -0.55413949 3.79929042
v 31.35629845 0.18760139 4.73483515
v 33.84466553 -0.02452432 5.31617069
v 33.79142761 -0.21416697 4.79847908
v 31.00370789 0.45159286 5.31561613
v 33.72341537 0.37196359 6.33562040
v 33.82180023 0.17182118 5.83061600
v 30.58190536 0.69758844 5.85680676
v 33.31095505 0.76437163 7.27292156
v 33.55165482 0.57097465 6.81972075
v 30.09619331 10.48134232 2.00666928
v 30.09619331 0.92249465 6.35160017
v 33.00701141 0.94813901 7.68635798
v 29.55268288 10.68233109 2.44884396
v 29.55268288 1.12348306 6.79377508
v 31.71433640 1.51240838 8.92775059
v 28.95820808 10.85687447 2.83283901
v 28.95820808 1.29802632 7.17776966
v 28.32024384 11.00277710 3.15382528
v 28.32024384 1.44392920 7.49875641
v 30.17856598 1.96036220 9.91324902
v 27.64681435 11.11820507 3.40776658
v 27.64681435 1.55935705 7.75269747
v 26.94638634 11.20170593 3.59146929
v 26.94638634 1.64285827 7.93640041
v 28.45977592 2.27447724 10.60430241
v 15.11427498 -0.78828984 5.00448370
v 15.54320621 -0.71276480 5.17063856
v 15.99576473 -0.66558737 5.27442884
v 16.46114540 -0.64804190 5.31302929
v 13.80766392 4.97861052 8.02522850
v 12.31854534 4.69450951 7.40020514
v 10.99260521 4.29346037 6.51789761
v 9.88320160 3.79069877 5.41182137
v 9.44225025 1.31247544 2.11432743
v 9.44119263 2.12520194 1.74772847
v 10.16296864 -0.38061956 3.48399091
v 10.04087067 1.14246190 2.00231004
v 10.16296864 1.43982780 2.65651464
v 10.64370251 0.18788703 4.73470545
v 10.36475849 1.72966683 3.29416084
v 9.14052200 1.81020069 3.00086069
v 10.64370251 2.00833440 3.90722919
v 9.11475658 2.30493259 3.93751884
v 11.41809559 0.69787407 5.85667658
v 10.99629307 2.27232575 4.48801041
v 9.36758804 2.76535702 4.85806847
v 11.41809559 2.51832151 5.02920055
v 9.88320160 3.16124606 5.69793653
v 12.44731617 1.12376869 6.79364491
v 11.90380573 2.74322748 5.52399445
v 12.44731617 2.94421601 5.96616888
v 10.98954201 3.66289735 6.80156898
v 13.67975616 1.44421482 7.49862623
v 13.04179192 3.11875916 6.35016394
v 13.67975616 3.26466227 6.67115021
v 12.31396580 4.06399870 7.68399191
v 14.35318565 3.38009000 6.92509174
v 13.80405617 4.34867573 8.31028175
v 15.48896027 -0.37152091 4.99493694
v 15.88244247 -0.32550392 5.09617424
v 15.11424732 -0.43924370 4.84594679
v 14.44847298 -0.63439846 4.41660643
v 14.76525879 -0.52741516 4.65196943
v 13.93432617 -0.89654440 3.83988523
v 14.16977024 -0.75820768 4.14422607
v 13.74650955 -1.04684055 3.50923371
v 13.52675819 -1.37198114 2.79392433
v 13.60980701 -1.20630622 3.15840912
v 13.49890232 -1.88979053 2.58118224
v 13.49890232 -1.54078972 2.42254543
v 13.82175636 -1.32953835 3.81373692
v 13.53561115 -1.69625950 3.00695038
v 13.64416409 -1.50824809 3.42057562
v 14.06413269 -1.16439629 4.17704964
v 14.36578751 -1.01671088 4.50195742
v 14.71874809 -0.89036673 4.77991438
v 10.16296864 7.35720968 -0.03320438
v 10.16296864 9.17765713 -0.86068046
v 10.04087067 7.05984402 -0.68740916
v 10.64370251 7.92571640 1.21751010
v 10.64370251 9.74616337 0.39003405
v 10.36475849 7.64704895 0.60444164
v 11.41809559 8.43570328 2.33948159
v 11.41809559 10.25615120 1.51200557
v 10.99629307 8.18970776 1.79829133
v 12.44731617 8.86159801 3.27644992
v 12.44731617 10.68204594 2.44897389
v 11.90380573 8.66060925 2.83427525
v 13.67975616 9.18204403 3.98143125
v 13.67975616 11.00249195 3.15395522
v 13.04179192 9.03614140 3.66044474
v 15.05361366 9.38097286 4.41907501
v 14.35318565 9.29747200 4.23537254
v 15.40084267 9.86121655 6.22130919
v 13.80405617 9.70423031 5.87593842
v 12.31396580 9.41955280 5.24964905
v 10.98954201 9.01845169 4.36722612
v 9.88320160 8.51680088 3.26359344
v 9.36876011 8.14549828 2.41582727
v 9.11521530 7.75506639 1.46479654
v 9.13995171 7.37437677 0.47566065
v 9.44141102 7.03305387 -0.48388007
v 9.44119263 6.22185087 -0.11438474
v 9.88320160 7.88734770 3.54970837
v 10.99260521 8.39011002 4.65578413
v 12.31854534 8.79115868 5.53809214
v 13.80766392 9.07526016 6.16311502
v 9.36779022 7.50328493 2.70476985
v 9.13996506 6.64158678 0.80903351
v 9.11495972 7.07811499 1.76939583
v 9.36779022 3.40663576 4.56688309
v 9.13996506 2.54493737 2.67114687
v 9.11495972 2.98146582 3.63150907
v 18.22135925 -0.52351505 4.66054964
v 17.49561310 -0.36925644 4.99991894
v 17.87121391 -0.43613255 4.85279131
v 32.85494995 -1.58562624 3.25034332
v 33.00658417 0.51956260 7.88175917
v 32.46458817 -1.74627769 2.89691019
v 32.02273560 -1.88372326 2.59453011
v 33.18857956 -1.40422177 3.64943337
v 33.31440353 0.32955310 7.46373796
v 33.45907974 -1.20534110 4.08697081
v 33.55512238 0.12465142 7.01295424
v 33.66076279 -0.99297601 4.55417395
v 33.72575378 -0.09211177 6.53607559
v 33.78982544 -0.77149278 5.04143715
v 33.82286072 -0.31676918 6.04182911
v 33.84425735 -0.54477638 5.54021311
v 32.02273560 -1.43223548 2.38925672
f 1 2 3
f 4 3 2
f 5 1 3
f 6 5 3
f 6 3 4
f 1 7 2
f 4 2 7
f 8 9 7
f 4 7 9
f 1 8 7
f 10 11 9
f 4 9 11
f 8 10 9
f 12 13 11
f 4 11 13
f 10 12 11
f 14 15 13
f 4 13 15
f 12 14 13
f 16 17 15
f 4 15 17
f 18 16 15
f 14 18 15
f 19 17 16
f 20 4 17
f 21 20 17
f 19 21 17
f 22 16 18
f 22 19 16
f 23 18 14
f 23 22 18
f 24 14 12
f 25 23 14
f 24 25 14
f 26 12 10
f 26 24 12
f 27 10 8
f 27 26 10
f 28 8 1
f 28 27 8
f 28 1 5
f 29 5 6
f 30 5 29
f 30 28 5
f 31 4 32
f 33 32 4
f 34 31 32
f 33 35 32
f 34 32 35
f 36 4 20
f 37 6 4
f 38 37 4
f 39 38 4
f 40 39 4
f 31 40 4
f 36 33 4
f 21 41 20
f 42 20 41
f 43 36 20
f 44 20 45
f 46 45 20
f 43 20 44
f 47 46 20
f 48 47 20
f 49 48 20
f 50 49 20
f 51 50 20
f 52 51 20
f 53 52 20
f 54 53 20
f 42 54 20
f 55 56 41
f 57 41 56
f 58 55 41
f 59 58 41
f 60 59 41
f 21 60 41
f 61 41 57
f 61 42 41
f 62 63 56
f 64 56 63
f 65 62 56
f 55 65 56
f 66 56 64
f 57 56 66
f 62 67 63
f 64 63 67
f 68 69 67
f 70 67 69
f 62 68 67
f 64 67 70
f 68 71 69
f 72 69 71
f 70 69 72
f 68 73 71
f 74 71 73
f 72 71 74
f 68 75 73
f 76 73 75
f 74 73 76
f 77 75 68
f 76 75 77
f 78 68 62
f 77 68 78
f 79 62 65
f 80 78 62
f 79 80 62
f 22 65 55
f 79 65 22
f 81 55 58
f 22 55 81
f 82 58 59
f 81 58 82
f 83 59 60
f 82 59 83
f 84 60 21
f 83 60 84
f 84 21 19
f 29 6 37
f 85 37 38
f 86 37 85
f 87 37 86
f 29 37 87
f 88 38 39
f 85 38 88
f 89 39 40
f 88 39 89
f 90 40 31
f 89 40 90
f 90 31 34
f 66 35 33
f 66 91 35
f 92 35 91
f 93 34 35
f 92 93 35
f 36 94 33
f 95 33 94
f 96 66 33
f 95 96 33
f 43 94 36
f 45 95 94
f 44 45 94
f 43 44 94
f 92 97 98
f 99 98 97
f 100 92 98
f 99 100 98
f 92 91 97
f 101 97 91
f 101 99 97
f 66 102 91
f 103 91 102
f 101 91 103
f 66 104 102
f 105 102 104
f 103 102 105
f 66 106 104
f 107 104 106
f 105 104 107
f 66 108 106
f 109 106 108
f 107 106 109
f 66 110 108
f 111 108 110
f 109 108 111
f 66 78 110
f 112 110 78
f 113 110 112
f 111 110 113
f 66 77 78
f 80 112 78
f 66 76 77
f 66 74 76
f 66 72 74
f 66 70 72
f 66 64 70
f 96 57 66
f 93 90 34
f 114 89 90
f 115 114 90
f 116 115 90
f 93 116 90
f 117 88 89
f 118 117 89
f 114 118 89
f 117 85 88
f 117 86 85
f 87 86 117
f 119 117 118
f 87 117 119
f 120 118 114
f 121 119 118
f 120 121 118
f 122 114 115
f 122 120 114
f 123 115 116
f 123 122 115
f 124 116 93
f 124 123 116
f 100 93 92
f 100 124 93
f 125 119 121
f 125 126 119
f 87 119 126
f 127 121 120
f 127 125 121
f 128 120 122
f 128 127 120
f 129 122 123
f 129 128 122
f 130 123 124
f 130 129 123
f 131 124 100
f 131 130 124
f 132 100 99
f 133 131 100
f 132 133 100
f 113 132 99
f 111 113 99
f 101 111 99
f 134 126 125
f 135 87 126
f 136 135 126
f 136 126 137
f 138 137 126
f 139 126 134
f 138 126 139
f 134 125 127
f 140 127 128
f 141 127 140
f 134 127 141
f 142 128 129
f 140 128 142
f 143 129 130
f 142 129 143
f 144 130 131
f 143 130 144
f 145 131 133
f 144 131 145
f 146 133 132
f 146 145 133
f 113 147 132
f 148 132 147
f 148 146 132
f 112 149 147
f 150 147 149
f 113 112 147
f 150 148 147
f 112 151 149
f 152 149 151
f 152 150 149
f 112 153 151
f 154 151 153
f 154 152 151
f 112 155 153
f 156 153 155
f 156 154 153
f 112 157 155
f 158 155 157
f 158 156 155
f 159 157 112
f 160 161 157
f 158 157 161
f 159 160 157
f 159 112 80
f 101 109 111
f 103 107 109
f 101 103 109
f 103 105 107
f 29 87 135
f 29 135 136
f 162 159 80
f 163 80 79
f 164 162 80
f 165 164 80
f 166 165 80
f 163 166 80
f 160 167 161
f 168 161 167
f 169 158 161
f 168 169 161
f 170 171 167
f 172 167 171
f 160 170 167
f 173 168 167
f 174 173 167
f 172 174 167
f 175 176 171
f 172 171 176
f 177 175 171
f 178 177 171
f 170 178 171
f 179 180 176
f 172 176 180
f 175 179 176
f 179 181 180
f 182 180 181
f 182 172 180
f 179 183 181
f 184 181 183
f 184 182 181
f 185 183 179
f 186 183 185
f 184 183 186
f 187 179 175
f 188 185 179
f 189 179 190
f 187 190 179
f 188 179 189
f 191 175 177
f 192 175 191
f 193 175 192
f 187 175 193
f 194 177 178
f 194 191 177
f 195 196 178
f 194 178 196
f 170 195 178
f 197 198 196
f 199 196 198
f 195 197 196
f 199 194 196
f 200 201 198
f 202 198 201
f 197 200 198
f 202 199 198
f 203 201 200
f 204 201 203
f 202 201 204
f 205 200 197
f 206 203 200
f 205 206 200
f 207 197 195
f 207 205 197
f 208 195 170
f 208 207 195
f 209 210 170
f 208 170 210
f 211 209 170
f 160 211 170
f 212 210 209
f 213 210 212
f 208 210 213
f 214 215 209
f 216 209 215
f 217 214 209
f 218 217 209
f 219 218 209
f 211 219 209
f 220 212 209
f 216 220 209
f 221 215 214
f 221 222 215
f 223 215 222
f 224 215 223
f 225 216 215
f 226 225 215
f 224 226 215
f 227 214 217
f 228 221 214
f 227 228 214
f 229 217 218
f 229 227 217
f 230 218 219
f 230 229 218
f 230 219 211
f 231 211 160
f 230 211 231
f 159 232 160
f 231 160 232
f 162 232 159
f 233 232 162
f 234 232 233
f 235 231 232
f 236 235 232
f 234 236 232
f 30 136 137
f 138 30 137
f 30 29 136
f 81 84 19
f 22 81 19
f 82 83 84
f 81 82 84
f 237 79 22
f 23 237 22
f 237 163 79
f 238 162 164
f 238 233 162
f 239 164 165
f 239 238 164
f 240 165 166
f 240 239 165
f 241 166 163
f 241 240 166
f 242 163 237
f 242 241 163
f 243 237 23
f 243 242 237
f 244 23 25
f 245 243 23
f 246 245 23
f 247 246 23
f 244 247 23
f 248 25 24
f 248 244 25
f 249 24 26
f 249 248 24
f 250 26 27
f 250 249 26
f 251 27 28
f 251 250 27
f 252 28 30
f 252 251 28
f 253 30 138
f 252 30 253
f 254 57 96
f 255 61 57
f 256 255 57
f 257 256 57
f 258 257 57
f 259 258 57
f 260 259 57
f 261 260 57
f 262 261 57
f 254 262 57
f 263 96 95
f 264 96 263
f 254 96 264
f 46 95 45
f 263 95 46
f 263 46 47
f 265 47 48
f 264 263 47
f 265 264 47
f 266 48 49
f 266 265 48
f 267 49 50
f 267 266 49
f 268 50 51
f 268 267 50
f 269 51 52
f 269 268 51
f 270 52 53
f 270 269 52
f 271 53 54
f 271 270 53
f 272 54 42
f 272 271 54
f 273 42 61
f 273 272 42
f 274 61 255
f 274 273 61
f 274 255 256
f 275 256 257
f 275 274 256
f 276 257 258
f 276 275 257
f 277 258 259
f 277 276 258
f 278 259 260
f 278 277 259
f 279 260 261
f 279 278 260
f 280 261 262
f 280 279 261
f 254 280 262
f 254 264 265
f 254 265 266
f 280 266 267
f 254 266 280
f 279 267 268
f 280 267 279
f 279 268 269
f 278 269 270
f 279 269 278
f 278 270 271
f 277 271 272
f 278 271 277
f 277 272 273
f 276 273 274
f 277 273 276
f 276 274 275
f 281 282 283
f 284 283 282
f 285 281 283
f 286 285 283
f 287 283 284
f 287 286 283
f 281 288 282
f 289 282 288
f 290 284 282
f 289 290 282
f 281 291 288
f 292 288 291
f 292 289 288
f 293 294 291
f 295 291 294
f 281 293 291
f 295 292 291
f 296 297 294
f 298 294 297
f 293 296 294
f 298 295 294
f 299 300 297
f 301 297 300
f 296 299 297
f 301 298 297
f 302 303 300
f 304 300 303
f 299 302 300
f 304 301 300
f 305 303 302
f 305 304 303
f 306 302 299
f 306 305 302
f 307 299 296
f 307 306 299
f 308 296 293
f 308 307 296
f 309 293 281
f 309 308 293
f 310 311 281
f 312 281 311
f 285 310 281
f 313 309 281
f 312 313 281
f 314 315 311
f 316 311 315
f 317 314 311
f 318 317 311
f 310 318 311
f 312 311 316
f 319 320 315
f 321 315 320
f 314 319 315
f 316 315 321
f 322 323 320
f 321 320 323
f 324 322 320
f 319 324 320
f 139 325 323
f 326 323 325
f 322 139 323
f 321 323 326
f 134 327 325
f 202 325 327
f 139 134 325
f 326 325 202
f 134 191 327
f 199 327 191
f 202 327 199
f 134 328 191
f 329 191 328
f 199 191 194
f 192 191 329
f 134 330 328
f 331 328 330
f 332 329 328
f 331 332 328
f 134 333 330
f 334 330 333
f 334 331 330
f 134 335 333
f 190 333 335
f 190 334 333
f 141 336 335
f 189 335 336
f 134 141 335
f 189 190 335
f 141 337 336
f 188 336 337
f 188 189 336
f 141 338 337
f 339 337 338
f 339 188 337
f 141 340 338
f 341 338 340
f 341 339 338
f 140 342 340
f 343 340 342
f 141 140 340
f 344 341 340
f 343 344 340
f 140 345 342
f 346 342 345
f 346 343 342
f 140 347 345
f 348 345 347
f 348 346 345
f 140 349 347
f 350 347 349
f 350 348 347
f 351 352 349
f 353 349 352
f 140 351 349
f 353 350 349
f 354 352 351
f 354 353 352
f 145 355 351
f 356 351 355
f 144 145 351
f 143 144 351
f 142 143 351
f 140 142 351
f 354 351 356
f 357 355 145
f 356 355 357
f 358 357 145
f 146 358 145
f 138 139 322
f 359 322 324
f 360 138 322
f 359 360 322
f 361 324 319
f 361 359 324
f 362 319 314
f 362 361 319
f 363 314 317
f 363 362 314
f 364 317 318
f 364 363 317
f 365 318 310
f 366 318 365
f 366 364 318
f 365 310 285
f 367 365 285
f 286 367 285
f 287 284 290
f 368 290 289
f 368 287 290
f 368 289 292
f 369 292 295
f 368 292 369
f 369 295 298
f 370 298 301
f 369 298 370
f 370 301 304
f 371 304 305
f 370 304 371
f 371 305 306
f 372 306 307
f 371 306 372
f 372 307 308
f 373 308 309
f 372 308 373
f 373 309 313
f 373 313 374
f 312 374 313
f 375 365 367
f 376 366 365
f 375 376 365
f 375 367 286
f 368 286 287
f 375 286 368
f 377 138 360
f 378 253 138
f 379 378 138
f 380 379 138
f 381 380 138
f 213 381 138
f 382 213 138
f 377 382 138
f 377 360 359
f 383 359 361
f 383 377 359
f 384 361 362
f 384 383 361
f 384 362 363
f 385 363 364
f 385 384 363
f 366 386 364
f 385 364 386
f 387 386 366
f 388 385 386
f 387 388 386
f 387 366 376
f 375 389 376
f 387 376 389
f 368 390 389
f 387 389 390
f 375 368 389
f 369 391 390
f 392 390 391
f 368 369 390
f 387 390 392
f 370 393 391
f 394 391 393
f 369 370 391
f 395 391 396
f 397 396 391
f 392 391 395
f 398 397 391
f 394 398 391
f 371 399 393
f 400 393 399
f 370 371 393
f 401 394 393
f 400 401 393
f 372 402 399
f 403 399 402
f 371 372 399
f 404 400 399
f 403 404 399
f 373 405 402
f 406 402 405
f 372 373 402
f 407 403 402
f 406 407 402
f 374 408 405
f 409 405 408
f 373 374 405
f 410 406 405
f 409 410 405
f 411 412 408
f 413 408 412
f 374 411 408
f 413 409 408
f 414 415 412
f 416 412 415
f 411 414 412
f 416 413 412
f 417 418 415
f 416 415 418
f 414 417 415
f 419 420 418
f 421 418 420
f 417 419 418
f 421 416 418
f 422 423 420
f 421 420 423
f 419 422 420
f 424 425 423
f 426 423 425
f 422 424 423
f 426 421 423
f 204 203 425
f 206 425 203
f 424 204 425
f 206 426 425
f 326 204 424
f 326 202 204
f 321 424 422
f 321 326 424
f 321 422 419
f 316 419 417
f 316 321 419
f 316 417 414
f 312 414 411
f 312 316 414
f 312 411 374
f 427 252 253
f 428 427 253
f 429 428 253
f 430 429 253
f 378 430 253
f 431 233 238
f 431 234 233
f 431 238 239
f 432 239 240
f 432 431 239
f 433 240 241
f 433 432 240
f 433 241 242
f 434 242 243
f 434 433 242
f 435 243 245
f 436 434 243
f 435 436 243
f 437 438 245
f 435 245 438
f 246 437 245
f 437 439 438
f 435 438 439
f 440 441 439
f 442 439 441
f 437 440 439
f 435 439 442
f 440 443 441
f 444 441 443
f 442 441 444
f 445 446 443
f 447 443 446
f 440 445 443
f 444 443 447
f 445 448 446
f 449 446 448
f 447 446 449
f 450 451 448
f 449 448 451
f 445 450 448
f 450 452 451
f 453 451 452
f 453 449 451
f 454 455 452
f 453 452 455
f 450 454 452
f 454 456 455
f 457 455 456
f 457 453 455
f 223 458 456
f 457 456 458
f 454 223 456
f 223 222 458
f 459 458 222
f 459 457 458
f 228 222 221
f 228 459 222
f 460 223 454
f 461 224 223
f 460 461 223
f 462 454 450
f 462 460 454
f 463 450 445
f 464 462 450
f 463 464 450
f 465 445 440
f 466 463 445
f 465 466 445
f 467 440 437
f 467 465 440
f 468 437 246
f 469 467 437
f 468 469 437
f 470 246 247
f 471 468 246
f 470 471 246
f 248 247 244
f 249 247 248
f 250 247 249
f 470 247 250
f 470 250 251
f 472 251 252
f 473 470 251
f 474 473 251
f 472 474 251
f 475 472 252
f 476 475 252
f 477 476 252
f 427 477 252
f 478 479 357
f 356 357 479
f 480 478 357
f 358 480 357
f 481 482 479
f 353 479 482
f 483 481 479
f 478 483 479
f 354 356 479
f 354 479 353
f 484 485 482
f 348 482 485
f 486 484 482
f 481 486 482
f 350 482 348
f 353 482 350
f 487 488 485
f 346 485 488
f 489 487 485
f 484 489 485
f 348 485 346
f 490 491 488
f 344 488 491
f 492 490 488
f 487 492 488
f 343 488 344
f 346 488 343
f 493 185 491
f 339 491 185
f 494 493 491
f 490 494 491
f 341 491 339
f 344 491 341
f 493 186 185
f 339 185 188
f 495 186 493
f 495 184 186
f 496 493 494
f 496 495 493
f 496 494 490
f 497 490 492
f 497 496 490
f 497 492 487
f 498 487 489
f 498 497 487
f 498 489 484
f 499 484 486
f 498 484 499
f 500 486 481
f 500 499 486
f 501 481 483
f 501 500 481
f 502 483 478
f 502 501 483
f 503 478 480
f 503 502 478
f 503 480 358
f 504 358 146
f 503 358 504
f 505 146 148
f 505 504 146
f 505 148 150
f 506 150 152
f 506 505 150
f 507 152 154
f 507 506 152
f 507 154 156
f 508 156 158
f 508 507 156
f 169 508 158
f 509 510 504
f 503 504 510
f 505 509 504
f 509 511 510
f 502 510 511
f 503 510 502
f 501 511 509
f 502 511 501
f 500 509 505
f 501 509 500
f 499 505 506
f 500 505 499
f 497 506 507
f 498 499 506
f 498 506 497
f 496 507 508
f 497 507 496
f 496 508 169
f 495 169 168
f 496 169 495
f 184 168 173
f 495 168 184
f 182 173 174
f 184 173 182
f 182 174 172
f 332 192 329
f 193 192 332
f 193 332 331
f 187 331 334
f 187 193 331
f 187 334 190
f 229 231 235
f 230 231 229
f 227 235 236
f 229 235 227
f 227 236 234
f 228 234 431
f 227 234 228
f 459 431 432
f 228 431 459
f 457 432 433
f 459 432 457
f 453 433 434
f 457 433 453
f 436 512 434
f 449 434 512
f 453 434 449
f 513 514 512
f 447 512 514
f 436 513 512
f 447 449 512
f 444 514 513
f 444 447 514
f 442 513 436
f 442 444 513
f 435 442 436
f 515 212 220
f 213 212 515
f 516 220 216
f 517 515 220
f 516 517 220
f 225 516 216
f 381 515 517
f 213 515 381
f 380 517 516
f 381 517 380
f 379 516 225
f 380 516 379
f 378 225 226
f 379 225 378
f 430 226 224
f 378 226 430
f 429 224 461
f 430 224 429
f 428 461 460
f 429 461 428
f 428 460 462
f 427 462 464
f 428 462 427
f 477 464 463
f 427 464 477
f 476 463 466
f 477 463 476
f 475 466 465
f 476 466 475
f 472 465 467
f 475 465 472
f 474 467 469
f 472 467 474
f 473 469 468
f 474 469 473
f 473 468 471
f 473 471 470
f 207 213 382
f 208 213 207
f 206 382 377
f 205 382 206
f 207 382 205
f 206 377 383
f 426 383 384
f 206 383 426
f 421 384 385
f 426 384 421
f 518 519 385
f 416 385 519
f 520 518 385
f 521 520 385
f 388 521 385
f 421 385 416
f 522 523 519
f 413 519 523
f 518 522 519
f 416 519 413
f 524 525 523
f 410 523 525
f 522 524 523
f 409 523 410
f 413 523 409
f 526 527 525
f 406 525 527
f 524 526 525
f 410 525 406
f 528 529 527
f 407 527 529
f 526 528 527
f 406 527 407
f 528 530 529
f 403 529 530
f 407 529 403
f 404 530 528
f 403 530 404
f 400 528 526
f 404 528 400
f 401 526 524
f 400 526 401
f 394 524 522
f 401 524 394
f 398 522 518
f 394 522 398
f 397 518 520
f 398 518 397
f 397 520 521
f 531 521 388
f 397 521 531
f 396 531 388
f 395 396 388
f 392 395 388
f 387 392 388
f 397 531 396

