# https://github.com/mikedh/trimesh

o ph_thumb_r.stl
v 15.01747131 4.59351110 -3.36700273
v 16.50000000 -0.29922709 -5.77349949
v 16.50000000 4.66227007 -3.51827312
v 22.20047569 -0.29922709 -5.77349949
v 17.22653961 5.02920532 -4.32553005
v 20.77346039 4.77293539 -3.76173687
v 21.49020576 4.72475147 -3.65573168
v 22.20047569 4.66227007 -3.51827312
v 15.01743603 -0.36798975 -5.62222147
v 16.50000000 -0.38198769 -5.59142590
v 22.95337486 -0.38198769 -5.59142590
v 13.60926151 4.39087915 -2.92121243
v 13.60920620 -0.57062930 -5.17641449
v 14.94478512 -0.46016556 -5.41943455
v 12.34546471 4.06488657 -2.20402884
v 12.34540749 -0.89662969 -4.45921373
v 13.47884369 -0.69021088 -4.91333485
v 11.28806400 3.63195372 -1.25157666
v 11.28801727 -1.32956731 -3.50675082
v 12.19011688 -1.05829239 -4.10355568
v 10.48688412 3.11247802 -0.10873059
v 10.48685741 -1.84904182 -2.36390686
v 11.15065670 -1.54384255 -3.03534532
v 9.98227024 2.53193116 1.16847265
v 9.98226166 -2.42958093 -1.08672106
v 10.42228222 -2.11805487 -1.77207828
v 9.80037689 1.91920590 2.51646829
v 9.80037689 -3.04229140 0.26124215
v 10.04755116 -3.39610577 1.03963399
v 10.04755116 -2.74730778 -0.38772169
v 9.30407524 1.59064329 3.23930597
v 9.30407524 -3.37085390 0.98407984
v 10.36855602 -5.47774076 5.61923122
v 9.72279453 -5.16016102 4.92055511
v 9.00000000 1.73586071 2.91982770
v 13.73338127 5.39042950 -5.12022400
v 12.75491810 5.47700882 -5.31069851
v 11.75680256 5.50606680 -5.37462616
v 11.75680256 -5.87351418 -10.54716301
v 9.00000000 5.50606680 -5.37462616
v 12.75491810 -5.90257215 -10.48323536
v 13.73338127 -5.98915148 -10.29276085
v 17.22653961 -6.35037565 -9.49806690
v 20.77346039 -6.60664558 -8.93427372
v 21.49020576 -6.65482950 -8.82826805
v 8.99578762 1.22443390 4.04496670
v 7.00000000 -1.52408385 10.09170532
v 8.89134598 0.83938456 4.89207506
v 8.99578762 -3.73706341 1.78974068
v 8.98659039 0.47146520 5.70149803
v 8.89134598 -4.12211275 2.63684916
v 9.26813507 0.11996105 6.47480679
v 8.98659039 -4.49003220 3.44627166
v 9.72279453 -0.19866361 7.17578125
v 9.26813507 -4.84153605 4.21958113
v 10.65334034 -0.63469231 8.13504410
v 11.74622631 -1.00101495 8.94095421
v 11.10069466 -5.76142597 6.24333811
v 12.97018528 -1.28715205 9.57045555
v 11.74622631 -12.38059616 3.76841736
v 10.65334034 -12.01427364 2.96250749
v 11.10069466 -7.21801233 5.58125353
v 13.09321022 -1.33036220 9.66551781
v 12.97018528 -12.66673279 4.39791918
v 13.14437485 -1.39311123 9.80356598
v 13.14437389 -12.77268219 4.63100767
v 13.09320164 -12.70993805 4.49296951
v 13.11008358 -1.45793092 9.94616890
v 13.11009502 -12.83750343 4.77361345
v 13.00024986 -1.50609350 10.05212688
v 13.00026321 -12.88567066 4.87958288
v 12.84486675 -1.52408385 10.09170532
v 7.00000000 -12.90366459 4.91916895
v 12.84486675 -12.90366459 4.91916895
v 7.00000000 1.73586071 2.91982770
v 7.00000000 -6.81913519 2.91982770
v 9.00000000 9.50000000 2.91982770
v 7.00000000 5.50000000 2.91982770
v -5.08072805 2.10606861 2.91982770
v -0.95506495 -5.41644287 2.91982770
v -2.17959309 -5.04959965 2.91982770
v -3.28565931 -4.41059875 2.91982770
v -4.21326017 -3.53530383 2.91982770
v -4.91416550 -2.46980023 2.91982770
v -5.35137510 -1.26959229 2.91982770
v -5.50000000 0.00000000 2.91982770
v -5.45256996 0.72027862 2.91982770
v -5.31199694 1.42527592 2.91982770
v 7.00000000 9.50000000 -3.55920196
v 9.00000000 9.50000000 -3.55920196
v 7.00000000 -5.87351418 -10.54716301
v 7.00000000 9.50000000 2.91982770
v 7.00000000 5.50000000 -2.93000007
v 9.98226166 -8.84766483 -4.00403166
v 9.80037689 -9.46037483 -2.65606856
v 9.30407524 -9.78893757 -1.93323088
v 10.48685741 -8.26712513 -5.28121758
v 11.28801727 -7.74765110 -6.42406178
v 12.34540749 -7.31471348 -7.37652445
v 13.60920620 -6.98871279 -8.09372520
v 15.01743603 -6.78607321 -8.53953171
v 16.50000000 -6.71731091 -8.69081020
v 22.20047569 -6.71731091 -8.69081020
v 8.98659039 -10.90811539 0.52896100
v 7.00000000 -6.81913519 -2.93000007
v 8.89134598 -10.54019642 -0.28046161
v 8.99578762 -10.15514755 -1.12757003
v 9.80037689 -4.49887753 -0.40084258
v 9.30407524 -4.82744026 0.32199514
v 9.98227024 -3.88615251 -1.74883807
v 10.48688412 -3.30560565 -3.02604127
v 11.28806400 -2.78612995 -4.16888762
v 12.34546471 -2.35319710 -5.12133980
v 13.60926151 -2.02720475 -5.83852291
v 15.01747131 -1.82457280 -6.28431320
v 16.50000000 -1.75581348 -6.43558407
v 22.20047569 -1.75581348 -6.43558407
v 9.72279453 -11.57824421 2.00324440
v 9.26813507 -11.25961971 1.30227017
v 10.36855602 -6.93432713 4.95714617
v 9.72279453 -6.61674738 4.25847054
v 9.26813507 -6.29812241 3.55749607
v 8.98659039 -5.94661856 2.78418708
v 8.89134598 -5.57869911 1.97476447
v 8.99578762 -5.19364977 1.12765598
v 14.94478512 -1.91675198 -6.08151913
v 16.50000000 -1.83857405 -6.25351048
v 10.04755116 -4.20389414 -1.04980636
v 11.15065670 -3.00042892 -3.69742990
v 10.42228222 -3.57464123 -2.43416309
v 12.19011688 -2.51487875 -4.76564026
v 13.47884369 -2.14679718 -5.57541943
v 22.57867241 -1.79522026 -6.34888887
v 22.95337486 -1.83857405 -6.25351048
v 25.50000000 -6.80007124 -8.50873661
v 22.57867241 -0.33863384 -5.68680429
v 10.04755116 -4.85269213 0.37754926
v 10.42228222 -5.48194504 1.76190591
v 14.94478512 -7.13983440 5.40926218
v 16.50000000 -7.21801233 5.58125353
v 13.47884369 -6.90978909 4.90316248
v 12.19011688 -6.54170752 4.09338331
v 11.15065670 -6.05615759 3.02517271
v 16.50000000 -8.53804398 4.98123932
v 16.50000000 -5.76142597 6.24333811
v 21.58060074 -8.53804398 4.98123932
v 13.67769527 -8.27120399 4.39419222
v 15.05205441 -8.47042465 4.83247757
v 12.44625759 -7.95086050 3.68943667
v 11.41894627 -7.52575159 2.75419664
v 10.64482117 -7.01618004 1.63313949
v 10.16340065 -6.44747400 0.38198611
v 10.00000000 -5.84832478 -0.93614286
v 10.16340923 -8.89062595 -3.90951562
v 10.00000000 -9.48979092 -2.59135461
v 10.00000000 -8.57913876 -2.17742181
v 10.00000000 -6.75869083 -1.34994578
v 10.64484692 -8.32191277 -5.16068649
v 11.41899204 -7.81234026 -6.28174543
v 12.44631481 -7.38723564 -7.21697521
v 13.67774963 -7.06690025 -7.92171335
v 15.05208969 -6.86768723 -8.35998249
v 16.50000000 -6.80007124 -8.50873661
v 14.94478512 -5.68324804 6.07134676
v 11.15065670 -4.59957123 3.68725753
v 10.42228222 -4.02535868 2.42399049
v 12.19011688 -5.08512115 4.75546789
v 13.47884369 -5.45320272 5.56524706
v 16.50000000 -4.44139433 6.84335232
v 15.05208969 -4.37377882 6.69459772
v 21.58060074 -4.44139433 6.84335232
v 17.03734207 -5.15826941 8.42047691
v 15.40084267 -5.13511229 8.36953163
v 22.19623184 -11.39618397 3.68208480
v 21.58060074 -3.81194186 7.12946749
v 20.19338417 -4.17488289 7.92793798
v 18.65490532 -5.04698467 8.17565060
v 20.18972206 -4.80507231 7.64344311
v 21.05134964 -1.71058083 8.08463192
v 20.24720383 -3.69196296 7.18400335
v 21.05134964 -1.48932374 8.18520260
v 22.19350243 -1.58305633 8.14259720
v 16.50000000 -1.71058083 8.08463192
v 18.99974060 -3.60549402 7.22330713
v 17.74970055 -3.55014110 7.24846792
v 18.65999794 -4.41701174 8.46062088
v 16.50000000 -3.53102803 7.25715542
v 17.04112816 -4.52874565 8.70643520
v 15.05361366 -1.64314389 7.93627024
v 15.77223110 -3.51411581 7.21994829
v 17.81409454 -1.65501118 7.96237850
v 15.88244247 0.32550392 5.09617424
v 16.69628143 0.30158556 5.14879465
v 16.28738785 0.30204698 5.14777946
v 18.22135925 0.87251580 4.81918669
v 19.07477760 -1.49052775 7.60051489
v 20.22824669 -1.22415054 7.01448488
v 22.01865196 -1.94236779 9.49674320
v 23.29535866 -11.32752609 3.71329284
v 23.29615211 -1.65195394 8.11128044
v 24.39833832 -11.28402519 3.73306584
v 24.39765549 -1.69539452 8.09153461
v 22.89749718 -2.31975055 10.70390415
v 25.50000000 -11.26914310 3.73983049
v 25.50000000 -1.71029508 8.08476162
v 24.74661446 -2.45775628 11.00751591
v 26.22776985 -11.25223064 3.70262313
v 26.22776985 -1.69338274 8.04755402
v 24.74661446 -12.97973728 6.22479773
v 26.62520218 -12.96444702 6.19115877
v 22.89749718 -12.84173203 5.92118502
v 22.01406097 -12.17700386 4.83743143
v 21.05134964 -11.26885796 3.73996019
v 21.05134964 -11.49011421 3.63938880
v 21.58060074 -9.16749668 4.69512463
v 20.22824669 -10.78242683 2.66981387
v 22.89749718 -13.27053165 5.72627592
v 16.50000000 -9.44841003 4.56743622
v 16.50000000 -11.26885796 3.73996019
v 17.81409454 -11.21328831 3.61770701
v 17.74917221 -9.42931271 4.57611704
v 18.99906158 -9.37398338 4.60126686
v 20.24669075 -9.28751659 4.64056969
v 19.07477760 -11.04880428 3.25584364
v 15.77223110 -9.43149757 4.53022909
v 15.05361366 -9.38097286 4.41907501
v 15.05361366 -11.20142078 3.59159923
v 16.28738785 -10.37953281 0.29251617
v 16.69628143 -10.37999439 0.29353133
v 17.10153008 -10.35745144 0.24393749
v 17.04112816 -9.88430023 6.27209234
v 15.40084267 -9.86121655 6.22130919
v 18.65999794 -9.77256584 6.02627802
v 20.19338417 -9.53043747 5.49359512
v 20.18972206 -8.90172100 5.78133011
v 15.40084267 -9.23176193 6.50741816
v 18.65490532 -9.14363384 6.31353760
v 17.03734207 -9.25491810 6.55836391
v 16.50000000 4.57950974 -3.33620000
v 25.50000000 4.57950974 -3.33620000
v 13.67769527 4.31267023 -2.74915266
v 15.05205441 4.51189041 -3.18743801
v 12.44625759 3.99232674 -2.04439735
v 11.41894627 3.56721759 -1.10915720
v 10.64482117 3.05764604 0.01189992
v 10.16340065 2.48894000 1.26305330
v 10.00000000 -1.75167537 0.92597044
v 10.16340923 -2.35083961 2.24413157
v 10.64484692 -2.91955352 3.49530220
v 11.41899204 -3.42912579 4.61636162
v 12.44631481 -3.85423040 5.55159092
v 13.67774963 -4.17456579 6.25632906
v 0.00000000 5.50000000 -2.93000007
v -4.76238298 2.75130033 2.91982770
v -4.36262131 3.34914160 2.91982770
v -3.88902497 3.88898063 2.91982770
v -3.34919000 4.36258459 2.91982770
v -2.75134850 4.76235533 2.91982770
v -2.10611200 5.08070993 2.91982770
v -1.42530942 5.31198788 2.91982770
v -0.72029763 5.45256758 2.91982770
v 0.00000000 5.50000000 2.91982770
v -0.95506495 -5.41644287 -2.93000007
v -3.28561449 -4.41063213 -2.93000007
v -2.17956090 -5.04961348 -2.93000007
v -4.21321964 -3.53535223 -2.93000007
v -4.91414022 -2.46985030 -2.93000007
v -5.35136747 -1.26962626 -2.93000007
v -5.50000000 -0.00000000 -2.93000007
v -5.45256758 0.72029763 -2.93000007
v -5.31198788 1.42530942 -2.93000007
v -5.08070993 2.10611200 -2.93000007
v -4.76235533 2.75134850 -2.93000007
v -4.36258459 3.34919000 -2.93000007
v -3.88898063 3.88902497 -2.93000007
v -3.34914160 4.36262131 -2.93000007
v -2.75130033 4.76238298 -2.93000007
v -2.10606861 5.08072805 -2.93000007
v -1.42527592 5.31199694 -2.93000007
v -0.72027862 5.45256996 -2.93000007
v 31.71271515 -12.46372890 3.95130920
v 32.00607300 -9.48871517 -2.59372115
v 32.02273560 -9.49616146 -2.57733846
v 32.02273941 -9.04062939 -2.37115026
v 32.46451187 -9.63361454 -2.27494264
v 32.46767044 -8.80051994 -1.89415407
v 31.99994659 -9.47888756 -2.61534071
v 32.00211334 -8.57453537 -2.18921328
v 32.02273560 -8.58913612 -2.16588092
v 32.01445389 -8.58503342 -2.17137098
v 32.00804901 -8.58071613 -2.17813897
v 31.83153343 -8.88153934 -3.92950773
v 31.99994469 -8.56823444 -2.20216918
v 31.34699249 -8.31493092 -5.17604542
v 31.83138466 2.49830890 1.24244165
v 31.99994278 1.44764519 2.35047293
v 31.99994278 1.90099585 2.55653024
v 30.17650986 -12.91158295 4.93658829
v 30.57165718 -7.80750084 -6.29239130
v 31.34673882 3.06486654 -0.00398522
v 29.54490089 -7.38434076 -7.22334433
v 30.57135010 3.57223797 -1.12020242
v 28.45939064 -13.22530842 5.62678480
v 28.31550598 -7.06555605 -7.92466974
v 29.54459953 3.99533987 -2.05102634
v 26.62668037 -13.39313698 5.99600887
v 26.94426346 -6.86734247 -8.36074066
v 28.31526375 4.31407309 -2.75223947
v 26.94412613 4.51225138 -3.18823195
v 16.92711830 -10.71897602 0.11285264
v 17.38274956 -10.67667007 0.01978033
v 17.81719589 -10.60562706 -0.13651478
v 18.22135925 -10.50706482 -0.35335025
v 24.74785233 -13.40854645 6.02990913
v 15.11432076 -10.59130096 -0.16803132
v 15.54325390 -10.66682243 -0.00188331
v 15.99581146 -10.71399689 0.10189959
v 16.46118736 -10.73153973 0.14049275
v 13.82177162 -10.05005550 -1.35877156
v 14.06415749 -10.21519852 -0.99545598
v 14.36582184 -10.36288452 -0.67054868
v 14.71878910 -10.48922634 -0.39259481
v 13.49890232 -9.48979092 -2.59135461
v 13.53561401 -9.68332672 -2.16557407
v 13.64417171 -9.87134266 -1.75193918
v 13.49890232 -9.14078999 -2.43271780
v 13.60980701 -9.47527313 -1.69685423
v 13.52675819 -9.30959797 -2.06133914
v 13.74650955 -9.63473892 -1.34602976
v 13.93432617 -9.78503513 -1.01537812
v 14.16977024 -9.92337227 -0.71103734
v 14.44847298 -10.04718113 -0.43865710
v 14.76525879 -10.15416431 -0.20329382
v 15.48896027 -10.31005859 0.13967356
v 15.11424732 -10.24233532 -0.00931662
v 15.88244247 -10.35607529 0.24091093
v 17.49561310 -10.31232262 0.14465536
v 17.87121391 -10.24544716 -0.00247205
v 18.22135925 -10.15806484 -0.19471355
v 28.45977402 -12.79645824 5.82158422
v 30.17856407 -12.48234367 5.13053179
v 32.85479736 -9.79426384 -1.92151296
v 33.00652313 -11.89918041 2.70930433
v 31.71433449 -12.03439045 4.14503384
v 33.18835831 -9.97565842 -1.52244496
v 33.31423569 -11.70919514 2.29133511
v 33.00700760 -11.47012138 2.90364194
v 33.45880127 -10.17452145 -1.08494616
v 33.55487442 -11.50432301 1.84061742
v 33.55022430 -11.06671715 2.05277681
v 33.30998993 -11.28017521 2.49484396
v 33.66044235 -10.38686275 -0.61779660
v 33.72544479 -11.28759384 1.36381328
v 33.72206116 -10.83370590 1.58612716
v 33.78947830 -10.60831642 -0.13059807
v 33.82251740 -11.06297207 0.86964440
v 33.82106018 -10.58563042 1.10466337
v 33.84390259 -10.83500004 0.36810562
v 33.84494019 -10.32781696 0.61952507
v 33.79299927 -10.06289482 0.13674666
v 33.66596985 -9.79629612 -0.33253536
v 33.46650696 -9.53341198 -0.77740920
v 33.19868088 -9.27821064 -1.18984532
v 32.86302948 -9.03186703 -1.56590343
v 30.58190536 -10.25643635 1.51187575
v 30.09619331 -10.48134232 2.00666928
v 31.00370789 -10.01044083 0.97068542
v 31.35629845 -9.74644947 0.38990420
v 31.63524246 -9.46778202 -0.22316426
v 31.83703232 -9.17794323 -0.86081028
v 31.95912933 -8.88057709 -1.51501513
v 32.00000000 -8.57942390 -2.17755175
v 31.99998665 -8.57381725 -2.18988657
v 31.99994659 0.99032414 2.14339900
v 32.00000000 0.97942400 2.16737914
v 31.99998665 0.98487407 2.15538907
v 31.95912933 0.67827100 2.82991576
v 31.83703232 0.38090518 3.48412061
v 31.63524246 0.09106609 4.12176657
v 31.35629845 -0.18760139 4.73483515
v 31.00370789 -0.45159286 5.31561613
v 30.58190536 -0.69758844 5.85680676
v 30.09619331 -0.92249465 6.35160017
v 29.55268288 -1.12348306 6.79377508
v 29.55268288 -10.68233109 2.44884396
v 28.95820808 -1.29802632 7.17776966
v 28.95820808 -10.85687447 2.83283901
v 28.32024384 -1.44392920 7.49875641
v 28.32024384 -11.00277710 3.15382528
v 27.64681435 -1.55935705 7.75269747
v 27.64681435 -11.11820507 3.40776658
v 26.94638634 -1.64285827 7.93640041
v 26.94638634 -11.20170593 3.59146929
v 26.62520409 -2.44246578 10.97387695
v 28.45977592 -2.27447724 10.60430241
v 30.17856598 -1.96036220 9.91324902
v 31.71433640 -1.51240838 8.92775059
v 33.00701141 -0.94813901 7.68635798
v 33.55165482 -0.57097465 6.81972075
v 33.31095505 -0.76437163 7.27292156
v 33.82180023 -0.17182118 5.83061600
v 33.72341537 -0.37196359 6.33562040
v 33.79142761 0.21416697 4.79847908
v 33.84466553 0.02452432 5.31617069
v 33.46250916 0.55413949 3.79929042
v 33.66306305 0.39225933 4.28909445
v 32.85878754 0.81706494 2.90631914
v 33.19412613 0.69646680 3.33718300
v 32.00757217 0.98063940 2.16793180
v 32.01404572 0.97825086 2.17594790
v 32.02273560 0.97670645 2.18305302
v 32.46488953 0.91152084 2.51855922
v 32.00195312 0.98488384 2.15620422
v 32.00607300 1.89116907 2.57814932
v 31.71290207 -1.08407903 9.12369537
v 33.00658417 -0.51956260 7.88175917
v 30.17664719 -1.53196955 10.10905457
v 28.45948219 -1.84571493 10.79929447
v 26.62672806 -2.01355410 11.16854000
v 24.74786949 -2.02896619 11.20244694
v 16.46114540 0.64804190 5.31302929
v 22.89749718 -1.89095068 10.89881325
v 17.81718254 0.77395171 5.03602743
v 17.38272667 0.70290786 5.19232416
v 16.92708397 0.66060328 5.28539419
v 14.71874809 0.89036673 4.77991438
v 15.99576473 0.66558737 5.27442884
v 15.54320621 0.71276480 5.17063856
v 15.11427498 0.78828984 5.00448370
v 13.49890232 1.88979053 2.58118224
v 13.64416409 1.50824809 3.42057562
v 14.36578751 1.01671088 4.50195742
v 14.06413269 1.16439629 4.17704964
v 13.82175636 1.32953835 3.81373692
v 10.00000000 0.97913837 2.16724944
v 10.00000000 1.88979053 2.58118224
v 10.00000000 -0.84130895 1.33977342
v 13.49890232 1.54078972 2.42254543
v 10.16296864 -1.43982780 2.65651464
v 10.16296864 0.38061956 3.48399091
v 10.04087067 -1.14246190 2.00231004
v 10.64370251 -2.00833440 3.90722919
v 10.64370251 -0.18788703 4.73470545
v 13.60980701 1.20630622 3.15840912
v 10.36475849 -1.72966683 3.29416084
v 13.52675819 1.37198114 2.79392433
v 11.41809559 -2.51832151 5.02920055
v 11.41809559 -0.69787407 5.85667658
v 13.93432617 0.89654440 3.83988523
v 10.99629307 -2.27232575 4.48801041
v 13.74650955 1.04684055 3.50923371
v 12.44731617 -2.94421601 5.96616888
v 12.44731617 -1.12376869 6.79364491
v 14.16977024 0.75820768 4.14422607
v 11.90380573 -2.74322748 5.52399445
v 13.67975616 -3.26466227 6.67115021
v 13.67975616 -1.44421482 7.49862623
v 14.76525879 0.52741516 4.65196943
v 13.04179192 -3.11875916 6.35016394
v 14.44847298 0.63439846 4.41660643
v 15.05361366 -3.46359110 7.10879421
v 15.48896027 0.37152091 4.99493694
v 14.35318565 -3.38009000 6.92509174
v 15.11424732 0.43924370 4.84594679
v 15.40084267 -4.50566244 8.65565205
v 13.80405617 -4.34867573 8.31028175
v 12.31396580 -4.06399870 7.68399191
v 10.98954201 -3.66289735 6.80156898
v 9.88320160 -3.16124606 5.69793653
v 9.36758804 -2.76535702 4.85806847
v 9.11475658 -2.30493259 3.93751884
v 9.14052200 -1.81020069 3.00086069
v 9.44225025 -1.31247544 2.11432743
v 9.44119263 -2.12520194 1.74772847
v 9.88320160 -3.79069877 5.41182137
v 10.99260521 -4.29346037 6.51789761
v 12.31854534 -4.69450951 7.40020514
v 13.80766392 -4.97861052 8.02522850
v 13.80766392 -9.07526016 6.16311502
v 12.31854534 -8.79115868 5.53809214
v 10.99260521 -8.39011002 4.65578413
v 9.88320160 -7.88734770 3.54970837
v 9.44141102 -7.03305387 -0.48388007
v 9.44119263 -6.22185087 -0.11438474
v 10.16296864 -9.17765713 -0.86068046
v 10.04087067 -7.05984402 -0.68740916
v 10.16296864 -7.35720968 -0.03320438
v 10.64370251 -9.74616337 0.39003405
v 10.36475849 -7.64704895 0.60444164
v 9.13995171 -7.37437677 0.47566065
v 10.64370251 -7.92571640 1.21751010
v 9.11521530 -7.75506639 1.46479654
v 11.41809559 -10.25615120 1.51200557
v 10.99629307 -8.18970776 1.79829133
v 9.36876011 -8.14549828 2.41582727
v 11.41809559 -8.43570328 2.33948159
v 9.88320160 -8.51680088 3.26359344
v 12.44731617 -10.68204594 2.44897389
v 11.90380573 -8.66060925 2.83427525
v 12.44731617 -8.86159801 3.27644992
v 10.98954201 -9.01845169 4.36722612
v 13.67975616 -11.00249195 3.15395522
v 13.04179192 -9.03614140 3.66044474
v 13.67975616 -9.18204403 3.98143125
v 12.31396580 -9.41955280 5.24964905
v 14.35318565 -9.29747200 4.23537254
v 13.80405617 -9.70423031 5.87593842
v 9.36779022 -7.50328493 2.70476985
v 9.13996506 -6.64158678 0.80903351
v 9.11495972 -7.07811499 1.76939583
v 9.36779022 -3.40663576 4.56688309
v 9.13996506 -2.54493737 2.67114687
v 9.11495972 -2.98146582 3.63150907
v 17.49561310 0.36925644 4.99991894
v 17.10153008 0.32412818 5.09920073
v 17.87121391 0.43613255 4.85279131
v 18.22135925 0.52351505 4.66054964
v 13.53561115 1.69625950 3.00695038
v 32.02273560 1.88372326 2.59453011
v 32.46458817 1.74627769 2.89691019
v 32.02273560 1.43223548 2.38925672
v 32.85494995 1.58562624 3.25034332
v 33.18857956 1.40422177 3.64943337
v 33.31440353 -0.32955310 7.46373796
v 33.45907974 1.20534110 4.08697081
v 33.55512238 -0.12465142 7.01295424
v 33.66076279 0.99297601 4.55417395
v 33.72575378 0.09211177 6.53607559
v 33.78982544 0.77149278 5.04143715
v 33.82286072 0.31676918 6.04182911
v 33.84425735 0.54477638 5.54021311
f 1 2 3
f 4 3 2
f 5 1 3
f 6 5 3
f 7 6 3
f 8 7 3
f 4 8 3
f 1 9 2
f 10 2 9
f 10 11 2
f 4 2 11
f 12 13 9
f 14 9 13
f 1 12 9
f 14 10 9
f 15 16 13
f 17 13 16
f 12 15 13
f 17 14 13
f 18 19 16
f 20 16 19
f 15 18 16
f 20 17 16
f 21 22 19
f 23 19 22
f 18 21 19
f 23 20 19
f 24 25 22
f 26 22 25
f 21 24 22
f 26 23 22
f 27 28 25
f 29 25 28
f 24 27 25
f 30 26 25
f 29 30 25
f 31 28 27
f 32 28 31
f 33 29 28
f 34 33 28
f 32 34 28
f 35 27 24
f 35 31 27
f 35 24 21
f 36 21 18
f 36 37 21
f 35 21 37
f 36 18 15
f 36 15 12
f 5 12 1
f 5 36 12
f 35 37 38
f 39 38 37
f 40 35 38
f 39 40 38
f 41 37 36
f 41 39 37
f 42 36 5
f 41 36 42
f 43 5 6
f 42 5 43
f 44 6 7
f 43 6 44
f 45 7 8
f 44 7 45
f 4 45 8
f 35 46 31
f 32 31 46
f 47 48 46
f 49 46 48
f 35 47 46
f 32 46 49
f 47 50 48
f 51 48 50
f 49 48 51
f 47 52 50
f 53 50 52
f 51 50 53
f 47 54 52
f 55 52 54
f 53 52 55
f 47 56 54
f 34 54 56
f 55 54 34
f 47 57 56
f 58 56 57
f 33 56 58
f 34 56 33
f 47 59 57
f 60 57 59
f 61 57 60
f 62 57 61
f 58 57 62
f 47 63 59
f 64 59 63
f 60 59 64
f 47 65 63
f 66 63 65
f 67 63 66
f 64 63 67
f 47 68 65
f 69 65 68
f 66 65 69
f 47 70 68
f 71 68 70
f 69 68 71
f 47 72 70
f 71 70 72
f 73 72 47
f 74 72 73
f 71 72 74
f 35 75 47
f 76 47 75
f 76 73 47
f 77 75 35
f 77 78 75
f 79 75 78
f 80 76 75
f 81 80 75
f 82 81 75
f 83 82 75
f 84 83 75
f 85 84 75
f 86 85 75
f 87 86 75
f 88 87 75
f 79 88 75
f 77 35 40
f 89 40 39
f 89 90 40
f 77 40 90
f 91 89 39
f 41 91 39
f 92 90 89
f 77 90 92
f 93 89 91
f 93 92 89
f 94 95 91
f 96 91 95
f 97 94 91
f 98 97 91
f 99 98 91
f 100 99 91
f 101 100 91
f 102 101 91
f 103 102 91
f 45 103 91
f 44 45 91
f 43 44 91
f 42 43 91
f 41 42 91
f 104 73 91
f 105 91 73
f 106 104 91
f 107 106 91
f 96 107 91
f 105 93 91
f 108 95 94
f 109 96 95
f 109 95 108
f 110 94 97
f 110 108 94
f 111 97 98
f 111 110 97
f 112 98 99
f 112 111 98
f 113 99 100
f 113 112 99
f 114 100 101
f 114 113 100
f 115 101 102
f 115 114 101
f 116 102 103
f 115 102 116
f 117 103 45
f 117 116 103
f 4 117 45
f 61 74 73
f 118 61 73
f 119 118 73
f 104 119 73
f 76 105 73
f 61 71 74
f 60 69 71
f 61 60 71
f 60 66 69
f 60 67 66
f 60 64 67
f 120 61 118
f 62 61 120
f 121 118 119
f 120 118 121
f 122 119 104
f 121 119 122
f 123 104 106
f 122 104 123
f 124 106 107
f 123 106 124
f 125 107 96
f 124 107 125
f 125 96 109
f 126 115 116
f 127 116 117
f 127 126 116
f 121 108 110
f 121 109 108
f 128 110 111
f 128 121 110
f 129 111 112
f 130 128 111
f 129 130 111
f 131 112 113
f 131 129 112
f 132 113 114
f 132 131 113
f 126 114 115
f 126 132 114
f 127 133 134
f 11 134 133
f 135 127 134
f 135 134 11
f 127 117 133
f 136 133 117
f 136 11 133
f 136 117 4
f 122 125 109
f 121 122 109
f 123 124 125
f 122 123 125
f 137 120 121
f 128 137 121
f 138 62 120
f 137 138 120
f 139 140 62
f 58 62 140
f 141 139 62
f 142 141 62
f 143 142 62
f 138 143 62
f 144 140 139
f 145 58 140
f 146 145 140
f 144 146 140
f 147 139 141
f 148 144 139
f 147 148 139
f 149 141 142
f 149 147 141
f 150 142 143
f 150 149 142
f 151 143 138
f 151 150 143
f 152 138 137
f 152 151 138
f 153 137 128
f 153 152 137
f 154 128 130
f 155 128 154
f 156 128 155
f 157 153 128
f 156 157 128
f 158 130 129
f 154 130 158
f 159 129 131
f 158 129 159
f 160 131 132
f 159 131 160
f 161 132 126
f 160 132 161
f 162 126 127
f 161 126 162
f 163 127 135
f 162 127 163
f 164 58 145
f 165 166 58
f 33 58 166
f 167 165 58
f 168 167 58
f 164 168 58
f 146 169 145
f 170 145 169
f 170 164 145
f 146 171 169
f 172 169 171
f 173 170 169
f 172 173 169
f 174 175 171
f 176 171 175
f 146 174 171
f 177 172 171
f 178 177 171
f 176 178 171
f 179 180 175
f 176 175 180
f 181 179 175
f 182 181 175
f 174 182 175
f 183 184 180
f 176 180 184
f 179 183 180
f 183 185 184
f 186 184 185
f 186 176 184
f 183 187 185
f 188 185 187
f 188 186 185
f 189 187 183
f 190 187 189
f 188 187 190
f 191 183 179
f 192 189 183
f 193 183 191
f 194 192 183
f 193 194 183
f 195 179 181
f 196 191 179
f 197 196 179
f 195 197 179
f 198 181 182
f 198 195 181
f 199 200 182
f 198 182 200
f 174 199 182
f 201 202 200
f 203 200 202
f 199 201 200
f 203 198 200
f 204 205 202
f 206 202 205
f 201 204 202
f 206 203 202
f 207 205 204
f 208 205 207
f 206 205 208
f 209 204 201
f 210 207 204
f 209 210 204
f 211 201 199
f 211 209 201
f 212 199 174
f 212 211 199
f 213 214 174
f 212 174 214
f 215 213 174
f 146 215 174
f 216 214 213
f 212 214 217
f 216 217 214
f 218 219 213
f 220 213 219
f 221 218 213
f 222 221 213
f 223 222 213
f 215 223 213
f 224 216 213
f 224 213 220
f 225 219 218
f 225 226 219
f 227 219 226
f 228 219 227
f 229 219 228
f 230 219 229
f 220 219 230
f 231 218 221
f 232 225 218
f 231 232 218
f 233 221 222
f 233 231 221
f 234 222 223
f 234 233 222
f 234 223 215
f 235 215 146
f 234 215 235
f 235 146 144
f 236 144 148
f 237 235 144
f 238 237 144
f 236 238 144
f 239 11 10
f 136 4 11
f 240 135 11
f 239 240 11
f 239 10 14
f 241 14 17
f 242 239 14
f 241 242 14
f 243 17 20
f 243 241 17
f 244 20 23
f 244 243 20
f 245 23 26
f 245 244 23
f 246 26 30
f 246 245 26
f 247 30 29
f 247 246 30
f 33 166 29
f 248 29 166
f 248 247 29
f 249 166 165
f 249 248 166
f 250 165 167
f 250 249 165
f 251 167 168
f 251 250 167
f 252 168 164
f 252 251 168
f 170 252 164
f 32 55 34
f 49 53 55
f 32 49 55
f 49 51 53
f 93 78 92
f 77 92 78
f 253 78 93
f 254 79 78
f 255 254 78
f 256 255 78
f 257 256 78
f 258 257 78
f 259 258 78
f 260 259 78
f 261 260 78
f 262 261 78
f 253 262 78
f 263 93 105
f 263 253 93
f 80 105 76
f 263 105 80
f 263 80 81
f 264 81 82
f 265 263 81
f 264 265 81
f 266 82 83
f 266 264 82
f 267 83 84
f 267 266 83
f 268 84 85
f 268 267 84
f 268 85 86
f 269 86 87
f 269 268 86
f 270 87 88
f 270 269 87
f 271 88 79
f 271 270 88
f 272 79 254
f 272 271 79
f 273 254 255
f 273 272 254
f 274 255 256
f 274 273 255
f 275 256 257
f 275 274 256
f 276 257 258
f 276 275 257
f 277 258 259
f 277 276 258
f 278 259 260
f 278 277 259
f 279 260 261
f 279 278 260
f 280 261 262
f 280 279 261
f 280 262 253
f 280 253 263
f 279 263 265
f 280 263 279
f 277 265 264
f 278 265 277
f 279 265 278
f 276 264 266
f 277 264 276
f 274 266 267
f 275 266 274
f 276 266 275
f 272 267 268
f 273 267 272
f 274 267 273
f 270 268 269
f 271 268 270
f 272 268 271
f 281 282 283
f 284 283 282
f 285 281 283
f 286 285 283
f 284 286 283
f 281 287 282
f 288 282 287
f 284 282 289
f 290 289 282
f 291 290 282
f 288 291 282
f 281 292 287
f 293 287 292
f 293 288 287
f 281 294 292
f 295 292 294
f 296 293 292
f 297 296 292
f 295 297 292
f 298 299 294
f 300 294 299
f 281 298 294
f 300 295 294
f 298 301 299
f 302 299 301
f 302 300 299
f 303 304 301
f 305 301 304
f 298 303 301
f 305 302 301
f 306 307 304
f 308 304 307
f 303 306 304
f 308 305 304
f 306 135 307
f 309 307 135
f 309 308 307
f 310 163 135
f 311 310 135
f 312 311 135
f 313 312 135
f 217 313 135
f 314 217 135
f 306 314 135
f 240 309 135
f 315 162 163
f 316 315 163
f 317 316 163
f 318 317 163
f 310 318 163
f 319 161 162
f 320 319 162
f 321 320 162
f 322 321 162
f 315 322 162
f 323 160 161
f 324 323 161
f 325 324 161
f 319 325 161
f 155 159 160
f 323 155 160
f 155 158 159
f 155 154 158
f 156 155 323
f 326 323 324
f 326 156 323
f 327 324 325
f 328 326 324
f 327 328 324
f 329 325 319
f 329 327 325
f 330 319 320
f 330 329 319
f 331 320 321
f 331 330 320
f 332 321 322
f 332 331 321
f 333 322 315
f 333 332 322
f 334 315 316
f 335 333 315
f 334 335 315
f 336 316 317
f 336 334 316
f 228 317 318
f 228 336 317
f 229 318 310
f 229 228 318
f 230 310 311
f 230 229 310
f 337 311 312
f 337 230 311
f 338 312 313
f 338 337 312
f 339 313 217
f 338 313 339
f 211 217 314
f 212 217 211
f 216 339 217
f 210 314 306
f 209 314 210
f 211 314 209
f 210 306 303
f 340 303 298
f 210 303 340
f 341 298 281
f 340 298 341
f 342 343 281
f 344 281 343
f 285 342 281
f 341 281 344
f 345 346 343
f 347 343 346
f 342 345 343
f 344 343 347
f 348 349 346
f 350 346 349
f 345 348 346
f 351 347 346
f 350 351 346
f 352 353 349
f 354 349 353
f 348 352 349
f 354 350 349
f 355 356 353
f 357 353 356
f 352 355 353
f 357 354 353
f 355 358 356
f 359 356 358
f 359 357 356
f 360 358 355
f 360 359 358
f 361 355 352
f 361 360 355
f 362 352 348
f 362 361 352
f 363 348 345
f 363 362 348
f 364 345 342
f 364 363 345
f 286 342 285
f 286 364 342
f 365 347 351
f 366 347 365
f 344 347 366
f 367 351 350
f 365 351 367
f 367 350 354
f 368 354 357
f 367 354 368
f 368 357 359
f 369 359 360
f 368 359 369
f 369 360 361
f 370 361 362
f 369 361 370
f 370 362 363
f 371 363 364
f 370 363 371
f 371 364 286
f 284 289 286
f 371 286 289
f 371 289 290
f 371 290 291
f 372 291 288
f 371 291 372
f 373 288 293
f 372 288 373
f 374 373 293
f 296 374 293
f 375 372 373
f 376 375 373
f 374 376 373
f 377 371 372
f 375 377 372
f 378 370 371
f 377 378 371
f 379 369 370
f 378 379 370
f 380 368 369
f 379 380 369
f 381 367 368
f 380 381 368
f 382 365 367
f 381 382 367
f 383 366 365
f 382 383 365
f 384 385 366
f 344 366 385
f 383 384 366
f 386 387 385
f 344 385 387
f 384 386 385
f 388 389 387
f 341 387 389
f 386 388 387
f 341 344 387
f 390 391 389
f 341 389 391
f 388 390 389
f 392 393 391
f 340 391 393
f 390 392 391
f 340 341 391
f 208 207 393
f 210 393 207
f 392 208 393
f 210 340 393
f 394 208 392
f 394 206 208
f 395 392 390
f 395 394 392
f 395 390 388
f 396 388 386
f 396 395 388
f 396 386 384
f 397 384 383
f 397 396 384
f 397 383 382
f 398 382 381
f 398 397 382
f 399 381 380
f 400 398 381
f 399 400 381
f 401 380 379
f 402 399 380
f 401 402 380
f 403 379 378
f 404 401 379
f 403 404 379
f 405 378 377
f 406 403 378
f 405 406 378
f 407 377 375
f 408 405 377
f 407 408 377
f 409 375 376
f 410 375 409
f 411 375 410
f 412 375 411
f 412 407 375
f 413 376 374
f 409 376 413
f 414 374 296
f 413 374 414
f 414 296 297
f 415 297 295
f 416 414 297
f 415 416 297
f 415 295 300
f 415 300 302
f 417 302 305
f 417 415 302
f 418 305 308
f 418 417 305
f 418 308 309
f 419 309 240
f 419 418 309
f 420 240 239
f 420 419 240
f 421 239 242
f 422 420 239
f 195 422 239
f 423 195 239
f 424 423 239
f 425 424 239
f 421 425 239
f 426 242 241
f 427 421 242
f 428 427 242
f 429 428 242
f 426 429 242
f 430 241 243
f 431 241 430
f 432 426 241
f 433 432 241
f 434 433 241
f 431 434 241
f 430 243 244
f 430 244 245
f 430 245 246
f 435 436 246
f 430 246 436
f 437 435 246
f 247 437 246
f 438 436 435
f 430 436 438
f 439 440 435
f 438 435 440
f 441 439 435
f 437 441 435
f 442 443 440
f 444 440 443
f 445 442 440
f 439 445 440
f 446 438 440
f 444 446 440
f 447 448 443
f 449 443 448
f 450 447 443
f 442 450 443
f 451 444 443
f 449 451 443
f 452 453 448
f 454 448 453
f 455 452 448
f 447 455 448
f 454 449 448
f 456 457 453
f 458 453 457
f 459 456 453
f 452 459 453
f 460 454 453
f 458 460 453
f 461 189 457
f 462 457 189
f 463 461 457
f 456 463 457
f 464 458 457
f 462 464 457
f 461 190 189
f 192 462 189
f 465 190 461
f 465 188 190
f 466 461 463
f 466 465 461
f 466 463 456
f 467 456 459
f 467 466 456
f 467 459 452
f 468 452 455
f 468 467 452
f 468 455 447
f 469 447 450
f 468 447 469
f 470 450 442
f 469 450 470
f 471 442 445
f 470 442 471
f 472 445 439
f 471 445 472
f 473 439 441
f 472 439 473
f 473 441 437
f 474 437 247
f 473 437 474
f 475 247 248
f 475 474 247
f 475 248 249
f 476 249 250
f 476 475 249
f 477 250 251
f 477 476 250
f 477 251 252
f 478 252 170
f 478 477 252
f 173 478 170
f 479 148 147
f 479 236 148
f 479 147 149
f 480 149 150
f 480 479 149
f 481 150 151
f 481 480 150
f 481 151 152
f 482 152 153
f 482 481 152
f 483 153 157
f 484 482 153
f 483 484 153
f 485 486 157
f 483 157 486
f 156 485 157
f 485 487 486
f 483 486 487
f 488 489 487
f 490 487 489
f 485 488 487
f 490 483 487
f 488 491 489
f 492 489 491
f 492 490 489
f 493 494 491
f 495 491 494
f 488 493 491
f 495 492 491
f 493 496 494
f 497 494 496
f 495 494 497
f 498 499 496
f 497 496 499
f 493 498 496
f 498 500 499
f 501 499 500
f 501 497 499
f 502 503 500
f 501 500 503
f 498 502 500
f 502 504 503
f 505 503 504
f 505 501 503
f 227 506 504
f 505 504 506
f 502 227 504
f 227 226 506
f 507 506 226
f 507 505 506
f 232 226 225
f 232 507 226
f 334 227 502
f 336 227 334
f 228 227 336
f 335 502 498
f 334 502 335
f 332 498 493
f 333 498 332
f 335 498 333
f 330 493 488
f 331 493 330
f 332 493 331
f 329 488 485
f 330 488 329
f 328 485 156
f 327 485 328
f 329 485 327
f 328 156 326
f 233 235 237
f 234 235 233
f 231 237 238
f 233 237 231
f 231 238 236
f 232 236 479
f 231 236 232
f 507 479 480
f 232 479 507
f 505 480 481
f 507 480 505
f 501 481 482
f 505 481 501
f 484 508 482
f 497 482 508
f 501 482 497
f 509 510 508
f 492 508 510
f 484 509 508
f 495 497 508
f 495 508 492
f 490 510 509
f 492 510 490
f 490 509 484
f 490 484 483
f 224 339 216
f 224 338 339
f 220 230 337
f 224 337 338
f 224 220 337
f 511 512 474
f 472 474 512
f 475 511 474
f 472 473 474
f 511 513 512
f 471 512 513
f 471 472 512
f 470 513 511
f 470 471 513
f 470 511 475
f 469 475 476
f 469 470 475
f 467 476 477
f 468 469 476
f 468 476 467
f 466 477 478
f 467 477 466
f 466 478 173
f 465 173 172
f 466 173 465
f 188 172 177
f 465 172 188
f 186 177 178
f 188 177 186
f 186 178 176
f 514 191 196
f 515 193 191
f 514 515 191
f 516 196 197
f 516 514 196
f 517 516 197
f 195 517 197
f 430 438 446
f 518 446 444
f 518 430 446
f 431 444 451
f 518 444 431
f 434 451 449
f 431 451 434
f 433 449 454
f 434 449 433
f 432 454 460
f 433 454 432
f 426 460 458
f 432 460 426
f 429 458 464
f 426 458 429
f 429 464 462
f 428 462 192
f 429 462 428
f 427 192 194
f 428 192 427
f 421 194 193
f 427 194 421
f 425 193 515
f 421 193 425
f 424 515 514
f 425 515 424
f 423 514 516
f 424 514 423
f 423 516 517
f 423 517 195
f 518 431 430
f 416 519 414
f 409 414 519
f 409 413 414
f 416 520 519
f 521 519 520
f 410 409 519
f 521 410 519
f 416 522 520
f 412 520 522
f 521 520 411
f 412 411 520
f 416 523 522
f 407 522 523
f 412 522 407
f 524 525 523
f 408 523 525
f 416 524 523
f 407 523 408
f 526 527 525
f 405 525 527
f 524 526 525
f 408 525 405
f 528 529 527
f 406 527 529
f 526 528 527
f 405 527 406
f 530 531 529
f 403 529 531
f 528 530 529
f 406 529 403
f 404 531 530
f 403 531 404
f 401 530 528
f 404 530 401
f 402 528 526
f 401 528 402
f 399 526 524
f 402 526 399
f 400 524 416
f 399 524 400
f 397 416 415
f 398 416 397
f 400 416 398
f 396 415 417
f 397 415 396
f 395 417 418
f 396 417 395
f 395 418 419
f 394 419 420
f 395 419 394
f 206 420 422
f 394 420 206
f 203 422 195
f 206 422 203
f 203 195 198
f 521 411 410

